<svg xmlns="http://www.w3.org/2000/svg" xmlns:xlink="http://www.w3.org/1999/xlink" width="500" zoomAndPan="magnify" viewBox="0 0 375 374.999991" height="500" preserveAspectRatio="xMidYMid meet" version="1.0"><defs><clipPath id="970c7faa4b"><path d="M 19 104.074219 L 356 104.074219 L 356 177 L 19 177 Z M 19 104.074219 " clip-rule="nonzero"/></clipPath><clipPath id="14c624d9e9"><path d="M 19 165.222656 L 356 165.222656 L 356 239 L 19 239 Z M 19 165.222656 " clip-rule="nonzero"/></clipPath></defs><rect x="-37.5" width="450" fill="#ffffff" y="-37.499999" height="449.999989" fill-opacity="1"/><rect x="-37.5" width="450" fill="#ffffff" y="-37.499999" height="449.999989" fill-opacity="1"/><g clip-path="url(#970c7faa4b)"><path fill="#000000" d="M 21.855469 144.390625 C 38.300781 112.242188 77.082031 104.40625 109.222656 114.765625 C 141.367188 125.125 162.148438 152.015625 191.738281 166.394531 C 247.199219 193.324219 318.953125 165.773438 354.558594 118.355469 C 356.320312 116.007812 352.894531 112.824219 350.574219 114.472656 C 322.882812 132.984375 297.742188 154.152344 264.441406 161.972656 C 255.9375 164.042969 247.3125 165.128906 238.5625 165.234375 C 229.816406 165.339844 221.167969 164.457031 212.617188 162.589844 C 195.414062 158.59375 181.054688 149.300781 166.96875 139.039062 C 141.945312 120.839844 115.164062 104.113281 83.082031 104.636719 C 56.761719 105.042969 30.832031 118.703125 19.492188 143.113281 C 18.738281 144.585938 21.019531 145.984375 21.855469 144.390625 Z M 21.855469 144.390625 " fill-opacity="1" fill-rule="nonzero"/></g><g clip-path="url(#14c624d9e9)"><path fill="#000000" d="M 21.855469 205.542969 C 38.300781 173.394531 77.082031 165.554688 109.222656 175.914062 C 141.367188 186.277344 162.148438 213.167969 191.738281 227.542969 C 247.199219 254.472656 318.953125 226.921875 354.558594 179.503906 C 356.320312 177.15625 352.894531 173.976562 350.574219 175.625 C 322.882812 194.132812 297.742188 215.300781 264.441406 223.121094 C 255.9375 225.191406 247.3125 226.28125 238.5625 226.386719 C 229.816406 226.488281 221.167969 225.609375 212.617188 223.742188 C 195.414062 219.746094 181.054688 210.449219 166.96875 200.1875 C 141.945312 181.988281 115.164062 165.261719 83.082031 165.789062 C 56.761719 166.195312 30.832031 179.855469 19.492188 204.261719 C 18.738281 205.734375 21.019531 207.132812 21.855469 205.542969 Z M 21.855469 205.542969 " fill-opacity="1" fill-rule="nonzero"/></g></svg>