<svg xmlns="http://www.w3.org/2000/svg" xmlns:xlink="http://www.w3.org/1999/xlink" width="500" zoomAndPan="magnify" viewBox="0 0 375 374.999991" height="500" preserveAspectRatio="xMidYMid meet" version="1.0"><defs><clipPath id="4c1eca1f4b"><path d="M 37.5 147.660156 L 297.75 147.660156 L 297.75 221.160156 L 37.5 221.160156 Z M 37.5 147.660156 " clip-rule="nonzero"/></clipPath><clipPath id="7bbf6122ec"><path d="M 0.5 0.660156 L 260.539062 0.660156 L 260.539062 74.160156 L 0.5 74.160156 Z M 0.5 0.660156 " clip-rule="nonzero"/></clipPath><clipPath id="c735edabaa"><rect x="0" width="261" y="0" height="75"/></clipPath><clipPath id="261470b1da"><path d="M 77.453125 153.582031 L 337.703125 153.582031 L 337.703125 227.082031 L 77.453125 227.082031 Z M 77.453125 153.582031 " clip-rule="nonzero"/></clipPath></defs><rect x="-37.5" width="450" fill="#ffffff" y="-37.499999" height="449.999989" fill-opacity="1"/><rect x="-37.5" width="450" fill="#ffffff" y="-37.499999" height="449.999989" fill-opacity="1"/><g clip-path="url(#4c1eca1f4b)"><g transform="matrix(1, 0, 0, 1, 37, 147)"><g clip-path="url(#c735edabaa)"><g clip-path="url(#7bbf6122ec)"><path fill="#000000" d="M 84.152344 69.875 C 82.09375 65.1875 80.320312 60.179688 79.273438 56.097656 C 78.453125 52.890625 77.304688 46.332031 77.304688 44.828125 L 77.304688 43.726562 L 260.386719 43.726562 L 260.386719 31.101562 L 77.304688 31.101562 L 77.304688 30 C 77.304688 28.5 78.453125 21.9375 79.273438 18.734375 C 80.320312 14.648438 82.09375 9.640625 84.152344 4.953125 C 85.1875 2.59375 86.011719 0.664062 85.980469 0.664062 C 85.558594 0.664062 0.539062 37.171875 0.480469 37.375 C 0.421875 37.578125 85.445312 74.164062 85.976562 74.164062 C 86.007812 74.164062 85.1875 72.234375 84.152344 69.875 Z M 84.152344 69.875 " fill-opacity="1" fill-rule="nonzero"/></g></g></g></g><g clip-path="url(#261470b1da)"><path fill="#000000" d="M 253.839844 222.800781 C 255.898438 218.113281 257.671875 213.105469 258.71875 209.019531 C 259.539062 205.816406 260.683594 199.253906 260.683594 197.753906 L 260.683594 196.652344 L 77.605469 196.652344 L 77.605469 184.023438 L 260.683594 184.023438 L 260.683594 182.925781 C 260.683594 181.421875 259.539062 174.863281 258.71875 171.65625 C 257.671875 167.574219 255.898438 162.566406 253.839844 157.878906 C 252.800781 155.519531 251.980469 153.589844 252.011719 153.589844 C 252.433594 153.589844 337.453125 190.097656 337.511719 190.300781 C 337.570312 190.503906 252.546875 227.089844 252.015625 227.089844 C 251.984375 227.089844 252.804688 225.160156 253.839844 222.796875 Z M 253.839844 222.800781 " fill-opacity="1" fill-rule="nonzero"/></g></svg>