<svg xmlns="http://www.w3.org/2000/svg" xmlns:xlink="http://www.w3.org/1999/xlink" width="500" zoomAndPan="magnify" viewBox="0 0 375 374.999991" height="500" preserveAspectRatio="xMidYMid meet" version="1.0"><defs><clipPath id="02adc95884"><path d="M 206 90 L 279 90 L 279 295 L 206 295 Z M 206 90 " clip-rule="nonzero"/></clipPath><clipPath id="cdd6b7f148"><path d="M 150.113281 174.328125 L 272.609375 87.75 L 359.183594 210.246094 L 236.6875 296.820312 Z M 150.113281 174.328125 " clip-rule="nonzero"/></clipPath><clipPath id="6f8fc8ba2e"><path d="M 150.113281 174.328125 L 272.609375 87.75 L 359.183594 210.246094 L 236.6875 296.820312 Z M 150.113281 174.328125 " clip-rule="nonzero"/></clipPath><clipPath id="659cc6acbd"><path d="M 150.113281 174.328125 L 272.609375 87.75 L 359.183594 210.246094 L 236.6875 296.820312 Z M 150.113281 174.328125 " clip-rule="nonzero"/></clipPath></defs><rect x="-37.5" width="450" fill="#ffffff" y="-37.499999" height="449.999989" fill-opacity="1"/><rect x="-37.5" width="450" fill="#ffffff" y="-37.499999" height="449.999989" fill-opacity="1"/><path stroke-linecap="butt" transform="matrix(-0.674157, 0.328652, -0.328652, -0.674157, 337.55969, 196.514973)" fill="none" stroke-linejoin="miter" d="M 0.000055904 10.498279 L 434.082419 10.500851 " stroke="#000000" stroke-width="21" stroke-opacity="1" stroke-miterlimit="4"/><path stroke-linecap="butt" transform="matrix(-0.67082, -0.33541, 0.33541, -0.67082, 330.145089, 199.328147)" fill="none" stroke-linejoin="miter" d="M -0.00165081 10.499897 L 436.24592 10.49757 " stroke="#000000" stroke-width="21" stroke-opacity="1" stroke-miterlimit="4"/><g clip-path="url(#02adc95884)"><g clip-path="url(#cdd6b7f148)"><g clip-path="url(#6f8fc8ba2e)"><g clip-path="url(#659cc6acbd)"><path fill="#040404" d="M 223.167969 186.871094 C 217.363281 220.609375 225.070312 253.421875 244.515625 282.714844 C 246.652344 285.945312 245.839844 290.3125 242.65625 292.542969 L 242.390625 292.734375 C 239.207031 294.964844 234.804688 294.207031 232.585938 291.015625 C 210.582031 259.445312 201.988281 221.769531 208.441406 184.332031 C 214.886719 146.878906 235.578125 114.257812 266.871094 91.867188 C 270.035156 89.609375 274.4375 90.347656 276.683594 93.519531 L 276.871094 93.789062 C 279.125 96.972656 278.4375 101.34375 275.332031 103.683594 C 247.222656 124.773438 228.984375 153.125 223.167969 186.871094 Z M 223.167969 186.871094 " fill-opacity="1" fill-rule="nonzero"/></g></g></g></g></svg>