<svg xmlns="http://www.w3.org/2000/svg" xmlns:xlink="http://www.w3.org/1999/xlink" width="500" zoomAndPan="magnify" viewBox="0 0 375 374.999991" height="500" preserveAspectRatio="xMidYMid meet" version="1.0"><defs><clipPath id="780a942a40"><path d="M 60 103.433594 L 313.21875 103.433594 L 313.21875 184.433594 L 60 184.433594 Z M 60 103.433594 " clip-rule="nonzero"/></clipPath><clipPath id="e72182fe24"><path d="M 62.09375 190.867188 L 315.59375 190.867188 L 315.59375 271.867188 L 62.09375 271.867188 Z M 62.09375 190.867188 " clip-rule="nonzero"/></clipPath><clipPath id="bc419c8174"><path d="M 0.09375 0.867188 L 253 0.867188 L 253 81.5625 L 0.09375 81.5625 Z M 0.09375 0.867188 " clip-rule="nonzero"/></clipPath><clipPath id="3a82f37e74"><rect x="0" width="254" y="0" height="82"/></clipPath></defs><rect x="-37.5" width="450" fill="#ffffff" y="-37.499999" height="449.999989" fill-opacity="1"/><rect x="-37.5" width="450" fill="#ffffff" y="-37.499999" height="449.999989" fill-opacity="1"/><g clip-path="url(#780a942a40)"><path fill="#000000" d="M 245.171875 103.410156 L 230.121094 118.484375 L 274.433594 162.875 L 60.019531 162.875 L 60.019531 184.195312 L 274.433594 184.195312 L 230.121094 228.582031 L 245.171875 243.65625 L 315.171875 173.535156 Z M 245.171875 103.410156 " fill-opacity="1" fill-rule="nonzero"/></g><g clip-path="url(#e72182fe24)"><g transform="matrix(1, 0, 0, 1, 62, 190)"><g clip-path="url(#3a82f37e74)"><g clip-path="url(#bc419c8174)"><path fill="#000000" d="M 67.824219 81.585938 L 82.875 66.511719 L 38.558594 22.121094 L 252.976562 22.121094 L 252.976562 0.800781 L 38.558594 0.800781 L 82.875 -43.585938 L 67.824219 -58.660156 L -2.179688 11.460938 Z M 67.824219 81.585938 " fill-opacity="1" fill-rule="nonzero"/></g></g></g></g></svg>