<svg xmlns="http://www.w3.org/2000/svg" xmlns:xlink="http://www.w3.org/1999/xlink" width="500" zoomAndPan="magnify" viewBox="0 0 375 374.999991" height="500" preserveAspectRatio="xMidYMid meet" version="1.0"><defs><clipPath id="14152439d6"><path d="M 0.078125 64 L 307.039062 64 L 307.039062 300.441406 L 0.078125 300.441406 Z M 0.078125 64 " clip-rule="nonzero"/></clipPath><clipPath id="6783b9674a"><path d="M 0.078125 0.679688 L 307.039062 0.679688 L 307.039062 241 L 0.078125 241 Z M 0.078125 0.679688 " clip-rule="nonzero"/></clipPath><clipPath id="97e1929f9b"><rect x="0" width="308" y="0" height="301"/></clipPath><clipPath id="ddcbfbd511"><path d="M 0.078125 0.679688 L 306.800781 0.679688 L 306.800781 237 L 0.078125 237 Z M 0.078125 0.679688 " clip-rule="nonzero"/></clipPath><clipPath id="d1d25fe537"><path d="M 0.078125 60 L 306.800781 60 L 306.800781 300.441406 L 0.078125 300.441406 Z M 0.078125 60 " clip-rule="nonzero"/></clipPath><clipPath id="bc1a1640a0"><rect x="0" width="307" y="0" height="301"/></clipPath></defs><rect x="-37.5" width="450" fill="#ffffff" y="-37.499999" height="449.999989" fill-opacity="1"/><rect x="-37.5" width="450" fill="#ffffff" y="-37.499999" height="449.999989" fill-opacity="1"/><g transform="matrix(1, 0, 0, 1, 34, 37)"><g clip-path="url(#97e1929f9b)"><g clip-path="url(#14152439d6)"><path stroke-linecap="butt" transform="matrix(-0.656756, 0.320169, -0.320169, -0.656756, 299.649641, 157.773053)" fill="none" stroke-linejoin="miter" d="M -0.0003912 10.497077 L 434.086823 10.498099 " stroke="#000000" stroke-width="21" stroke-opacity="1" stroke-miterlimit="4"/></g><g clip-path="url(#6783b9674a)"><path stroke-linecap="butt" transform="matrix(-0.653505, -0.326753, 0.326753, -0.653505, 292.426438, 160.513629)" fill="none" stroke-linejoin="miter" d="M 0.00197419 10.498214 L 436.243044 10.498198 " stroke="#000000" stroke-width="21" stroke-opacity="1" stroke-miterlimit="4"/></g></g></g><g transform="matrix(1, 0, 0, 1, 34, 37)"><g clip-path="url(#bc1a1640a0)"><g clip-path="url(#ddcbfbd511)"><path stroke-linecap="butt" transform="matrix(0.656756, -0.320169, 0.320169, 0.656756, 7.341672, 143.222)" fill="none" stroke-linejoin="miter" d="M 0.0000608288 10.498882 L 434.087275 10.499904 " stroke="#000000" stroke-width="21" stroke-opacity="1" stroke-miterlimit="4"/></g><g clip-path="url(#d1d25fe537)"><path stroke-linecap="butt" transform="matrix(0.653505, 0.326753, -0.326753, 0.653505, 14.564874, 140.481424)" fill="none" stroke-linejoin="miter" d="M -0.00109976 10.501344 L 436.244752 10.498936 " stroke="#000000" stroke-width="21" stroke-opacity="1" stroke-miterlimit="4"/></g></g></g></svg>