<svg xmlns="http://www.w3.org/2000/svg" xmlns:xlink="http://www.w3.org/1999/xlink" width="500" zoomAndPan="magnify" viewBox="0 0 375 374.999991" height="500" preserveAspectRatio="xMidYMid meet" version="1.0"><defs><clipPath id="2d2e9a0676"><path d="M 0.078125 64 L 307.039062 64 L 307.039062 300.441406 L 0.078125 300.441406 Z M 0.078125 64 " clip-rule="nonzero"/></clipPath><clipPath id="59baa97848"><path d="M 0.078125 0.679688 L 307.039062 0.679688 L 307.039062 241 L 0.078125 241 Z M 0.078125 0.679688 " clip-rule="nonzero"/></clipPath><clipPath id="074c2e656f"><rect x="0" width="308" y="0" height="301"/></clipPath><clipPath id="362626a93d"><path d="M 64.980469 150 L 139.980469 150 L 139.980469 225 L 64.980469 225 Z M 64.980469 150 " clip-rule="nonzero"/></clipPath></defs><rect x="-37.5" width="450" fill="#ffffff" y="-37.499999" height="449.999989" fill-opacity="1"/><rect x="-37.5" width="450" fill="#ffffff" y="-37.499999" height="449.999989" fill-opacity="1"/><g transform="matrix(1, 0, 0, 1, 34, 37)"><g clip-path="url(#074c2e656f)"><g clip-path="url(#2d2e9a0676)"><path stroke-linecap="butt" transform="matrix(-0.656756, 0.320169, -0.320169, -0.656756, 299.649641, 157.773038)" fill="none" stroke-linejoin="miter" d="M -0.000382564 10.497059 L 434.086831 10.498081 " stroke="#000000" stroke-width="21" stroke-opacity="1" stroke-miterlimit="4"/></g><g clip-path="url(#59baa97848)"><path stroke-linecap="butt" transform="matrix(-0.653505, -0.326753, 0.326753, -0.653505, 292.426438, 160.513615)" fill="none" stroke-linejoin="miter" d="M 0.00196538 10.498197 L 436.243035 10.49818 " stroke="#000000" stroke-width="21" stroke-opacity="1" stroke-miterlimit="4"/></g></g></g><g clip-path="url(#362626a93d)"><path fill="#000000" d="M 102.480469 150 C 81.789062 150 64.980469 166.808594 64.980469 187.5 C 64.980469 208.191406 81.789062 225 102.480469 225 C 123.171875 225 139.980469 208.191406 139.980469 187.5 C 139.980469 166.808594 123.171875 150 102.480469 150 Z M 102.480469 153.261719 C 121.410156 153.261719 136.71875 168.570312 136.71875 187.5 C 136.71875 206.429688 121.410156 221.738281 102.480469 221.738281 C 83.550781 221.738281 68.238281 206.429688 68.238281 187.5 C 68.238281 168.570312 83.550781 153.261719 102.480469 153.261719 Z M 102.480469 153.261719 " fill-opacity="1" fill-rule="nonzero"/></g></svg>