<svg xmlns="http://www.w3.org/2000/svg" xmlns:xlink="http://www.w3.org/1999/xlink" width="500" zoomAndPan="magnify" viewBox="0 0 375 374.999991" height="500" preserveAspectRatio="xMidYMid meet" version="1.0"><defs><clipPath id="bf480bdbd2"><path d="M 0.078125 64 L 307.039062 64 L 307.039062 300.441406 L 0.078125 300.441406 Z M 0.078125 64 " clip-rule="nonzero"/></clipPath><clipPath id="fdc5508af6"><path d="M 0.078125 0.679688 L 307.039062 0.679688 L 307.039062 241 L 0.078125 241 Z M 0.078125 0.679688 " clip-rule="nonzero"/></clipPath><clipPath id="dabe3faa00"><rect x="0" width="308" y="0" height="301"/></clipPath><clipPath id="2991ac08a0"><path d="M 65.730469 150.75 L 139.230469 150.75 L 139.230469 224.25 L 65.730469 224.25 Z M 65.730469 150.75 " clip-rule="nonzero"/></clipPath><clipPath id="771e56a8ab"><path d="M 64.980469 187.5 C 64.980469 208.210938 81.769531 225 102.480469 225 C 123.191406 225 139.980469 208.210938 139.980469 187.5 C 139.980469 166.789062 123.191406 150 102.480469 150 C 81.769531 150 64.980469 166.789062 64.980469 187.5 Z M 64.980469 187.5 " clip-rule="nonzero"/></clipPath><clipPath id="46e7193ccd"><path d="M 102.480469 150.898438 C 122.691406 150.898438 139.078125 167.285156 139.078125 187.5 C 139.078125 207.714844 122.691406 224.101562 102.480469 224.101562 C 82.265625 224.101562 65.878906 207.714844 65.878906 187.5 C 65.878906 167.285156 82.265625 150.898438 102.480469 150.898438 Z M 102.480469 150.898438 " clip-rule="nonzero"/></clipPath><clipPath id="11b5991d47"><path d="M 64.980469 150 L 139.980469 150 L 139.980469 225 L 64.980469 225 Z M 64.980469 150 " clip-rule="nonzero"/></clipPath><clipPath id="7deaf3bac2"><path d="M 64.980469 187.5 C 64.980469 208.210938 81.769531 225 102.480469 225 C 123.191406 225 139.980469 208.210938 139.980469 187.5 C 139.980469 166.789062 123.191406 150 102.480469 150 C 81.769531 150 64.980469 166.789062 64.980469 187.5 Z M 64.980469 187.5 " clip-rule="nonzero"/></clipPath><clipPath id="60e57924de"><path d="M 64.980469 187.5 C 64.980469 208.210938 81.769531 225 102.480469 225 C 123.191406 225 139.980469 208.210938 139.980469 187.5 C 139.980469 166.789062 123.191406 150 102.480469 150 C 81.769531 150 64.980469 166.789062 64.980469 187.5 Z M 64.980469 187.5 " clip-rule="nonzero"/></clipPath></defs><rect x="-37.5" width="450" fill="#ffffff" y="-37.499999" height="449.999989" fill-opacity="1"/><rect x="-37.5" width="450" fill="#ffffff" y="-37.499999" height="449.999989" fill-opacity="1"/><g transform="matrix(1, 0, 0, 1, 34, 37)"><g clip-path="url(#dabe3faa00)"><g clip-path="url(#bf480bdbd2)"><path stroke-linecap="butt" transform="matrix(-0.656756, 0.320169, -0.320169, -0.656756, 299.649641, 157.773038)" fill="none" stroke-linejoin="miter" d="M -0.000382564 10.497059 L 434.086831 10.498081 " stroke="#000000" stroke-width="21" stroke-opacity="1" stroke-miterlimit="4"/></g><g clip-path="url(#fdc5508af6)"><path stroke-linecap="butt" transform="matrix(-0.653505, -0.326753, 0.326753, -0.653505, 292.426438, 160.513615)" fill="none" stroke-linejoin="miter" d="M 0.00196538 10.498197 L 436.243035 10.49818 " stroke="#000000" stroke-width="21" stroke-opacity="1" stroke-miterlimit="4"/></g></g></g><g clip-path="url(#2991ac08a0)"><g clip-path="url(#771e56a8ab)"><g clip-path="url(#46e7193ccd)"><path fill="#000000" d="M 102.480469 150 C 81.789062 150 64.980469 166.808594 64.980469 187.5 C 64.980469 208.191406 81.789062 225 102.480469 225 C 123.171875 225 139.980469 208.191406 139.980469 187.5 C 139.980469 166.808594 123.171875 150 102.480469 150 Z M 102.480469 153.261719 C 121.410156 153.261719 136.71875 168.570312 136.71875 187.5 C 136.71875 206.429688 121.410156 221.738281 102.480469 221.738281 C 83.550781 221.738281 68.238281 206.429688 68.238281 187.5 C 68.238281 168.570312 83.550781 153.261719 102.480469 153.261719 Z M 102.480469 153.261719 " fill-opacity="1" fill-rule="nonzero"/></g></g></g><g clip-path="url(#11b5991d47)"><g clip-path="url(#7deaf3bac2)"><g clip-path="url(#60e57924de)"><path stroke-linecap="butt" transform="matrix(0.75, 0, 0, 0.75, 64.97934, 149.99999)" fill="none" stroke-linejoin="miter" d="M 0.00150469 50.000016 C 0.00150469 77.614602 22.386923 100.00002 50.001508 100.00002 C 77.616093 100.00002 100.001511 77.614602 100.001511 50.000016 C 100.001511 22.385431 77.616093 0.0000131333 50.001508 0.0000131333 C 22.386923 0.0000131333 0.00150469 22.385431 0.00150469 50.000016 Z M 0.00150469 50.000016 " stroke="#000000" stroke-width="30" stroke-opacity="1" stroke-miterlimit="4"/></g></g></g></svg>