<svg xmlns="http://www.w3.org/2000/svg" xmlns:xlink="http://www.w3.org/1999/xlink" width="500" zoomAndPan="magnify" viewBox="0 0 375 374.999991" height="500" preserveAspectRatio="xMidYMid meet" version="1.0"><defs><clipPath id="abca6c464e"><path d="M 0.078125 0.558594 L 306.800781 0.558594 L 306.800781 237 L 0.078125 237 Z M 0.078125 0.558594 " clip-rule="nonzero"/></clipPath><clipPath id="b2d7481a97"><path d="M 0.078125 60 L 306.800781 60 L 306.800781 300.320312 L 0.078125 300.320312 Z M 0.078125 60 " clip-rule="nonzero"/></clipPath><clipPath id="7a79f8ed4d"><rect x="0" width="307" y="0" height="301"/></clipPath><clipPath id="a8dec0c4d8"><path d="M 249.898438 176.859375 L 324.898438 176.859375 L 324.898438 251.859375 L 249.898438 251.859375 Z M 249.898438 176.859375 " clip-rule="nonzero"/></clipPath></defs><rect x="-37.5" width="450" fill="#ffffff" y="-37.499999" height="449.999989" fill-opacity="1"/><rect x="-37.5" width="450" fill="#ffffff" y="-37.499999" height="449.999989" fill-opacity="1"/><g transform="matrix(1, 0, 0, 1, 34, 64)"><g clip-path="url(#7a79f8ed4d)"><g clip-path="url(#abca6c464e)"><path stroke-linecap="butt" transform="matrix(0.656756, -0.320169, 0.320169, 0.656756, 7.341672, 143.08149)" fill="none" stroke-linejoin="miter" d="M 0.000129942 10.49874 L 434.087344 10.499762 " stroke="#000000" stroke-width="21" stroke-opacity="1" stroke-miterlimit="4"/></g><g clip-path="url(#b2d7481a97)"><path stroke-linecap="butt" transform="matrix(0.653505, 0.326753, -0.326753, 0.653505, 14.564874, 140.340914)" fill="none" stroke-linejoin="miter" d="M -0.0011703 10.501203 L 436.244682 10.498795 " stroke="#000000" stroke-width="21" stroke-opacity="1" stroke-miterlimit="4"/></g></g></g><g clip-path="url(#a8dec0c4d8)"><path fill="#000000" d="M 287.398438 176.859375 C 266.707031 176.859375 249.898438 193.667969 249.898438 214.359375 C 249.898438 235.050781 266.707031 251.859375 287.398438 251.859375 C 308.089844 251.859375 324.898438 235.050781 324.898438 214.359375 C 324.898438 193.667969 308.089844 176.859375 287.398438 176.859375 Z M 287.398438 180.121094 C 306.324219 180.121094 321.636719 195.429688 321.636719 214.359375 C 321.636719 233.289062 306.324219 248.597656 287.398438 248.597656 C 268.46875 248.597656 253.15625 233.289062 253.15625 214.359375 C 253.15625 195.429688 268.46875 180.121094 287.398438 180.121094 Z M 287.398438 180.121094 " fill-opacity="1" fill-rule="nonzero"/></g></svg>