<svg xmlns="http://www.w3.org/2000/svg" xmlns:xlink="http://www.w3.org/1999/xlink" width="500" zoomAndPan="magnify" viewBox="0 0 375 374.999991" height="500" preserveAspectRatio="xMidYMid meet" version="1.0"><defs><clipPath id="6e0402d0cd"><path d="M 0.078125 0.679688 L 306.800781 0.679688 L 306.800781 237 L 0.078125 237 Z M 0.078125 0.679688 " clip-rule="nonzero"/></clipPath><clipPath id="0b278fbf3c"><path d="M 0.078125 60 L 306.800781 60 L 306.800781 300.441406 L 0.078125 300.441406 Z M 0.078125 60 " clip-rule="nonzero"/></clipPath><clipPath id="bffe025c05"><rect x="0" width="307" y="0" height="301"/></clipPath><clipPath id="c1df0f5136"><path d="M 235.769531 150.75 L 309.269531 150.75 L 309.269531 224.25 L 235.769531 224.25 Z M 235.769531 150.75 " clip-rule="nonzero"/></clipPath><clipPath id="74ccc848d6"><path d="M 310.019531 187.5 C 310.019531 166.789062 293.230469 150 272.519531 150 C 251.808594 150 235.019531 166.789062 235.019531 187.5 C 235.019531 208.210938 251.808594 225 272.519531 225 C 293.230469 225 310.019531 208.210938 310.019531 187.5 Z M 310.019531 187.5 " clip-rule="nonzero"/></clipPath><clipPath id="13b65ad54e"><path d="M 272.519531 224.101562 C 252.308594 224.101562 235.921875 207.714844 235.921875 187.5 C 235.921875 167.285156 252.308594 150.898438 272.519531 150.898438 C 292.734375 150.898438 309.121094 167.285156 309.121094 187.5 C 309.121094 207.714844 292.734375 224.101562 272.519531 224.101562 Z M 272.519531 224.101562 " clip-rule="nonzero"/></clipPath><clipPath id="f10fd44bcc"><path d="M 235.019531 150 L 310.019531 150 L 310.019531 225 L 235.019531 225 Z M 235.019531 150 " clip-rule="nonzero"/></clipPath><clipPath id="7a627c5e79"><path d="M 310.019531 187.5 C 310.019531 166.789062 293.230469 150 272.519531 150 C 251.808594 150 235.019531 166.789062 235.019531 187.5 C 235.019531 208.210938 251.808594 225 272.519531 225 C 293.230469 225 310.019531 208.210938 310.019531 187.5 Z M 310.019531 187.5 " clip-rule="nonzero"/></clipPath><clipPath id="568f7e3089"><path d="M 310.019531 187.5 C 310.019531 166.789062 293.230469 150 272.519531 150 C 251.808594 150 235.019531 166.789062 235.019531 187.5 C 235.019531 208.210938 251.808594 225 272.519531 225 C 293.230469 225 310.019531 208.210938 310.019531 187.5 Z M 310.019531 187.5 " clip-rule="nonzero"/></clipPath></defs><rect x="-37.5" width="450" fill="#ffffff" y="-37.499999" height="449.999989" fill-opacity="1"/><rect x="-37.5" width="450" fill="#ffffff" y="-37.499999" height="449.999989" fill-opacity="1"/><g transform="matrix(1, 0, 0, 1, 34, 37)"><g clip-path="url(#bffe025c05)"><g clip-path="url(#6e0402d0cd)"><path stroke-linecap="butt" transform="matrix(0.656756, -0.320169, 0.320169, 0.656756, 7.341672, 143.222)" fill="none" stroke-linejoin="miter" d="M 0.0000608288 10.498882 L 434.087275 10.499904 " stroke="#000000" stroke-width="21" stroke-opacity="1" stroke-miterlimit="4"/></g><g clip-path="url(#0b278fbf3c)"><path stroke-linecap="butt" transform="matrix(0.653505, 0.326753, -0.326753, 0.653505, 14.564874, 140.481424)" fill="none" stroke-linejoin="miter" d="M -0.00109976 10.501344 L 436.244752 10.498936 " stroke="#000000" stroke-width="21" stroke-opacity="1" stroke-miterlimit="4"/></g></g></g><g clip-path="url(#c1df0f5136)"><g clip-path="url(#74ccc848d6)"><g clip-path="url(#13b65ad54e)"><path fill="#000000" d="M 272.519531 225 C 293.210938 225 310.019531 208.191406 310.019531 187.5 C 310.019531 166.808594 293.210938 150 272.519531 150 C 251.828125 150 235.019531 166.808594 235.019531 187.5 C 235.019531 208.191406 251.828125 225 272.519531 225 Z M 272.519531 221.738281 C 253.589844 221.738281 238.28125 206.429688 238.28125 187.5 C 238.28125 168.570312 253.589844 153.261719 272.519531 153.261719 C 291.449219 153.261719 306.757812 168.570312 306.757812 187.5 C 306.757812 206.429688 291.449219 221.738281 272.519531 221.738281 Z M 272.519531 221.738281 " fill-opacity="1" fill-rule="nonzero"/></g></g></g><g clip-path="url(#f10fd44bcc)"><g clip-path="url(#7a627c5e79)"><g clip-path="url(#568f7e3089)"><path stroke-linecap="butt" transform="matrix(-0.75, 0, 0, -0.75, 310.02063, 224.999985)" fill="none" stroke-linejoin="miter" d="M 0.00146466 49.999984 C 0.00146466 77.614569 22.386883 99.999987 50.001468 99.999987 C 77.616053 99.999987 100.001471 77.614569 100.001471 49.999984 C 100.001471 22.385398 77.616053 -0.0000197 50.001468 -0.0000197 C 22.386883 -0.0000197 0.00146466 22.385398 0.00146466 49.999984 Z M 0.00146466 49.999984 " stroke="#000000" stroke-width="30" stroke-opacity="1" stroke-miterlimit="4"/></g></g></g></svg>