<svg xmlns="http://www.w3.org/2000/svg" xmlns:xlink="http://www.w3.org/1999/xlink" width="500" zoomAndPan="magnify" viewBox="0 0 375 374.999991" height="500" preserveAspectRatio="xMidYMid meet" version="1.0"><defs><clipPath id="2a5b0a80d7"><path d="M 0.238281 0.679688 L 306.960938 0.679688 L 306.960938 237 L 0.238281 237 Z M 0.238281 0.679688 " clip-rule="nonzero"/></clipPath><clipPath id="b26f37e2ba"><path d="M 0.238281 60 L 306.960938 60 L 306.960938 300.441406 L 0.238281 300.441406 Z M 0.238281 60 " clip-rule="nonzero"/></clipPath><clipPath id="07cd6a8614"><rect x="0" width="307" y="0" height="301"/></clipPath><clipPath id="3b2b554cfe"><path d="M 246.050781 150 L 321.050781 150 L 321.050781 225 L 246.050781 225 Z M 246.050781 150 " clip-rule="nonzero"/></clipPath></defs><rect x="-37.5" width="450" fill="#ffffff" y="-37.499999" height="449.999989" fill-opacity="1"/><rect x="-37.5" width="450" fill="#ffffff" y="-37.499999" height="449.999989" fill-opacity="1"/><g transform="matrix(1, 0, 0, 1, 30, 37)"><g clip-path="url(#07cd6a8614)"><g clip-path="url(#2a5b0a80d7)"><path stroke-linecap="butt" transform="matrix(0.656756, -0.320169, 0.320169, 0.656756, 7.496398, 143.222)" fill="none" stroke-linejoin="miter" d="M 0.00193484 10.499795 L 434.084343 10.498475 " stroke="#000000" stroke-width="21" stroke-opacity="1" stroke-miterlimit="4"/></g><g clip-path="url(#b26f37e2ba)"><path stroke-linecap="butt" transform="matrix(0.653505, 0.326753, -0.326753, 0.653505, 14.719601, 140.481424)" fill="none" stroke-linejoin="miter" d="M 0.000764972 10.500411 L 436.246617 10.498004 " stroke="#000000" stroke-width="21" stroke-opacity="1" stroke-miterlimit="4"/></g></g></g><g clip-path="url(#3b2b554cfe)"><path fill="#000000" d="M 283.550781 150 C 262.859375 150 246.050781 166.808594 246.050781 187.5 C 246.050781 208.191406 262.859375 225 283.550781 225 C 304.242188 225 321.050781 208.191406 321.050781 187.5 C 321.050781 166.808594 304.242188 150 283.550781 150 Z M 283.550781 153.261719 C 302.480469 153.261719 317.789062 168.570312 317.789062 187.5 C 317.789062 206.429688 302.480469 221.738281 283.550781 221.738281 C 264.621094 221.738281 249.3125 206.429688 249.3125 187.5 C 249.3125 168.570312 264.621094 153.261719 283.550781 153.261719 Z M 283.550781 153.261719 " fill-opacity="1" fill-rule="nonzero"/></g></svg>