<svg xmlns="http://www.w3.org/2000/svg" xmlns:xlink="http://www.w3.org/1999/xlink" width="500" zoomAndPan="magnify" viewBox="0 0 375 374.999991" height="500" preserveAspectRatio="xMidYMid meet" version="1.0"><defs><clipPath id="face333619"><path d="M 126.550781 36.511719 L 247.292969 36.511719 L 247.292969 336.511719 L 126.550781 336.511719 Z M 126.550781 36.511719 " clip-rule="nonzero"/></clipPath><clipPath id="6c4df9fde2"><path d="M 127.300781 38.480469 L 248.800781 38.480469 L 248.800781 338.480469 L 127.300781 338.480469 Z M 127.300781 38.480469 " clip-rule="nonzero"/></clipPath><clipPath id="760aa97852"><path d="M 0.707031 0.480469 L 121.800781 0.480469 L 121.800781 300.480469 L 0.707031 300.480469 Z M 0.707031 0.480469 " clip-rule="nonzero"/></clipPath><clipPath id="6da431a651"><rect x="0" width="122" y="0" height="301"/></clipPath></defs><rect x="-37.5" width="450" fill="#ffffff" y="-37.499999" height="449.999989" fill-opacity="1"/><rect x="-37.5" width="450" fill="#ffffff" y="-37.499999" height="449.999989" fill-opacity="1"/><g clip-path="url(#face333619)"><path fill="#000000" d="M -122.222656 336.414062 C -122.875 336.414062 -123.527344 336.347656 -124.167969 336.21875 C -124.8125 336.09375 -125.4375 335.902344 -126.042969 335.652344 C -126.648438 335.402344 -127.222656 335.09375 -127.769531 334.726562 C -128.316406 334.363281 -128.820312 333.949219 -129.28125 333.484375 C -129.746094 333.023438 -130.160156 332.515625 -130.523438 331.972656 C -130.890625 331.425781 -131.195312 330.851562 -131.449219 330.242188 C -131.699219 329.636719 -131.886719 329.011719 -132.015625 328.367188 C -132.144531 327.726562 -132.207031 327.074219 -132.207031 326.417969 C -132.207031 325.761719 -132.144531 325.113281 -132.015625 324.46875 C -131.886719 323.828125 -131.699219 323.203125 -131.449219 322.59375 C -131.195312 321.988281 -130.890625 321.414062 -130.523438 320.867188 C -130.160156 320.320312 -129.746094 319.816406 -129.28125 319.351562 C -128.820312 318.890625 -128.316406 318.476562 -127.769531 318.109375 C -127.222656 317.746094 -126.648438 317.4375 -126.042969 317.1875 C -125.4375 316.9375 -124.8125 316.746094 -124.167969 316.617188 C -123.527344 316.488281 -122.875 316.425781 -122.222656 316.425781 L 97.488281 316.425781 C 99.613281 316.425781 101.738281 316.375 103.859375 316.269531 C 105.980469 316.164062 108.101562 316.007812 110.214844 315.800781 C 112.328125 315.59375 114.4375 315.332031 116.539062 315.019531 C 118.640625 314.707031 120.734375 314.34375 122.816406 313.929688 C 124.902344 313.515625 126.972656 313.050781 129.035156 312.53125 C 131.097656 312.015625 133.144531 311.449219 135.175781 310.832031 C 137.210938 310.214844 139.226562 309.546875 141.226562 308.832031 C 143.226562 308.117188 145.210938 307.351562 147.171875 306.535156 C 149.136719 305.722656 151.078125 304.863281 153 303.953125 C 154.917969 303.042969 156.816406 302.089844 158.691406 301.085938 C 160.5625 300.082031 162.414062 299.035156 164.234375 297.941406 C 166.058594 296.851562 167.851562 295.714844 169.617188 294.53125 C 171.386719 293.351562 173.121094 292.125 174.828125 290.859375 C 176.535156 289.59375 178.210938 288.285156 179.851562 286.9375 C 181.496094 285.589844 183.101562 284.199219 184.675781 282.773438 C 186.25 281.34375 187.789062 279.878906 189.292969 278.375 C 190.796875 276.871094 192.257812 275.332031 193.6875 273.757812 C 195.113281 272.183594 196.5 270.574219 197.847656 268.929688 C 199.195312 267.285156 200.503906 265.609375 201.769531 263.902344 C 203.035156 262.195312 204.257812 260.457031 205.4375 258.6875 C 206.617188 256.921875 207.753906 255.125 208.847656 253.300781 C 209.941406 251.476562 210.988281 249.628906 211.988281 247.753906 C 212.988281 245.878906 213.945312 243.980469 214.855469 242.058594 C 215.761719 240.136719 216.621094 238.191406 217.4375 236.226562 C 218.25 234.265625 219.011719 232.28125 219.730469 230.28125 C 220.445312 228.277344 221.113281 226.257812 221.726562 224.226562 C 222.34375 222.191406 222.910156 220.140625 223.429688 218.078125 C 223.945312 216.015625 224.410156 213.941406 224.824219 211.859375 C 225.238281 209.773438 225.601562 207.679688 225.914062 205.574219 C 226.226562 203.472656 226.484375 201.363281 226.695312 199.246094 C 226.902344 197.128906 227.058594 195.011719 227.164062 192.886719 C 227.265625 190.765625 227.320312 188.640625 227.320312 186.511719 C 227.320312 184.386719 227.265625 182.261719 227.164062 180.136719 C 227.058594 178.015625 226.902344 175.894531 226.695312 173.777344 C 226.484375 171.664062 226.226562 169.554688 225.914062 167.449219 C 225.601562 165.347656 225.238281 163.253906 224.824219 161.167969 C 224.410156 159.082031 223.945312 157.007812 223.429688 154.945312 C 222.910156 152.882812 222.34375 150.835938 221.726562 148.800781 C 221.113281 146.765625 220.445312 144.75 219.730469 142.746094 C 219.011719 140.746094 218.25 138.761719 217.4375 136.796875 C 216.621094 134.832031 215.761719 132.890625 214.855469 130.96875 C 213.945312 129.046875 212.988281 127.148438 211.988281 125.273438 C 210.988281 123.398438 209.941406 121.546875 208.847656 119.722656 C 207.753906 117.902344 206.617188 116.105469 205.4375 114.335938 C 204.257812 112.570312 203.035156 110.832031 201.769531 109.125 C 200.503906 107.417969 199.195312 105.742188 197.847656 104.097656 C 196.5 102.453125 195.113281 100.84375 193.6875 99.269531 C 192.257812 97.691406 190.796875 96.152344 189.292969 94.652344 C 187.789062 93.148438 186.25 91.679688 184.675781 90.253906 C 183.101562 88.824219 181.496094 87.4375 179.851562 86.089844 C 178.210938 84.738281 176.535156 83.433594 174.828125 82.164062 C 173.121094 80.898438 171.386719 79.675781 169.617188 78.492188 C 167.851562 77.3125 166.058594 76.175781 164.234375 75.082031 C 162.414062 73.988281 160.5625 72.941406 158.691406 71.941406 C 156.816406 70.9375 154.917969 69.980469 153 69.074219 C 151.078125 68.164062 149.136719 67.300781 147.171875 66.488281 C 145.210938 65.675781 143.226562 64.910156 141.226562 64.195312 C 139.226562 63.476562 137.210938 62.8125 135.175781 62.195312 C 133.144531 61.578125 131.097656 61.007812 129.035156 60.492188 C 126.972656 59.976562 124.902344 59.511719 122.816406 59.097656 C 120.734375 58.679688 118.640625 58.316406 116.539062 58.007812 C 114.4375 57.695312 112.328125 57.433594 110.214844 57.226562 C 108.101562 57.015625 105.980469 56.859375 103.859375 56.757812 C 101.738281 56.652344 99.613281 56.601562 97.488281 56.601562 L -122.222656 56.601562 C -122.875 56.601562 -123.527344 56.535156 -124.167969 56.40625 C -124.8125 56.28125 -125.4375 56.089844 -126.042969 55.839844 C -126.648438 55.589844 -127.222656 55.28125 -127.769531 54.914062 C -128.316406 54.550781 -128.820312 54.136719 -129.28125 53.671875 C -129.746094 53.207031 -130.160156 52.703125 -130.523438 52.160156 C -130.890625 51.613281 -131.195312 51.035156 -131.449219 50.429688 C -131.699219 49.824219 -131.886719 49.199219 -132.015625 48.554688 C -132.144531 47.914062 -132.207031 47.261719 -132.207031 46.605469 C -132.207031 45.949219 -132.144531 45.300781 -132.015625 44.65625 C -131.886719 44.011719 -131.699219 43.386719 -131.449219 42.78125 C -131.195312 42.175781 -130.890625 41.601562 -130.523438 41.054688 C -130.160156 40.507812 -129.746094 40.003906 -129.28125 39.539062 C -128.820312 39.074219 -128.316406 38.660156 -127.769531 38.296875 C -127.222656 37.933594 -126.648438 37.625 -126.042969 37.375 C -125.4375 37.121094 -124.8125 36.933594 -124.167969 36.804688 C -123.527344 36.675781 -122.875 36.613281 -122.222656 36.613281 L 97.488281 36.613281 C 99.941406 36.613281 102.390625 36.671875 104.839844 36.792969 C 107.289062 36.914062 109.734375 37.09375 112.171875 37.335938 C 114.613281 37.574219 117.046875 37.875 119.46875 38.234375 C 121.894531 38.59375 124.308594 39.015625 126.714844 39.492188 C 129.121094 39.972656 131.511719 40.507812 133.890625 41.105469 C 136.265625 41.703125 138.628906 42.355469 140.976562 43.066406 C 143.320312 43.78125 145.648438 44.550781 147.957031 45.375 C 150.265625 46.203125 152.550781 47.085938 154.816406 48.023438 C 157.082031 48.960938 159.320312 49.957031 161.539062 51.003906 C 163.753906 52.054688 165.945312 53.15625 168.105469 54.3125 C 170.269531 55.46875 172.402344 56.679688 174.503906 57.941406 C 176.605469 59.199219 178.675781 60.511719 180.714844 61.875 C 182.753906 63.238281 184.757812 64.652344 186.726562 66.113281 C 188.695312 67.574219 190.628906 69.082031 192.523438 70.640625 C 194.417969 72.195312 196.273438 73.796875 198.089844 75.445312 C 199.90625 77.09375 201.683594 78.78125 203.417969 80.519531 C 205.148438 82.253906 206.839844 84.027344 208.484375 85.847656 C 210.132812 87.664062 211.734375 89.519531 213.289062 91.417969 C 214.84375 93.3125 216.351562 95.246094 217.8125 97.21875 C 219.273438 99.1875 220.683594 101.191406 222.046875 103.234375 C 223.40625 105.273438 224.71875 107.34375 225.980469 109.449219 C 227.238281 111.554688 228.449219 113.6875 229.605469 115.851562 C 230.757812 118.015625 231.863281 120.203125 232.910156 122.421875 C 233.957031 124.640625 234.949219 126.882812 235.890625 129.148438 C 236.828125 131.414062 237.710938 133.703125 238.535156 136.011719 C 239.363281 138.324219 240.128906 140.652344 240.84375 143 C 241.554688 145.347656 242.207031 147.710938 242.804688 150.089844 C 243.398438 152.46875 243.9375 154.863281 244.414062 157.269531 C 244.890625 159.675781 245.3125 162.089844 245.671875 164.519531 C 246.03125 166.945312 246.332031 169.378906 246.570312 171.820312 C 246.8125 174.261719 246.992188 176.707031 247.113281 179.15625 C 247.230469 181.609375 247.292969 184.058594 247.292969 186.511719 C 247.292969 188.964844 247.230469 191.417969 247.113281 193.867188 C 246.992188 196.320312 246.8125 198.765625 246.570312 201.207031 C 246.332031 203.648438 246.03125 206.082031 245.671875 208.507812 C 245.3125 210.933594 244.890625 213.351562 244.414062 215.757812 C 243.9375 218.164062 243.398438 220.554688 242.804688 222.9375 C 242.207031 225.316406 241.554688 227.679688 240.84375 230.027344 C 240.128906 232.375 239.363281 234.703125 238.535156 237.011719 C 237.710938 239.324219 236.828125 241.609375 235.890625 243.878906 C 234.949219 246.144531 233.957031 248.386719 232.910156 250.601562 C 231.863281 252.820312 230.757812 255.011719 229.605469 257.175781 C 228.449219 259.339844 227.238281 261.472656 225.980469 263.578125 C 224.71875 265.679688 223.40625 267.753906 222.046875 269.792969 C 220.683594 271.832031 219.273438 273.835938 217.8125 275.808594 C 216.351562 277.777344 214.84375 279.710938 213.289062 281.609375 C 211.734375 283.503906 210.132812 285.363281 208.484375 287.179688 C 206.839844 288.996094 205.148438 290.773438 203.417969 292.507812 C 201.683594 294.242188 199.90625 295.933594 198.089844 297.582031 C 196.273438 299.230469 194.417969 300.832031 192.523438 302.386719 C 190.628906 303.941406 188.695312 305.453125 186.726562 306.914062 C 184.757812 308.375 182.753906 309.785156 180.714844 311.148438 C 178.675781 312.511719 176.605469 313.824219 174.503906 315.085938 C 172.402344 316.347656 170.269531 317.554688 168.105469 318.710938 C 165.945312 319.867188 163.753906 320.972656 161.539062 322.019531 C 159.320312 323.070312 157.082031 324.0625 154.816406 325.003906 C 152.550781 325.941406 150.265625 326.824219 147.957031 327.648438 C 145.648438 328.476562 143.320312 329.246094 140.976562 329.957031 C 138.628906 330.671875 136.265625 331.324219 133.890625 331.921875 C 131.511719 332.515625 129.121094 333.054688 126.714844 333.53125 C 124.308594 334.011719 121.894531 334.429688 119.46875 334.789062 C 117.046875 335.148438 114.613281 335.449219 112.171875 335.691406 C 109.734375 335.929688 107.289062 336.113281 104.839844 336.230469 C 102.390625 336.351562 99.941406 336.414062 97.488281 336.414062 Z M -122.222656 336.414062 " fill-opacity="1" fill-rule="nonzero"/></g><g clip-path="url(#6c4df9fde2)"><g transform="matrix(1, 0, 0, 1, 127, 38)"><g clip-path="url(#6da431a651)"><g clip-path="url(#760aa97852)"><path fill="#000000" d="M 370.21875 0.582031 C 370.875 0.582031 371.527344 0.644531 372.167969 0.773438 C 372.8125 0.898438 373.4375 1.089844 374.042969 1.339844 C 374.648438 1.59375 375.222656 1.898438 375.769531 2.265625 C 376.3125 2.628906 376.820312 3.042969 377.28125 3.507812 C 377.746094 3.972656 378.160156 4.476562 378.523438 5.019531 C 378.886719 5.566406 379.195312 6.144531 379.445312 6.75 C 379.699219 7.355469 379.886719 7.980469 380.015625 8.625 C 380.144531 9.265625 380.207031 9.917969 380.207031 10.574219 C 380.207031 11.230469 380.144531 11.878906 380.015625 12.523438 C 379.886719 13.167969 379.699219 13.792969 379.445312 14.398438 C 379.195312 15.003906 378.886719 15.578125 378.523438 16.125 C 378.160156 16.671875 377.746094 17.175781 377.28125 17.640625 C 376.820312 18.105469 376.3125 18.519531 375.769531 18.882812 C 375.222656 19.246094 374.648438 19.554688 374.042969 19.804688 C 373.4375 20.058594 372.8125 20.246094 372.167969 20.375 C 371.527344 20.503906 370.875 20.566406 370.21875 20.566406 L 150.511719 20.566406 C 148.386719 20.566406 146.261719 20.617188 144.140625 20.722656 C 142.015625 20.828125 139.898438 20.984375 137.785156 21.191406 C 135.667969 21.402344 133.5625 21.660156 131.460938 21.972656 C 129.359375 22.285156 127.265625 22.648438 125.179688 23.0625 C 123.097656 23.476562 121.023438 23.945312 118.964844 24.460938 C 116.902344 24.976562 114.855469 25.542969 112.824219 26.160156 C 110.789062 26.777344 108.773438 27.445312 106.773438 28.160156 C 104.769531 28.878906 102.789062 29.640625 100.828125 30.457031 C 98.863281 31.269531 96.921875 32.128906 95 33.039062 C 93.082031 33.949219 91.183594 34.90625 89.308594 35.90625 C 87.433594 36.910156 85.585938 37.957031 83.765625 39.050781 C 81.941406 40.144531 80.148438 41.28125 78.378906 42.460938 C 76.613281 43.640625 74.878906 44.867188 73.171875 46.132812 C 71.464844 47.398438 69.789062 48.707031 68.148438 50.054688 C 66.503906 51.40625 64.894531 52.792969 63.320312 54.21875 C 61.746094 55.648438 60.210938 57.113281 58.707031 58.617188 C 57.203125 60.121094 55.738281 61.660156 54.3125 63.234375 C 52.886719 64.8125 51.5 66.421875 50.152344 68.0625 C 48.804688 69.707031 47.496094 71.382812 46.230469 73.089844 C 44.964844 74.796875 43.742188 76.535156 42.5625 78.304688 C 41.378906 80.070312 40.246094 81.867188 39.152344 83.691406 C 38.058594 85.515625 37.011719 87.363281 36.011719 89.238281 C 35.007812 91.113281 34.054688 93.011719 33.144531 94.933594 C 32.238281 96.855469 31.375 98.800781 30.5625 100.765625 C 29.75 102.730469 28.984375 104.710938 28.269531 106.714844 C 27.554688 108.714844 26.886719 110.734375 26.269531 112.769531 C 25.65625 114.800781 25.089844 116.851562 24.570312 118.914062 C 24.054688 120.976562 23.589844 123.050781 23.175781 125.136719 C 22.761719 127.21875 22.398438 129.316406 22.085938 131.417969 C 21.773438 133.519531 21.515625 135.628906 21.304688 137.746094 C 21.097656 139.863281 20.941406 141.980469 20.835938 144.105469 C 20.734375 146.230469 20.679688 148.355469 20.679688 150.480469 C 20.679688 152.605469 20.734375 154.730469 20.835938 156.855469 C 20.941406 158.976562 21.097656 161.097656 21.304688 163.214844 C 21.515625 165.328125 21.773438 167.4375 22.085938 169.542969 C 22.398438 171.644531 22.761719 173.738281 23.175781 175.824219 C 23.589844 177.910156 24.054688 179.984375 24.570312 182.046875 C 25.089844 184.109375 25.65625 186.15625 26.269531 188.191406 C 26.886719 190.226562 27.554688 192.246094 28.269531 194.246094 C 28.984375 196.25 29.75 198.230469 30.5625 200.195312 C 31.375 202.160156 32.238281 204.101562 33.144531 206.023438 C 34.054688 207.945312 35.007812 209.84375 36.011719 211.71875 C 37.011719 213.59375 38.058594 215.445312 39.152344 217.269531 C 40.246094 219.09375 41.378906 220.886719 42.5625 222.65625 C 43.742188 224.421875 44.964844 226.160156 46.230469 227.867188 C 47.496094 229.578125 48.804688 231.253906 50.152344 232.894531 C 51.5 234.539062 52.886719 236.148438 54.3125 237.722656 C 55.738281 239.300781 57.203125 240.839844 58.707031 242.34375 C 60.210938 243.847656 61.746094 245.3125 63.320312 246.738281 C 64.894531 248.167969 66.503906 249.554688 68.148438 250.902344 C 69.789062 252.253906 71.464844 253.558594 73.171875 254.828125 C 74.878906 256.09375 76.613281 257.316406 78.378906 258.5 C 80.148438 259.679688 81.941406 260.816406 83.765625 261.910156 C 85.585938 263.003906 87.433594 264.050781 89.308594 265.054688 C 91.183594 266.054688 93.082031 267.011719 95 267.917969 C 96.921875 268.828125 98.863281 269.691406 100.828125 270.503906 C 102.789062 271.316406 104.769531 272.082031 106.773438 272.796875 C 108.773438 273.515625 110.789062 274.183594 112.824219 274.800781 C 114.855469 275.417969 116.902344 275.984375 118.964844 276.5 C 121.023438 277.015625 123.097656 277.480469 125.179688 277.898438 C 127.265625 278.3125 129.359375 278.675781 131.460938 278.988281 C 133.5625 279.300781 135.667969 279.558594 137.785156 279.765625 C 139.898438 279.976562 142.015625 280.132812 144.140625 280.238281 C 146.261719 280.339844 148.386719 280.394531 150.511719 280.394531 L 370.21875 280.394531 C 370.875 280.394531 371.527344 280.457031 372.167969 280.585938 C 372.8125 280.714844 373.4375 280.902344 374.042969 281.152344 C 374.648438 281.40625 375.222656 281.710938 375.769531 282.078125 C 376.3125 282.441406 376.820312 282.855469 377.28125 283.320312 C 377.746094 283.785156 378.160156 284.289062 378.523438 284.835938 C 378.886719 285.378906 379.195312 285.957031 379.445312 286.5625 C 379.699219 287.167969 379.886719 287.792969 380.015625 288.4375 C 380.144531 289.082031 380.207031 289.730469 380.207031 290.386719 C 380.207031 291.042969 380.144531 291.691406 380.015625 292.335938 C 379.886719 292.980469 379.699219 293.605469 379.445312 294.210938 C 379.195312 294.816406 378.886719 295.394531 378.523438 295.9375 C 378.160156 296.484375 377.746094 296.988281 377.28125 297.453125 C 376.820312 297.917969 376.3125 298.332031 375.769531 298.695312 C 375.222656 299.058594 374.648438 299.367188 374.042969 299.617188 C 373.4375 299.871094 372.8125 300.058594 372.167969 300.1875 C 371.527344 300.316406 370.875 300.378906 370.21875 300.378906 L 150.511719 300.378906 C 148.058594 300.378906 145.609375 300.320312 143.160156 300.199219 C 140.710938 300.078125 138.265625 299.898438 135.828125 299.65625 C 133.386719 299.417969 130.953125 299.117188 128.527344 298.757812 C 126.105469 298.398438 123.6875 297.976562 121.285156 297.5 C 118.878906 297.019531 116.488281 296.484375 114.109375 295.886719 C 111.734375 295.292969 109.371094 294.636719 107.023438 293.925781 C 104.679688 293.210938 102.351562 292.445312 100.042969 291.617188 C 97.734375 290.789062 95.449219 289.90625 93.183594 288.96875 C 90.917969 288.03125 88.675781 287.035156 86.460938 285.988281 C 84.246094 284.9375 82.054688 283.835938 79.894531 282.679688 C 77.730469 281.523438 75.597656 280.3125 73.496094 279.054688 C 71.394531 277.792969 69.324219 276.480469 67.285156 275.117188 C 65.246094 273.753906 63.242188 272.34375 61.273438 270.878906 C 59.304688 269.417969 57.371094 267.910156 55.476562 266.355469 C 53.582031 264.796875 51.726562 263.195312 49.910156 261.546875 C 48.09375 259.902344 46.316406 258.210938 44.582031 256.476562 C 42.851562 254.742188 41.160156 252.964844 39.511719 251.144531 C 37.867188 249.328125 36.265625 247.472656 34.710938 245.574219 C 33.15625 243.679688 31.648438 241.746094 30.1875 239.773438 C 28.726562 237.804688 27.316406 235.800781 25.953125 233.757812 C 24.589844 231.71875 23.28125 229.648438 22.019531 227.542969 C 20.757812 225.441406 19.550781 223.304688 18.394531 221.140625 C 17.238281 218.980469 16.136719 216.789062 15.089844 214.570312 C 14.042969 212.351562 13.046875 210.109375 12.109375 207.84375 C 11.171875 205.578125 10.289062 203.289062 9.464844 200.980469 C 8.636719 198.667969 7.871094 196.339844 7.15625 193.992188 C 6.445312 191.644531 5.792969 189.28125 5.195312 186.902344 C 4.601562 184.523438 4.0625 182.128906 3.585938 179.722656 C 3.105469 177.316406 2.6875 174.902344 2.328125 172.476562 C 1.96875 170.046875 1.667969 167.613281 1.429688 165.171875 C 1.1875 162.730469 1.007812 160.285156 0.886719 157.835938 C 0.765625 155.386719 0.707031 152.933594 0.707031 150.480469 C 0.707031 148.027344 0.765625 145.574219 0.886719 143.125 C 1.007812 140.675781 1.1875 138.230469 1.429688 135.789062 C 1.667969 133.347656 1.96875 130.910156 2.328125 128.484375 C 2.6875 126.058594 3.105469 123.640625 3.585938 121.234375 C 4.0625 118.828125 4.601562 116.4375 5.195312 114.058594 C 5.792969 111.675781 6.445312 109.3125 7.15625 106.964844 C 7.871094 104.617188 8.636719 102.289062 9.464844 99.980469 C 10.289062 97.671875 11.171875 95.382812 12.109375 93.117188 C 13.046875 90.847656 14.042969 88.605469 15.089844 86.390625 C 16.136719 84.171875 17.238281 81.980469 18.394531 79.816406 C 19.550781 77.652344 20.757812 75.519531 22.019531 73.414062 C 23.28125 71.3125 24.589844 69.238281 25.953125 67.199219 C 27.316406 65.160156 28.726562 63.15625 30.1875 61.183594 C 31.648438 59.214844 33.15625 57.28125 34.710938 55.382812 C 36.265625 53.488281 37.867188 51.632812 39.511719 49.8125 C 41.160156 47.996094 42.851562 46.21875 44.582031 44.484375 C 46.316406 42.75 48.09375 41.058594 49.910156 39.410156 C 51.726562 37.765625 53.582031 36.160156 55.476562 34.605469 C 57.371094 33.050781 59.304688 31.539062 61.273438 30.078125 C 63.242188 28.617188 65.246094 27.207031 67.285156 25.84375 C 69.324219 24.480469 71.394531 23.167969 73.496094 21.90625 C 75.597656 20.644531 77.730469 19.4375 79.894531 18.28125 C 82.054688 17.125 84.246094 16.019531 86.460938 14.972656 C 88.675781 13.921875 90.917969 12.929688 93.183594 11.992188 C 95.449219 11.050781 97.734375 10.167969 100.042969 9.34375 C 102.351562 8.515625 104.679688 7.746094 107.023438 7.035156 C 109.371094 6.324219 111.734375 5.667969 114.109375 5.074219 C 116.488281 4.476562 118.878906 3.9375 121.285156 3.460938 C 123.6875 2.980469 126.105469 2.5625 128.527344 2.203125 C 130.953125 1.84375 133.386719 1.542969 135.828125 1.300781 C 138.265625 1.0625 140.710938 0.882812 143.160156 0.761719 C 145.609375 0.640625 148.058594 0.582031 150.511719 0.582031 Z M 370.21875 0.582031 " fill-opacity="1" fill-rule="nonzero"/></g></g></g></g></svg>