<svg xmlns="http://www.w3.org/2000/svg" xmlns:xlink="http://www.w3.org/1999/xlink" width="500" zoomAndPan="magnify" viewBox="0 0 375 374.999991" height="500" preserveAspectRatio="xMidYMid meet" version="1.0"><defs><clipPath id="b392d2d45c"><path d="M 37.5 69 L 337.5 69 L 337.5 306 L 37.5 306 Z M 37.5 69 " clip-rule="nonzero"/></clipPath></defs><rect x="-37.5" width="450" fill="#ffffff" y="-37.499999" height="449.999989" fill-opacity="1"/><rect x="-37.5" width="450" fill="#ffffff" y="-37.499999" height="449.999989" fill-opacity="1"/><g clip-path="url(#b392d2d45c)"><path fill="#000000" d="M 45.394531 305.921875 C 44.875 305.921875 44.363281 305.871094 43.855469 305.769531 C 43.347656 305.667969 42.851562 305.519531 42.375 305.320312 C 41.894531 305.121094 41.441406 304.878906 41.007812 304.589844 C 40.578125 304.300781 40.179688 303.976562 39.8125 303.609375 C 39.445312 303.242188 39.117188 302.84375 38.832031 302.414062 C 38.542969 301.980469 38.300781 301.527344 38.101562 301.046875 C 37.902344 300.570312 37.753906 300.074219 37.652344 299.566406 C 37.550781 299.058594 37.5 298.542969 37.5 298.027344 C 37.5 297.507812 37.550781 296.996094 37.652344 296.484375 C 37.753906 295.976562 37.902344 295.484375 38.101562 295.003906 C 38.300781 294.527344 38.542969 294.070312 38.832031 293.640625 C 39.117188 293.210938 39.445312 292.808594 39.8125 292.445312 C 40.179688 292.078125 40.578125 291.75 41.007812 291.460938 C 41.441406 291.175781 41.894531 290.929688 42.375 290.734375 C 42.851562 290.535156 43.347656 290.382812 43.855469 290.285156 C 44.363281 290.183594 44.875 290.132812 45.394531 290.132812 L 219.078125 290.132812 C 220.757812 290.132812 222.4375 290.089844 224.113281 290.007812 C 225.792969 289.925781 227.46875 289.800781 229.136719 289.636719 C 230.808594 289.472656 232.476562 289.265625 234.136719 289.019531 C 235.800781 288.773438 237.453125 288.488281 239.101562 288.160156 C 240.75 287.832031 242.386719 287.464844 244.015625 287.054688 C 245.644531 286.648438 247.265625 286.199219 248.871094 285.710938 C 250.480469 285.226562 252.074219 284.699219 253.65625 284.132812 C 255.234375 283.566406 256.800781 282.960938 258.355469 282.320312 C 259.90625 281.675781 261.441406 280.996094 262.960938 280.277344 C 264.476562 279.558594 265.976562 278.804688 267.460938 278.011719 C 268.941406 277.222656 270.402344 276.394531 271.84375 275.53125 C 273.28125 274.667969 274.703125 273.769531 276.097656 272.835938 C 277.496094 271.902344 278.867188 270.933594 280.214844 269.933594 C 281.566406 268.933594 282.890625 267.902344 284.1875 266.835938 C 285.484375 265.769531 286.757812 264.671875 288.003906 263.546875 C 289.246094 262.417969 290.460938 261.257812 291.652344 260.070312 C 292.839844 258.882812 293.996094 257.667969 295.125 256.421875 C 296.25 255.179688 297.347656 253.90625 298.414062 252.609375 C 299.480469 251.308594 300.511719 249.988281 301.511719 248.636719 C 302.515625 247.289062 303.480469 245.914062 304.414062 244.519531 C 305.347656 243.121094 306.246094 241.703125 307.109375 240.261719 C 307.972656 238.824219 308.800781 237.363281 309.59375 235.878906 C 310.382812 234.398438 311.136719 232.898438 311.855469 231.378906 C 312.574219 229.863281 313.253906 228.328125 313.898438 226.773438 C 314.539062 225.222656 315.144531 223.65625 315.710938 222.074219 C 316.277344 220.492188 316.804688 218.898438 317.292969 217.292969 C 317.777344 215.683594 318.226562 214.066406 318.632812 212.4375 C 319.042969 210.808594 319.410156 209.167969 319.738281 207.523438 C 320.066406 205.875 320.351562 204.21875 320.601562 202.558594 C 320.847656 200.898438 321.050781 199.230469 321.214844 197.558594 C 321.382812 195.886719 321.503906 194.214844 321.585938 192.535156 C 321.667969 190.859375 321.710938 189.179688 321.710938 187.5 C 321.710938 185.820312 321.667969 184.140625 321.585938 182.464844 C 321.503906 180.785156 321.382812 179.113281 321.214844 177.441406 C 321.050781 175.769531 320.847656 174.101562 320.601562 172.441406 C 320.351562 170.78125 320.066406 169.125 319.738281 167.476562 C 319.410156 165.832031 319.042969 164.191406 318.632812 162.5625 C 318.226562 160.933594 317.777344 159.316406 317.292969 157.707031 C 316.804688 156.101562 316.277344 154.507812 315.710938 152.925781 C 315.144531 151.34375 314.539062 149.777344 313.898438 148.222656 C 313.253906 146.671875 312.574219 145.136719 311.855469 143.621094 C 311.136719 142.101562 310.382812 140.601562 309.59375 139.121094 C 308.800781 137.636719 307.972656 136.175781 307.109375 134.738281 C 306.246094 133.296875 305.347656 131.878906 304.414062 130.480469 C 303.480469 129.085938 302.515625 127.710938 301.511719 126.363281 C 300.511719 125.011719 299.480469 123.691406 298.414062 122.390625 C 297.347656 121.09375 296.25 119.820312 295.125 118.578125 C 293.996094 117.332031 292.839844 116.117188 291.652344 114.929688 C 290.460938 113.742188 289.246094 112.582031 288.003906 111.453125 C 286.757812 110.328125 285.484375 109.230469 284.1875 108.164062 C 282.890625 107.097656 281.566406 106.066406 280.214844 105.066406 C 278.867188 104.066406 277.496094 103.097656 276.097656 102.164062 C 274.703125 101.230469 273.28125 100.332031 271.84375 99.46875 C 270.402344 98.605469 268.941406 97.777344 267.460938 96.988281 C 265.976562 96.195312 264.476562 95.441406 262.960938 94.722656 C 261.441406 94.003906 259.90625 93.324219 258.355469 92.679688 C 256.800781 92.039062 255.234375 91.433594 253.65625 90.867188 C 252.074219 90.300781 250.480469 89.773438 248.871094 89.289062 C 247.265625 88.800781 245.644531 88.351562 244.015625 87.945312 C 242.386719 87.535156 240.75 87.167969 239.101562 86.839844 C 237.453125 86.511719 235.800781 86.226562 234.136719 85.980469 C 232.476562 85.734375 230.808594 85.527344 229.136719 85.363281 C 227.46875 85.199219 225.792969 85.074219 224.113281 84.992188 C 222.4375 84.910156 220.757812 84.867188 219.078125 84.867188 L 45.394531 84.867188 C 44.875 84.867188 44.363281 84.816406 43.855469 84.714844 C 43.347656 84.617188 42.851562 84.464844 42.375 84.265625 C 41.894531 84.070312 41.441406 83.824219 41.007812 83.539062 C 40.578125 83.25 40.179688 82.921875 39.8125 82.554688 C 39.445312 82.191406 39.117188 81.789062 38.832031 81.359375 C 38.542969 80.929688 38.300781 80.472656 38.101562 79.996094 C 37.902344 79.515625 37.753906 79.023438 37.652344 78.515625 C 37.550781 78.003906 37.5 77.492188 37.5 76.972656 C 37.5 76.457031 37.550781 75.941406 37.652344 75.433594 C 37.753906 74.925781 37.902344 74.429688 38.101562 73.953125 C 38.300781 73.472656 38.542969 73.019531 38.832031 72.585938 C 39.117188 72.15625 39.445312 71.757812 39.8125 71.390625 C 40.179688 71.023438 40.578125 70.699219 41.007812 70.410156 C 41.441406 70.121094 41.894531 69.878906 42.375 69.679688 C 42.851562 69.480469 43.347656 69.332031 43.855469 69.230469 C 44.363281 69.128906 44.875 69.078125 45.394531 69.078125 L 219.078125 69.078125 C 221.015625 69.078125 222.953125 69.125 224.890625 69.222656 C 226.824219 69.316406 228.757812 69.460938 230.6875 69.648438 C 232.613281 69.839844 234.539062 70.078125 236.453125 70.359375 C 238.371094 70.644531 240.28125 70.976562 242.183594 71.355469 C 244.082031 71.734375 245.972656 72.15625 247.851562 72.628906 C 249.734375 73.097656 251.601562 73.617188 253.453125 74.179688 C 255.308594 74.742188 257.148438 75.347656 258.972656 76 C 260.796875 76.652344 262.605469 77.351562 264.398438 78.09375 C 266.1875 78.835938 267.957031 79.621094 269.710938 80.449219 C 271.460938 81.277344 273.191406 82.148438 274.902344 83.0625 C 276.613281 83.976562 278.296875 84.929688 279.960938 85.925781 C 281.621094 86.921875 283.257812 87.960938 284.871094 89.035156 C 286.480469 90.113281 288.066406 91.230469 289.621094 92.382812 C 291.179688 93.539062 292.707031 94.730469 294.203125 95.960938 C 295.703125 97.1875 297.167969 98.453125 298.605469 99.753906 C 300.042969 101.058594 301.445312 102.394531 302.816406 103.761719 C 304.1875 105.132812 305.523438 106.539062 306.824219 107.972656 C 308.125 109.410156 309.390625 110.875 310.621094 112.375 C 311.847656 113.871094 313.042969 115.398438 314.195312 116.957031 C 315.351562 118.511719 316.464844 120.097656 317.542969 121.707031 C 318.617188 123.320312 319.65625 124.957031 320.652344 126.621094 C 321.648438 128.28125 322.601562 129.96875 323.515625 131.675781 C 324.429688 133.386719 325.300781 135.117188 326.128906 136.867188 C 326.957031 138.621094 327.742188 140.390625 328.484375 142.183594 C 329.226562 143.972656 329.925781 145.78125 330.578125 147.605469 C 331.230469 149.429688 331.839844 151.269531 332.402344 153.125 C 332.964844 154.980469 333.480469 156.847656 333.949219 158.726562 C 334.421875 160.605469 334.847656 162.496094 335.222656 164.398438 C 335.601562 166.296875 335.933594 168.207031 336.21875 170.125 C 336.503906 172.042969 336.738281 173.964844 336.929688 175.894531 C 337.121094 177.820312 337.261719 179.753906 337.355469 181.6875 C 337.453125 183.625 337.5 185.5625 337.5 187.5 C 337.5 189.4375 337.453125 191.375 337.355469 193.3125 C 337.261719 195.246094 337.121094 197.179688 336.929688 199.105469 C 336.738281 201.035156 336.503906 202.957031 336.21875 204.875 C 335.933594 206.792969 335.601562 208.703125 335.222656 210.601562 C 334.847656 212.503906 334.421875 214.394531 333.949219 216.273438 C 333.480469 218.152344 332.964844 220.019531 332.402344 221.875 C 331.839844 223.730469 331.230469 225.570312 330.578125 227.394531 C 329.925781 229.21875 329.226562 231.027344 328.484375 232.816406 C 327.742188 234.609375 326.957031 236.378906 326.128906 238.132812 C 325.300781 239.882812 324.429688 241.613281 323.515625 243.324219 C 322.601562 245.03125 321.648438 246.71875 320.652344 248.378906 C 319.65625 250.042969 318.617188 251.679688 317.542969 253.292969 C 316.464844 254.902344 315.351562 256.488281 314.195312 258.042969 C 313.042969 259.601562 311.847656 261.128906 310.621094 262.625 C 309.390625 264.125 308.125 265.589844 306.824219 267.027344 C 305.523438 268.460938 304.1875 269.867188 302.816406 271.234375 C 301.445312 272.605469 300.042969 273.941406 298.605469 275.246094 C 297.167969 276.546875 295.703125 277.8125 294.203125 279.039062 C 292.707031 280.269531 291.179688 281.460938 289.621094 282.617188 C 288.066406 283.769531 286.480469 284.886719 284.871094 285.964844 C 283.257812 287.039062 281.621094 288.078125 279.960938 289.074219 C 278.296875 290.070312 276.613281 291.023438 274.902344 291.9375 C 273.191406 292.851562 271.460938 293.722656 269.710938 294.550781 C 267.957031 295.378906 266.1875 296.164062 264.398438 296.90625 C 262.605469 297.648438 260.796875 298.34375 258.972656 299 C 257.148438 299.652344 255.308594 300.257812 253.453125 300.820312 C 251.601562 301.382812 249.734375 301.902344 247.851562 302.371094 C 245.972656 302.84375 244.082031 303.265625 242.183594 303.644531 C 240.28125 304.023438 238.371094 304.355469 236.453125 304.640625 C 234.539062 304.921875 232.613281 305.160156 230.6875 305.351562 C 228.757812 305.539062 226.824219 305.683594 224.890625 305.777344 C 222.953125 305.875 221.015625 305.921875 219.078125 305.921875 Z M 45.394531 305.921875 " fill-opacity="1" fill-rule="nonzero"/></g></svg>