<svg xmlns="http://www.w3.org/2000/svg" xmlns:xlink="http://www.w3.org/1999/xlink" width="500" zoomAndPan="magnify" viewBox="0 0 375 374.999991" height="500" preserveAspectRatio="xMidYMid meet" version="1.0"><defs><clipPath id="ed28f80c49"><path d="M 68 117.613281 L 321.484375 117.613281 L 321.484375 198.613281 L 68 198.613281 Z M 68 117.613281 " clip-rule="nonzero"/></clipPath><clipPath id="1a915c0e56"><path d="M 53.828125 176.6875 L 307.328125 176.6875 L 307.328125 257.6875 L 53.828125 257.6875 Z M 53.828125 176.6875 " clip-rule="nonzero"/></clipPath><clipPath id="253da940d7"><path d="M 0.828125 0.6875 L 254 0.6875 L 254 81.382812 L 0.828125 81.382812 Z M 0.828125 0.6875 " clip-rule="nonzero"/></clipPath><clipPath id="d382930c34"><rect x="0" width="255" y="0" height="82"/></clipPath></defs><rect x="-37.5" width="450" fill="#ffffff" y="-37.499999" height="449.999989" fill-opacity="1"/><rect x="-37.5" width="450" fill="#ffffff" y="-37.499999" height="449.999989" fill-opacity="1"/><g clip-path="url(#ed28f80c49)"><path fill="#000000" d="M 253.433594 117.589844 L 238.386719 132.664062 L 282.699219 177.054688 L 68.28125 177.054688 L 68.28125 198.375 L 282.699219 198.375 L 238.386719 242.761719 L 253.433594 257.835938 L 323.4375 187.714844 Z M 253.433594 117.589844 " fill-opacity="1" fill-rule="nonzero"/></g><g clip-path="url(#1a915c0e56)"><g transform="matrix(1, 0, 0, 1, 53, 176)"><g clip-path="url(#d382930c34)"><g clip-path="url(#253da940d7)"><path fill="#000000" d="M 68.5625 81.402344 L 83.609375 66.332031 L 39.296875 21.941406 L 253.710938 21.941406 L 253.710938 0.621094 L 39.296875 0.621094 L 83.609375 -43.765625 L 68.5625 -58.839844 L -1.441406 11.28125 Z M 68.5625 81.402344 " fill-opacity="1" fill-rule="nonzero"/></g></g></g></g></svg>