<svg xmlns="http://www.w3.org/2000/svg" xmlns:xlink="http://www.w3.org/1999/xlink" width="500" zoomAndPan="magnify" viewBox="0 0 375 374.999991" height="500" preserveAspectRatio="xMidYMid meet" version="1.0"><defs><clipPath id="0b08d1d4b3"><path d="M 38 190.484375 L 337 190.484375 L 337 256 L 38 256 Z M 38 190.484375 " clip-rule="nonzero"/></clipPath><clipPath id="c8696b3914"><path d="M 37.5 105.390625 L 337.5 105.390625 L 337.5 190.140625 L 37.5 190.140625 Z M 37.5 105.390625 " clip-rule="nonzero"/></clipPath><clipPath id="b079baa8bf"><path d="M 0.5 0.390625 L 300.5 0.390625 L 300.5 85.140625 L 0.5 85.140625 Z M 0.5 0.390625 " clip-rule="nonzero"/></clipPath><clipPath id="2f1b06a06f"><rect x="0" width="301" y="0" height="86"/></clipPath></defs><rect x="-37.5" width="450" fill="#ffffff" y="-37.499999" height="449.999989" fill-opacity="1"/><rect x="-37.5" width="450" fill="#ffffff" y="-37.499999" height="449.999989" fill-opacity="1"/><g clip-path="url(#0b08d1d4b3)"><path fill="#000000" d="M 40.257812 226.394531 C 54.878906 197.757812 89.351562 190.777344 117.921875 200.003906 C 146.492188 209.234375 164.964844 233.1875 191.265625 245.996094 C 240.566406 269.984375 304.347656 245.441406 335.996094 203.203125 C 337.5625 201.113281 334.519531 198.277344 332.453125 199.746094 C 307.839844 216.234375 285.496094 235.089844 255.890625 242.054688 C 248.335938 243.898438 240.667969 244.867188 232.890625 244.960938 C 225.113281 245.054688 217.425781 244.269531 209.828125 242.605469 C 194.535156 239.046875 181.773438 230.769531 169.25 221.625 C 147.007812 205.414062 123.203125 190.519531 94.683594 190.984375 C 71.289062 191.347656 48.238281 203.515625 38.160156 225.253906 C 37.488281 226.570312 39.519531 227.8125 40.257812 226.394531 Z M 40.257812 226.394531 " fill-opacity="1" fill-rule="nonzero"/></g><g clip-path="url(#c8696b3914)"><g transform="matrix(1, 0, 0, 1, 37, 105)"><g clip-path="url(#2f1b06a06f)"><g clip-path="url(#b079baa8bf)"><path fill="#000000" d="M 97.175781 80.203125 C 94.800781 74.800781 92.757812 69.023438 91.550781 64.316406 C 90.601562 60.621094 89.28125 53.054688 89.28125 51.324219 L 89.28125 50.054688 L 300.320312 50.054688 L 300.320312 35.492188 L 89.28125 35.492188 L 89.28125 34.222656 C 89.28125 32.492188 90.601562 24.929688 91.550781 21.234375 C 92.757812 16.527344 94.800781 10.75 97.175781 5.347656 C 98.367188 2.625 99.316406 0.398438 99.28125 0.398438 C 98.792969 0.398438 0.792969 42.492188 0.726562 42.730469 C 0.660156 42.964844 98.664062 85.148438 99.277344 85.148438 C 99.3125 85.148438 98.367188 82.921875 97.175781 80.203125 Z M 97.175781 80.203125 " fill-opacity="1" fill-rule="nonzero"/></g></g></g></g></svg>