<svg xmlns="http://www.w3.org/2000/svg" xmlns:xlink="http://www.w3.org/1999/xlink" width="500" zoomAndPan="magnify" viewBox="0 0 375 374.999991" height="500" preserveAspectRatio="xMidYMid meet" version="1.0"><defs><clipPath id="749e283079"><path d="M 0.0625 0.3125 L 266.9375 0.3125 L 266.9375 276 L 0.0625 276 Z M 0.0625 0.3125 " clip-rule="nonzero"/></clipPath><clipPath id="7b0f9089e5"><path d="M 133.5 0.3125 C 59.804688 0.3125 0.0625 61.957031 0.0625 138 C 0.0625 214.042969 59.804688 275.6875 133.5 275.6875 C 207.195312 275.6875 266.9375 214.042969 266.9375 138 C 266.9375 61.957031 207.195312 0.3125 133.5 0.3125 Z M 133.5 0.3125 " clip-rule="nonzero"/></clipPath><clipPath id="975fa478e7"><path d="M 0.0625 0.3125 L 266.9375 0.3125 L 266.9375 275.878906 L 0.0625 275.878906 Z M 0.0625 0.3125 " clip-rule="nonzero"/></clipPath><clipPath id="0538857160"><path d="M 133.5 0.3125 C 59.804688 0.3125 0.0625 61.957031 0.0625 138 C 0.0625 214.042969 59.804688 275.6875 133.5 275.6875 C 207.195312 275.6875 266.9375 214.042969 266.9375 138 C 266.9375 61.957031 207.195312 0.3125 133.5 0.3125 Z M 133.5 0.3125 " clip-rule="nonzero"/></clipPath><clipPath id="d4f668b6d7"><rect x="0" width="267" y="0" height="276"/></clipPath><clipPath id="e1afa03f5e"><path d="M 10.777344 12.058594 L 254.890625 12.058594 L 254.890625 264 L 10.777344 264 Z M 10.777344 12.058594 " clip-rule="nonzero"/></clipPath><clipPath id="f64d36ada8"><path d="M 132.832031 12.058594 C 65.421875 12.058594 10.777344 68.445312 10.777344 138 C 10.777344 207.554688 65.421875 263.941406 132.832031 263.941406 C 200.242188 263.941406 254.890625 207.554688 254.890625 138 C 254.890625 68.445312 200.242188 12.058594 132.832031 12.058594 Z M 132.832031 12.058594 " clip-rule="nonzero"/></clipPath><clipPath id="e1b1ce7be5"><path d="M 0.777344 0.0585938 L 244.890625 0.0585938 L 244.890625 252 L 0.777344 252 Z M 0.777344 0.0585938 " clip-rule="nonzero"/></clipPath><clipPath id="2f25dc411a"><path d="M 122.832031 0.0585938 C 55.421875 0.0585938 0.777344 56.445312 0.777344 126 C 0.777344 195.554688 55.421875 251.941406 122.832031 251.941406 C 190.242188 251.941406 244.890625 195.554688 244.890625 126 C 244.890625 56.445312 190.242188 0.0585938 122.832031 0.0585938 Z M 122.832031 0.0585938 " clip-rule="nonzero"/></clipPath><clipPath id="62fc63e2ff"><rect x="0" width="245" y="0" height="252"/></clipPath><clipPath id="eb8bc3dd87"><rect x="0" width="268" y="0" height="277"/></clipPath></defs><rect x="-37.5" width="450" fill="#ffffff" y="-37.499999" height="449.999989" fill-opacity="1"/><rect x="-37.5" width="450" fill="#ffffff" y="-37.499999" height="449.999989" fill-opacity="1"/><g transform="matrix(1, 0, 0, 1, 54, 51)"><g clip-path="url(#eb8bc3dd87)"><g clip-path="url(#749e283079)"><g clip-path="url(#7b0f9089e5)"><g transform="matrix(1, 0, 0, 1, -0.000000000000007105, 0)"><g clip-path="url(#d4f668b6d7)"><g clip-path="url(#975fa478e7)"><g clip-path="url(#0538857160)"><path fill="#000000" d="M 0.0625 0.3125 L 266.9375 0.3125 L 266.9375 275.53125 L 0.0625 275.53125 Z M 0.0625 0.3125 " fill-opacity="1" fill-rule="nonzero"/></g></g></g></g></g></g><g clip-path="url(#e1afa03f5e)"><g clip-path="url(#f64d36ada8)"><g transform="matrix(1, 0, 0, 1, 10, 12)"><g clip-path="url(#62fc63e2ff)"><g clip-path="url(#e1b1ce7be5)"><g clip-path="url(#2f25dc411a)"><path fill="#ffffff" d="M 0.777344 0.0585938 L 244.890625 0.0585938 L 244.890625 251.800781 L 0.777344 251.800781 Z M 0.777344 0.0585938 " fill-opacity="1" fill-rule="nonzero"/></g></g></g></g></g></g></g></g><path stroke-linecap="butt" transform="matrix(0.75, 0, 0, 0.75, 19.941525, 179.624988)" fill="none" stroke-linejoin="miter" d="M -0.000158907 10.500016 L 442.025912 10.500016 " stroke="#000000" stroke-width="21" stroke-opacity="1" stroke-miterlimit="4"/></svg>