<svg xmlns="http://www.w3.org/2000/svg" xmlns:xlink="http://www.w3.org/1999/xlink" width="500" zoomAndPan="magnify" viewBox="0 0 375 374.999991" height="500" preserveAspectRatio="xMidYMid meet" version="1.0"><defs><clipPath id="97f4ace8d3"><path d="M 105 86 L 175 86 L 175 283 L 105 283 Z M 105 86 " clip-rule="nonzero"/></clipPath><clipPath id="fd2b446f07"><path d="M 228.746094 201.722656 L 110.539062 285.265625 L 26.992188 167.058594 L 145.199219 83.515625 Z M 228.746094 201.722656 " clip-rule="nonzero"/></clipPath><clipPath id="c25127eca2"><path d="M 228.746094 201.722656 L 110.539062 285.265625 L 26.992188 167.058594 L 145.199219 83.515625 Z M 228.746094 201.722656 " clip-rule="nonzero"/></clipPath><clipPath id="f2f6022adc"><path d="M 228.746094 201.722656 L 110.539062 285.265625 L 26.992188 167.058594 L 145.199219 83.515625 Z M 228.746094 201.722656 " clip-rule="nonzero"/></clipPath></defs><rect x="-37.5" width="450" fill="#ffffff" y="-37.499999" height="449.999989" fill-opacity="1"/><rect x="-37.5" width="450" fill="#ffffff" y="-37.499999" height="449.999989" fill-opacity="1"/><path stroke-linecap="butt" transform="matrix(0.674157, -0.328652, 0.328652, 0.674157, 47.682467, 180.383851)" fill="none" stroke-linejoin="miter" d="M -0.0000322222 9.999355 L 419.412035 10.000289 " stroke="#000000" stroke-width="20" stroke-opacity="1" stroke-miterlimit="4"/><path stroke-linecap="butt" transform="matrix(0.67082, 0.33541, -0.33541, 0.67082, 54.74829, 177.664104)" fill="none" stroke-linejoin="miter" d="M -0.000314593 9.998347 L 421.500853 10.003008 " stroke="#000000" stroke-width="20" stroke-opacity="1" stroke-miterlimit="4"/><g clip-path="url(#97f4ace8d3)"><g clip-path="url(#fd2b446f07)"><g clip-path="url(#c25127eca2)"><g clip-path="url(#f2f6022adc)"><path fill="#040404" d="M 158.25 189.617188 C 163.851562 157.058594 156.414062 125.394531 137.648438 97.128906 C 135.585938 94.011719 136.371094 89.792969 139.441406 87.640625 L 139.699219 87.457031 C 142.773438 85.304688 147.019531 86.035156 149.160156 89.117188 C 170.390625 119.582031 178.683594 155.9375 172.457031 192.066406 C 166.238281 228.207031 146.273438 259.6875 116.074219 281.296875 C 113.019531 283.472656 108.769531 282.761719 106.605469 279.699219 L 106.421875 279.441406 C 104.25 276.367188 104.914062 272.152344 107.910156 269.890625 C 135.035156 249.539062 152.632812 222.179688 158.25 189.617188 Z M 158.25 189.617188 " fill-opacity="1" fill-rule="nonzero"/></g></g></g></g></svg>