<svg xmlns="http://www.w3.org/2000/svg" xmlns:xlink="http://www.w3.org/1999/xlink" width="500" zoomAndPan="magnify" viewBox="0 0 375 374.999991" height="500" preserveAspectRatio="xMidYMid meet" version="1.0"><defs><clipPath id="f505beb1c0"><path d="M 73 179 L 358 179 L 358 307 L 73 307 Z M 73 179 " clip-rule="nonzero"/></clipPath><clipPath id="470dff079d"><path d="M 341.179688 162.273438 L 357.9375 258.324219 L 83.089844 306.273438 L 66.332031 210.226562 Z M 341.179688 162.273438 " clip-rule="nonzero"/></clipPath><clipPath id="dfe509438a"><path d="M 341.382812 162.238281 L 358.136719 258.289062 L 83.289062 306.238281 L 66.53125 210.191406 Z M 341.382812 162.238281 " clip-rule="nonzero"/></clipPath><clipPath id="81fbfc04c7"><path d="M 417.503906 148.960938 L 443.027344 295.25 L 92.078125 356.476562 L 66.554688 210.1875 Z M 417.503906 148.960938 " clip-rule="nonzero"/></clipPath><clipPath id="11395aae40"><path d="M 71 68 L 367 68 L 367 246 L 71 246 Z M 71 68 " clip-rule="nonzero"/></clipPath><clipPath id="68e914bfe7"><path d="M 366.421875 157.296875 L 337.007812 245.523438 L 71.617188 157.050781 L 101.027344 68.824219 Z M 366.421875 157.296875 " clip-rule="nonzero"/></clipPath><clipPath id="4c85901b48"><path d="M 12 0.640625 L 295.480469 0.640625 L 295.480469 170 L 12 170 Z M 12 0.640625 " clip-rule="nonzero"/></clipPath><clipPath id="c6c47b99db"><path d="M 295.421875 89.296875 L 266.007812 177.523438 L 0.617188 89.050781 L 30.027344 0.824219 Z M 295.421875 89.296875 " clip-rule="nonzero"/></clipPath><clipPath id="2a647bff37"><path d="M 338.464844 201.527344 L 385.429688 60.648438 L 47.464844 -52.015625 L 0.5 88.863281 Z M 338.464844 201.527344 " clip-rule="nonzero"/></clipPath><clipPath id="62a4b22b2d"><path d="M 338.464844 201.527344 L 385.429688 60.648438 L 47.464844 -52.015625 L 0.5 88.863281 Z M 338.464844 201.527344 " clip-rule="nonzero"/></clipPath><clipPath id="369375c9cd"><rect x="0" width="296" y="0" height="178"/></clipPath></defs><rect x="-37.5" width="450" fill="#ffffff" y="-37.499999" height="449.999989" fill-opacity="1"/><rect x="-37.5" width="450" fill="#ffffff" y="-37.499999" height="449.999989" fill-opacity="1"/><g clip-path="url(#f505beb1c0)"><g clip-path="url(#470dff079d)"><g clip-path="url(#dfe509438a)"><g clip-path="url(#81fbfc04c7)"><path fill="#000000" d="M 291.515625 186.492188 C 298.949219 187.902344 303.300781 192.238281 304.574219 199.503906 L 304.957031 201.703125 C 305.519531 209.976562 301.148438 214.195312 291.851562 214.359375 C 278.546875 213.988281 262.746094 213.886719 244.441406 214.054688 C 226.140625 214.222656 207.636719 214.890625 188.925781 216.066406 C 160.96875 217.617188 135.894531 220.355469 113.707031 224.277344 C 91.519531 228.199219 80.226562 234.066406 79.828125 241.878906 C 79.128906 249.828125 81.988281 257.585938 88.414062 265.148438 C 94.835938 272.710938 103.289062 279.792969 113.765625 286.386719 C 129.890625 296.757812 146.984375 305.164062 165.050781 311.605469 C 183.910156 318.195312 198.773438 322.492188 209.640625 324.5 C 210.582031 326.234375 211.222656 328.070312 211.5625 330.015625 C 211.898438 331.8125 211.894531 333.605469 211.539062 335.398438 C 203.402344 333.496094 194.121094 331.058594 183.699219 328.09375 C 172.75 325.101562 162.03125 321.429688 151.542969 317.082031 C 131.808594 309.042969 113.445312 298.597656 96.464844 285.738281 C 83.613281 275.960938 76.148438 264.960938 74.066406 252.746094 C 73.449219 249.210938 73.269531 245.65625 73.53125 242.078125 C 73.765625 239.230469 74.425781 236.484375 75.511719 233.839844 C 76.59375 231.195312 78.054688 228.773438 79.886719 226.578125 C 84.15625 221.582031 89.136719 217.441406 94.832031 214.148438 C 106.292969 207.589844 121.148438 202.277344 139.40625 198.210938 C 144.910156 196.9375 150.71875 195.765625 156.835938 194.699219 C 169.671875 192.460938 183.042969 190.726562 196.953125 189.496094 C 213.53125 188.105469 230.023438 187.179688 246.425781 186.714844 C 262.832031 186.25 277.863281 186.175781 291.515625 186.492188 Z M 399.921875 214.699219 C 393.796875 214.257812 389.195312 212.070312 386.113281 208.140625 C 383.523438 205.265625 382.109375 202.367188 381.867188 199.441406 C 381.609375 197.960938 381.5 196.46875 381.546875 194.96875 C 381.945312 190.371094 384.292969 186.660156 388.597656 183.832031 C 391.652344 182.101562 394.914062 180.949219 398.378906 180.378906 C 400.140625 180.078125 401.914062 179.925781 403.699219 179.917969 C 406.449219 179.917969 409.132812 180.34375 411.746094 181.199219 C 414.359375 182.054688 416.769531 183.296875 418.984375 184.925781 C 420.597656 185.871094 421.9375 187.109375 423.003906 188.640625 C 424.070312 190.171875 424.765625 191.855469 425.089844 193.695312 C 425.617188 195.15625 425.71875 196.648438 425.398438 198.167969 C 424.832031 203.671875 421.980469 207.910156 416.839844 210.894531 C 413.777344 212.621094 410.515625 213.777344 407.046875 214.355469 C 404.703125 214.730469 402.347656 214.820312 399.984375 214.628906 Z M 399.921875 214.699219 " fill-opacity="1" fill-rule="nonzero"/></g></g></g></g><g clip-path="url(#11395aae40)"><g clip-path="url(#68e914bfe7)"><g transform="matrix(1, 0, 0, 1, 71, 68)"><g clip-path="url(#369375c9cd)"><g clip-path="url(#4c85901b48)"><g clip-path="url(#c6c47b99db)"><g clip-path="url(#2a647bff37)"><g clip-path="url(#62a4b22b2d)"><path fill="#000000" d="M 219.445312 145.699219 C 227.007812 145.410156 231.953125 141.769531 234.292969 134.773438 L 235 132.65625 C 236.78125 124.558594 233.085938 119.738281 223.917969 118.195312 C 210.707031 116.585938 195.0625 114.339844 176.988281 111.457031 C 158.914062 108.570312 140.714844 105.160156 122.386719 101.222656 C 94.96875 95.535156 70.582031 89.105469 49.222656 81.929688 C 27.863281 74.757812 17.566406 67.277344 18.332031 59.492188 C 18.820312 51.527344 22.800781 44.28125 30.277344 37.753906 C 37.753906 31.230469 47.160156 25.484375 58.5 20.519531 C 75.988281 12.65625 94.140625 6.882812 112.964844 3.195312 C 132.59375 -0.523438 147.929688 -2.566406 158.972656 -2.933594 C 160.160156 -4.507812 161.070312 -6.230469 161.695312 -8.101562 C 162.296875 -9.828125 162.554688 -11.605469 162.472656 -13.429688 C 154.140625 -12.757812 144.601562 -11.726562 133.855469 -10.339844 C 122.582031 -9.007812 111.4375 -6.96875 100.421875 -4.226562 C 79.710938 0.792969 60 8.394531 41.296875 18.585938 C 27.136719 26.351562 18.121094 36.117188 14.25 47.890625 C 13.113281 51.292969 12.40625 54.785156 12.132812 58.363281 C 11.945312 61.210938 12.1875 64.027344 12.867188 66.800781 C 13.546875 69.578125 14.632812 72.1875 16.117188 74.632812 C 19.597656 80.207031 23.910156 85.042969 29.050781 89.140625 C 39.410156 97.328125 53.3125 104.789062 70.761719 111.523438 C 76.015625 113.601562 81.589844 115.621094 87.480469 117.585938 C 99.839844 121.707031 112.804688 125.40625 126.378906 128.691406 C 142.566406 132.523438 158.738281 135.890625 174.890625 138.785156 C 191.046875 141.679688 205.898438 143.984375 219.445312 145.699219 Z M 330.835938 133.90625 C 324.71875 133.433594 319.839844 134.914062 316.210938 138.34375 C 313.222656 140.800781 311.390625 143.457031 310.71875 146.316406 C 310.242188 147.738281 309.917969 149.199219 309.738281 150.691406 C 309.449219 155.292969 311.21875 159.316406 315.054688 162.75 C 317.824219 164.914062 320.875 166.539062 324.21875 167.617188 C 325.914062 168.175781 327.644531 168.589844 329.410156 168.863281 C 332.128906 169.273438 334.847656 169.25 337.558594 168.789062 C 340.269531 168.332031 342.839844 167.460938 345.269531 166.179688 C 347.003906 165.488281 348.511719 164.460938 349.796875 163.105469 C 351.078125 161.75 352.015625 160.183594 352.609375 158.417969 C 353.347656 157.050781 353.671875 155.589844 353.578125 154.039062 C 353.835938 148.511719 351.644531 143.894531 347.003906 140.183594 C 344.234375 138.019531 341.175781 136.390625 337.835938 135.304688 C 335.574219 134.585938 333.257812 134.144531 330.890625 133.984375 Z M 330.835938 133.90625 " fill-opacity="1" fill-rule="nonzero"/></g></g></g></g></g></g></g></g><path stroke-linecap="butt" transform="matrix(0, 0.75, -0.75, 0, 212.245229, 99.515619)" fill="none" stroke-linejoin="miter" d="M 0.00000791315 10.498848 L 234.630232 10.498848 " stroke="#000000" stroke-width="21" stroke-opacity="1" stroke-miterlimit="4"/></svg>