<svg xmlns="http://www.w3.org/2000/svg" xmlns:xlink="http://www.w3.org/1999/xlink" width="500" zoomAndPan="magnify" viewBox="0 0 375 374.999991" height="500" preserveAspectRatio="xMidYMid meet" version="1.0"><defs><clipPath id="57575c430f"><path d="M 56.449219 164.640625 L 149.449219 164.640625 L 149.449219 210.390625 L 56.449219 210.390625 Z M 56.449219 164.640625 " clip-rule="nonzero"/></clipPath><clipPath id="7f0c5f85a4"><path d="M 146.585938 145.292969 L 318.335938 145.292969 L 318.335938 230 L 146.585938 230 Z M 146.585938 145.292969 " clip-rule="nonzero"/></clipPath></defs><rect x="-37.5" width="450" fill="#ffffff" y="-37.499999" height="449.999989" fill-opacity="1"/><rect x="-37.5" width="450" fill="#ffffff" y="-37.499999" height="449.999989" fill-opacity="1"/><g clip-path="url(#57575c430f)"><path fill="#040404" d="M 103.015625 167.511719 C 109.105469 167.511719 115.011719 168.089844 120.578125 169.242188 C 125.886719 170.34375 130.65625 171.90625 134.714844 173.898438 C 138.589844 175.800781 141.738281 178.070312 143.804688 180.457031 C 145.78125 182.746094 146.785156 185.113281 146.785156 187.496094 C 146.785156 189.878906 145.78125 192.246094 143.804688 194.539062 C 141.738281 196.921875 138.589844 199.195312 134.714844 201.09375 C 130.65625 203.085938 125.886719 204.652344 120.578125 205.75 C 115.027344 206.90625 109.125 207.480469 103.015625 207.480469 C 96.90625 207.480469 91.019531 206.90625 85.453125 205.75 C 80.144531 204.652344 75.375 203.085938 71.316406 201.09375 C 67.441406 199.195312 64.292969 196.921875 62.226562 194.539062 C 60.25 192.246094 59.246094 189.878906 59.246094 187.496094 C 59.246094 185.113281 60.25 182.746094 62.226562 180.457031 C 64.292969 178.070312 67.441406 175.800781 71.316406 173.898438 C 75.375 171.90625 80.144531 170.34375 85.453125 169.242188 C 91.019531 168.105469 96.925781 167.511719 103.015625 167.511719 M 103.015625 164.71875 C 77.292969 164.71875 56.449219 174.925781 56.449219 187.496094 C 56.449219 200.070312 77.292969 210.277344 103.015625 210.277344 C 128.738281 210.277344 149.578125 200.085938 149.578125 187.496094 C 149.578125 174.925781 128.738281 164.71875 103.015625 164.71875 Z M 103.015625 164.71875 " fill-opacity="1" fill-rule="nonzero"/></g><g clip-path="url(#7f0c5f85a4)"><path fill="#040404" d="M 232.566406 150.59375 C 243.8125 150.59375 254.714844 151.660156 265 153.792969 C 274.800781 155.820312 283.605469 158.710938 291.101562 162.390625 C 298.257812 165.898438 304.070312 170.09375 307.886719 174.496094 C 311.53125 178.726562 313.390625 183.09375 313.390625 187.496094 C 313.390625 191.898438 311.53125 196.265625 307.886719 200.496094 C 304.070312 204.898438 298.257812 209.09375 291.101562 212.601562 C 283.605469 216.28125 274.800781 219.171875 265 221.199219 C 254.75 223.332031 243.847656 224.398438 232.566406 224.398438 C 221.289062 224.398438 210.417969 223.332031 200.136719 221.199219 C 190.335938 219.171875 181.53125 216.28125 174.03125 212.601562 C 166.878906 209.09375 161.066406 204.898438 157.25 200.496094 C 153.601562 196.265625 151.746094 191.898438 151.746094 187.496094 C 151.746094 183.09375 153.601562 178.726562 157.25 174.496094 C 161.066406 170.09375 166.878906 165.898438 174.03125 162.390625 C 181.53125 158.710938 190.335938 155.820312 200.136719 153.792969 C 210.417969 151.695312 221.320312 150.59375 232.566406 150.59375 M 232.566406 145.433594 C 185.074219 145.433594 146.585938 164.28125 146.585938 187.496094 C 146.585938 210.710938 185.074219 229.558594 232.566406 229.558594 C 280.0625 229.558594 318.546875 210.746094 318.546875 187.496094 C 318.546875 164.28125 280.0625 145.433594 232.566406 145.433594 Z M 232.566406 145.433594 " fill-opacity="1" fill-rule="nonzero"/></g></svg>