<svg xmlns="http://www.w3.org/2000/svg" xmlns:xlink="http://www.w3.org/1999/xlink" width="500" zoomAndPan="magnify" viewBox="0 0 375 374.999991" height="500" preserveAspectRatio="xMidYMid meet" version="1.0"><defs><clipPath id="895dd7c00c"><path d="M 27.011719 140.355469 L 161.261719 140.355469 L 161.261719 234.855469 L 27.011719 234.855469 Z M 27.011719 140.355469 " clip-rule="nonzero"/></clipPath><clipPath id="ffd6d4d0d0"><path d="M 38.261719 148.25 L 150 148.25 L 150 227 L 38.261719 227 Z M 38.261719 148.25 " clip-rule="nonzero"/></clipPath><clipPath id="1e82495526"><path d="M 0.714844 0.679688 L 193.847656 0.679688 L 193.847656 136.359375 L 0.714844 136.359375 Z M 0.714844 0.679688 " clip-rule="nonzero"/></clipPath><clipPath id="fb93917675"><path d="M 16.898438 12.039062 L 177.660156 12.039062 L 177.660156 125.328125 L 16.898438 125.328125 Z M 16.898438 12.039062 " clip-rule="nonzero"/></clipPath><clipPath id="23a2eb5fd7"><rect x="0" width="194" y="0" height="137"/></clipPath></defs><rect x="-37.5" width="450" fill="#ffffff" y="-37.499999" height="449.999989" fill-opacity="1"/><rect x="-37.5" width="450" fill="#ffffff" y="-37.499999" height="449.999989" fill-opacity="1"/><g clip-path="url(#895dd7c00c)"><path fill="#000000" d="M 161.335938 187.496094 C 161.335938 189.039062 161.226562 190.578125 161.011719 192.117188 C 160.796875 193.652344 160.472656 195.175781 160.042969 196.691406 C 159.613281 198.207031 159.082031 199.699219 158.441406 201.179688 C 157.804688 202.65625 157.066406 204.109375 156.222656 205.535156 C 155.382812 206.960938 154.441406 208.355469 153.40625 209.714844 C 152.367188 211.078125 151.238281 212.398438 150.019531 213.683594 C 148.796875 214.96875 147.488281 216.207031 146.09375 217.398438 C 144.695312 218.59375 143.222656 219.734375 141.667969 220.828125 C 140.113281 221.917969 138.484375 222.953125 136.785156 223.933594 C 135.085938 224.914062 133.320312 225.832031 131.492188 226.6875 C 129.664062 227.546875 127.777344 228.339844 125.839844 229.066406 C 123.898438 229.796875 121.914062 230.453125 119.882812 231.046875 C 117.851562 231.636719 115.78125 232.15625 113.679688 232.605469 C 111.574219 233.050781 109.441406 233.425781 107.285156 233.726562 C 105.128906 234.027344 102.957031 234.253906 100.765625 234.40625 C 98.578125 234.558594 96.382812 234.632812 94.183594 234.632812 C 91.984375 234.632812 89.792969 234.558594 87.605469 234.40625 C 85.414062 234.253906 83.242188 234.027344 81.085938 233.726562 C 78.929688 233.425781 76.796875 233.050781 74.691406 232.605469 C 72.589844 232.15625 70.519531 231.636719 68.488281 231.046875 C 66.457031 230.453125 64.472656 229.796875 62.53125 229.066406 C 60.59375 228.339844 58.707031 227.546875 56.878906 226.6875 C 55.050781 225.832031 53.285156 224.914062 51.585938 223.933594 C 49.886719 222.953125 48.257812 221.917969 46.703125 220.828125 C 45.148438 219.734375 43.671875 218.59375 42.277344 217.398438 C 40.882812 216.207031 39.574219 214.96875 38.351562 213.683594 C 37.132812 212.398438 36 211.078125 34.964844 209.714844 C 33.929688 208.355469 32.988281 206.960938 32.148438 205.535156 C 31.304688 204.109375 30.566406 202.65625 29.925781 201.179688 C 29.289062 199.699219 28.753906 198.207031 28.328125 196.691406 C 27.898438 195.175781 27.574219 193.652344 27.359375 192.117188 C 27.144531 190.578125 27.035156 189.039062 27.035156 187.496094 C 27.035156 185.949219 27.144531 184.410156 27.359375 182.875 C 27.574219 181.339844 27.898438 179.8125 28.328125 178.296875 C 28.753906 176.785156 29.289062 175.289062 29.925781 173.8125 C 30.566406 172.332031 31.304688 170.882812 32.148438 169.457031 C 32.988281 168.03125 33.929688 166.636719 34.964844 165.273438 C 36 163.914062 37.132812 162.589844 38.351562 161.304688 C 39.574219 160.023438 40.882812 158.785156 42.277344 157.589844 C 43.671875 156.398438 45.148438 155.253906 46.703125 154.164062 C 48.257812 153.070312 49.886719 152.035156 51.585938 151.054688 C 53.285156 150.078125 55.050781 149.160156 56.878906 148.300781 C 58.707031 147.441406 60.59375 146.648438 62.53125 145.921875 C 64.472656 145.195312 66.457031 144.535156 68.488281 143.945312 C 70.519531 143.355469 72.589844 142.835938 74.691406 142.386719 C 76.796875 141.9375 78.929688 141.5625 81.085938 141.261719 C 83.242188 140.960938 85.414062 140.734375 87.605469 140.582031 C 89.792969 140.433594 91.984375 140.355469 94.183594 140.355469 C 96.382812 140.355469 98.578125 140.433594 100.765625 140.582031 C 102.957031 140.734375 105.128906 140.960938 107.285156 141.261719 C 109.441406 141.5625 111.574219 141.9375 113.675781 142.386719 C 115.78125 142.835938 117.851562 143.355469 119.882812 143.945312 C 121.914062 144.535156 123.898438 145.195312 125.839844 145.921875 C 127.777344 146.648438 129.664062 147.441406 131.492188 148.300781 C 133.320312 149.160156 135.085938 150.078125 136.785156 151.054688 C 138.484375 152.035156 140.113281 153.070312 141.667969 154.164062 C 143.222656 155.253906 144.695312 156.398438 146.09375 157.589844 C 147.488281 158.785156 148.796875 160.023438 150.019531 161.304688 C 151.238281 162.589844 152.367188 163.914062 153.40625 165.273438 C 154.441406 166.636719 155.382812 168.03125 156.222656 169.457031 C 157.066406 170.882812 157.804688 172.332031 158.441406 173.8125 C 159.082031 175.289062 159.613281 176.785156 160.042969 178.296875 C 160.472656 179.8125 160.796875 181.339844 161.011719 182.875 C 161.226562 184.410156 161.335938 185.949219 161.335938 187.496094 Z M 161.335938 187.496094 " fill-opacity="1" fill-rule="nonzero"/></g><g clip-path="url(#ffd6d4d0d0)"><path fill="#ffffff" d="M 149.996094 187.625 C 149.996094 188.917969 149.90625 190.203125 149.730469 191.484375 C 149.550781 192.769531 149.28125 194.042969 148.925781 195.308594 C 148.566406 196.574219 148.125 197.824219 147.59375 199.058594 C 147.0625 200.289062 146.445312 201.503906 145.746094 202.695312 C 145.046875 203.886719 144.265625 205.050781 143.402344 206.1875 C 142.539062 207.324219 141.601562 208.429688 140.582031 209.503906 C 139.566406 210.574219 138.480469 211.609375 137.316406 212.605469 C 136.15625 213.601562 134.929688 214.558594 133.636719 215.46875 C 132.34375 216.382812 130.988281 217.246094 129.574219 218.0625 C 128.160156 218.882812 126.695312 219.648438 125.171875 220.367188 C 123.652344 221.082031 122.082031 221.746094 120.46875 222.351562 C 118.855469 222.960938 117.207031 223.511719 115.515625 224.003906 C 113.824219 224.496094 112.105469 224.933594 110.355469 225.304688 C 108.601562 225.679688 106.832031 225.992188 105.035156 226.246094 C 103.242188 226.496094 101.433594 226.6875 99.613281 226.8125 C 97.792969 226.9375 95.96875 227 94.136719 227 C 92.308594 227 90.484375 226.9375 88.664062 226.8125 C 86.84375 226.6875 85.035156 226.496094 83.242188 226.246094 C 81.445312 225.992188 79.675781 225.679688 77.921875 225.304688 C 76.171875 224.933594 74.453125 224.496094 72.761719 224.003906 C 71.070312 223.511719 69.421875 222.960938 67.808594 222.351562 C 66.191406 221.746094 64.625 221.082031 63.105469 220.367188 C 61.582031 219.648438 60.117188 218.882812 58.703125 218.0625 C 57.289062 217.246094 55.933594 216.382812 54.640625 215.46875 C 53.347656 214.558594 52.121094 213.601562 50.957031 212.605469 C 49.796875 211.609375 48.710938 210.574219 47.691406 209.503906 C 46.675781 208.429688 45.738281 207.324219 44.875 206.1875 C 44.011719 205.050781 43.230469 203.886719 42.53125 202.695312 C 41.832031 201.503906 41.214844 200.289062 40.683594 199.058594 C 40.152344 197.824219 39.710938 196.574219 39.351562 195.308594 C 38.996094 194.042969 38.726562 192.769531 38.546875 191.484375 C 38.367188 190.203125 38.277344 188.917969 38.277344 187.625 C 38.277344 186.335938 38.367188 185.050781 38.546875 183.765625 C 38.726562 182.484375 38.996094 181.210938 39.351562 179.945312 C 39.710938 178.679688 40.152344 177.429688 40.683594 176.195312 C 41.214844 174.960938 41.832031 173.75 42.53125 172.558594 C 43.230469 171.367188 44.011719 170.203125 44.875 169.066406 C 45.738281 167.929688 46.675781 166.824219 47.691406 165.75 C 48.710938 164.679688 49.796875 163.644531 50.957031 162.648438 C 52.121094 161.652344 53.347656 160.695312 54.640625 159.785156 C 55.933594 158.871094 57.289062 158.007812 58.703125 157.1875 C 60.117188 156.371094 61.582031 155.605469 63.105469 154.886719 C 64.625 154.171875 66.191406 153.507812 67.808594 152.902344 C 69.421875 152.292969 71.070312 151.742188 72.761719 151.25 C 74.453125 150.753906 76.171875 150.320312 77.921875 149.945312 C 79.675781 149.574219 81.445312 149.261719 83.242188 149.007812 C 85.035156 148.757812 86.84375 148.566406 88.664062 148.441406 C 90.484375 148.316406 92.308594 148.25 94.136719 148.25 C 95.96875 148.25 97.792969 148.316406 99.613281 148.441406 C 101.433594 148.566406 103.242188 148.757812 105.035156 149.007812 C 106.832031 149.261719 108.601562 149.574219 110.355469 149.945312 C 112.105469 150.320312 113.824219 150.753906 115.515625 151.25 C 117.207031 151.742188 118.855469 152.292969 120.46875 152.902344 C 122.082031 153.507812 123.652344 154.171875 125.171875 154.886719 C 126.695312 155.605469 128.160156 156.371094 129.574219 157.1875 C 130.988281 158.007812 132.34375 158.871094 133.636719 159.785156 C 134.929688 160.695312 136.15625 161.652344 137.316406 162.648438 C 138.480469 163.644531 139.566406 164.679688 140.582031 165.75 C 141.601562 166.824219 142.539062 167.929688 143.402344 169.066406 C 144.265625 170.203125 145.046875 171.367188 145.746094 172.558594 C 146.445312 173.75 147.0625 174.960938 147.59375 176.195312 C 148.125 177.429688 148.566406 178.679688 148.925781 179.945312 C 149.28125 181.210938 149.550781 182.484375 149.730469 183.765625 C 149.90625 185.050781 149.996094 186.335938 149.996094 187.625 Z M 149.996094 187.625 " fill-opacity="1" fill-rule="nonzero"/></g><g transform="matrix(1, 0, 0, 1, 154, 119)"><g clip-path="url(#23a2eb5fd7)"><g clip-path="url(#1e82495526)"><path fill="#000000" d="M 193.949219 68.492188 C 193.949219 69.601562 193.910156 70.710938 193.832031 71.820312 C 193.753906 72.929688 193.636719 74.035156 193.484375 75.140625 C 193.328125 76.242188 193.132812 77.34375 192.902344 78.441406 C 192.671875 79.539062 192.402344 80.632812 192.09375 81.722656 C 191.785156 82.8125 191.4375 83.894531 191.054688 84.96875 C 190.667969 86.046875 190.246094 87.117188 189.789062 88.179688 C 189.328125 89.238281 188.835938 90.292969 188.300781 91.339844 C 187.769531 92.382812 187.199219 93.417969 186.59375 94.445312 C 185.988281 95.46875 185.347656 96.484375 184.671875 97.488281 C 183.996094 98.488281 183.289062 99.480469 182.542969 100.460938 C 181.796875 101.4375 181.019531 102.402344 180.203125 103.355469 C 179.390625 104.308594 178.546875 105.246094 177.667969 106.167969 C 176.789062 107.089844 175.878906 107.996094 174.9375 108.890625 C 173.996094 109.78125 173.023438 110.65625 172.019531 111.511719 C 171.019531 112.371094 169.984375 113.210938 168.925781 114.03125 C 167.863281 114.855469 166.773438 115.660156 165.65625 116.445312 C 164.535156 117.226562 163.390625 117.992188 162.222656 118.738281 C 161.050781 119.484375 159.851562 120.207031 158.628906 120.914062 C 157.410156 121.617188 156.164062 122.300781 154.894531 122.960938 C 153.625 123.621094 152.332031 124.261719 151.015625 124.878906 C 149.703125 125.492188 148.367188 126.085938 147.011719 126.65625 C 145.65625 127.226562 144.28125 127.773438 142.886719 128.296875 C 141.492188 128.820312 140.078125 129.320312 138.648438 129.796875 C 137.222656 130.269531 135.777344 130.71875 134.316406 131.144531 C 132.855469 131.570312 131.378906 131.96875 129.890625 132.339844 C 128.402344 132.714844 126.902344 133.0625 125.390625 133.386719 C 123.878906 133.707031 122.355469 134.003906 120.820312 134.273438 C 119.285156 134.542969 117.746094 134.785156 116.195312 135.003906 C 114.644531 135.21875 113.085938 135.410156 111.523438 135.570312 C 109.957031 135.734375 108.390625 135.871094 106.816406 135.980469 C 105.242188 136.089844 103.667969 136.167969 102.089844 136.222656 C 100.507812 136.277344 98.929688 136.304688 97.347656 136.304688 C 95.769531 136.304688 94.1875 136.277344 92.609375 136.222656 C 91.03125 136.167969 89.453125 136.089844 87.878906 135.980469 C 86.308594 135.871094 84.738281 135.734375 83.175781 135.570312 C 81.609375 135.410156 80.054688 135.21875 78.503906 135.003906 C 76.953125 134.785156 75.410156 134.542969 73.875 134.273438 C 72.34375 134.003906 70.820312 133.707031 69.308594 133.386719 C 67.792969 133.0625 66.292969 132.714844 64.804688 132.339844 C 63.316406 131.96875 61.84375 131.570312 60.382812 131.144531 C 58.921875 130.71875 57.476562 130.269531 56.046875 129.792969 C 54.617188 129.320312 53.207031 128.820312 51.8125 128.296875 C 50.417969 127.773438 49.042969 127.226562 47.6875 126.65625 C 46.332031 126.085938 44.996094 125.492188 43.679688 124.878906 C 42.367188 124.261719 41.074219 123.621094 39.804688 122.960938 C 38.535156 122.300781 37.289062 121.617188 36.066406 120.914062 C 34.84375 120.207031 33.648438 119.484375 32.476562 118.738281 C 31.304688 117.992188 30.160156 117.226562 29.042969 116.445312 C 27.925781 115.660156 26.835938 114.855469 25.773438 114.03125 C 24.710938 113.210938 23.679688 112.371094 22.675781 111.511719 C 21.671875 110.65625 20.699219 109.78125 19.757812 108.890625 C 18.816406 107.996094 17.90625 107.089844 17.027344 106.167969 C 16.152344 105.246094 15.304688 104.308594 14.492188 103.355469 C 13.679688 102.402344 12.898438 101.4375 12.15625 100.460938 C 11.410156 99.480469 10.699219 98.488281 10.023438 97.488281 C 9.347656 96.484375 8.707031 95.46875 8.101562 94.445312 C 7.496094 93.417969 6.929688 92.382812 6.394531 91.339844 C 5.863281 90.292969 5.367188 89.238281 4.910156 88.179688 C 4.449219 87.117188 4.027344 86.046875 3.644531 84.96875 C 3.257812 83.894531 2.914062 82.8125 2.605469 81.722656 C 2.296875 80.632812 2.027344 79.539062 1.792969 78.441406 C 1.5625 77.34375 1.367188 76.242188 1.214844 75.140625 C 1.058594 74.035156 0.941406 72.929688 0.863281 71.820312 C 0.789062 70.710938 0.75 69.601562 0.75 68.492188 C 0.75 67.382812 0.789062 66.273438 0.863281 65.164062 C 0.941406 64.058594 1.058594 62.949219 1.214844 61.847656 C 1.367188 60.742188 1.5625 59.640625 1.792969 58.542969 C 2.027344 57.445312 2.296875 56.351562 2.605469 55.261719 C 2.914062 54.175781 3.257812 53.09375 3.644531 52.015625 C 4.027344 50.9375 4.449219 49.871094 4.910156 48.808594 C 5.367188 47.746094 5.863281 46.691406 6.394531 45.648438 C 6.929688 44.601562 7.496094 43.566406 8.101562 42.542969 C 8.707031 41.515625 9.347656 40.503906 10.023438 39.5 C 10.699219 38.496094 11.410156 37.503906 12.15625 36.527344 C 12.898438 35.546875 13.679688 34.582031 14.492188 33.628906 C 15.304688 32.679688 16.152344 31.742188 17.027344 30.816406 C 17.90625 29.894531 18.816406 28.988281 19.757812 28.097656 C 20.699219 27.203125 21.671875 26.332031 22.675781 25.472656 C 23.679688 24.613281 24.710938 23.773438 25.773438 22.953125 C 26.835938 22.128906 27.925781 21.328125 29.042969 20.542969 C 30.160156 19.757812 31.304688 18.992188 32.476562 18.246094 C 33.648438 17.5 34.84375 16.777344 36.066406 16.074219 C 37.289062 15.367188 38.535156 14.6875 39.804688 14.023438 C 41.074219 13.363281 42.367188 12.726562 43.679688 12.109375 C 44.996094 11.492188 46.332031 10.898438 47.6875 10.328125 C 49.042969 9.757812 50.417969 9.210938 51.8125 8.6875 C 53.207031 8.164062 54.617188 7.664062 56.046875 7.191406 C 57.476562 6.714844 58.921875 6.265625 60.382812 5.839844 C 61.84375 5.417969 63.316406 5.019531 64.804688 4.644531 C 66.292969 4.269531 67.792969 3.921875 69.308594 3.601562 C 70.820312 3.277344 72.34375 2.980469 73.875 2.710938 C 75.410156 2.441406 76.953125 2.199219 78.503906 1.984375 C 80.054688 1.765625 81.609375 1.578125 83.175781 1.414062 C 84.738281 1.25 86.308594 1.113281 87.878906 1.007812 C 89.453125 0.898438 91.03125 0.816406 92.609375 0.761719 C 94.1875 0.707031 95.769531 0.679688 97.347656 0.679688 C 98.929688 0.679688 100.507812 0.707031 102.089844 0.761719 C 103.667969 0.816406 105.242188 0.898438 106.816406 1.007812 C 108.390625 1.113281 109.957031 1.25 111.523438 1.414062 C 113.085938 1.578125 114.644531 1.765625 116.195312 1.984375 C 117.746094 2.199219 119.285156 2.441406 120.820312 2.710938 C 122.355469 2.980469 123.878906 3.277344 125.390625 3.601562 C 126.902344 3.921875 128.402344 4.269531 129.890625 4.644531 C 131.378906 5.019531 132.855469 5.417969 134.316406 5.839844 C 135.777344 6.265625 137.222656 6.714844 138.648438 7.191406 C 140.078125 7.664062 141.492188 8.164062 142.886719 8.6875 C 144.28125 9.210938 145.65625 9.757812 147.011719 10.328125 C 148.367188 10.898438 149.703125 11.492188 151.015625 12.109375 C 152.332031 12.726562 153.625 13.363281 154.894531 14.023438 C 156.164062 14.6875 157.410156 15.367188 158.628906 16.074219 C 159.851562 16.777344 161.050781 17.5 162.222656 18.246094 C 163.390625 18.992188 164.535156 19.757812 165.65625 20.542969 C 166.773438 21.328125 167.863281 22.128906 168.925781 22.953125 C 169.984375 23.773438 171.019531 24.613281 172.019531 25.472656 C 173.023438 26.332031 173.996094 27.203125 174.9375 28.097656 C 175.878906 28.988281 176.789062 29.894531 177.667969 30.816406 C 178.546875 31.742188 179.390625 32.679688 180.203125 33.628906 C 181.019531 34.582031 181.796875 35.546875 182.542969 36.527344 C 183.289062 37.503906 183.996094 38.496094 184.671875 39.5 C 185.347656 40.503906 185.988281 41.515625 186.59375 42.542969 C 187.199219 43.566406 187.769531 44.601562 188.300781 45.648438 C 188.835938 46.691406 189.328125 47.746094 189.789062 48.808594 C 190.246094 49.871094 190.667969 50.9375 191.054688 52.015625 C 191.4375 53.09375 191.785156 54.175781 192.09375 55.261719 C 192.402344 56.351562 192.671875 57.445312 192.902344 58.542969 C 193.132812 59.640625 193.328125 60.742188 193.484375 61.847656 C 193.636719 62.949219 193.753906 64.058594 193.832031 65.164062 C 193.910156 66.273438 193.949219 67.382812 193.949219 68.492188 Z M 193.949219 68.492188 " fill-opacity="1" fill-rule="nonzero"/></g><g clip-path="url(#fb93917675)"><path fill="#ffffff" d="M 177.640625 68.683594 C 177.640625 69.609375 177.605469 70.535156 177.542969 71.460938 C 177.476562 72.386719 177.382812 73.3125 177.253906 74.234375 C 177.125 75.15625 176.960938 76.078125 176.769531 76.992188 C 176.578125 77.910156 176.351562 78.824219 176.09375 79.734375 C 175.839844 80.640625 175.550781 81.546875 175.230469 82.445312 C 174.910156 83.34375 174.5625 84.238281 174.179688 85.125 C 173.796875 86.011719 173.386719 86.890625 172.941406 87.765625 C 172.5 88.636719 172.027344 89.503906 171.523438 90.359375 C 171.019531 91.214844 170.488281 92.0625 169.925781 92.902344 C 169.363281 93.738281 168.769531 94.566406 168.152344 95.382812 C 167.53125 96.203125 166.882812 97.007812 166.207031 97.804688 C 165.53125 98.597656 164.828125 99.382812 164.097656 100.152344 C 163.367188 100.921875 162.609375 101.679688 161.824219 102.425781 C 161.042969 103.167969 160.234375 103.902344 159.398438 104.617188 C 158.566406 105.332031 157.707031 106.035156 156.824219 106.722656 C 155.941406 107.410156 155.03125 108.082031 154.101562 108.734375 C 153.171875 109.390625 152.222656 110.03125 151.246094 110.652344 C 150.273438 111.277344 149.277344 111.878906 148.261719 112.46875 C 147.242188 113.058594 146.207031 113.628906 145.152344 114.179688 C 144.09375 114.730469 143.019531 115.265625 141.925781 115.78125 C 140.832031 116.296875 139.722656 116.792969 138.59375 117.269531 C 137.464844 117.746094 136.320312 118.199219 135.160156 118.636719 C 134 119.074219 132.828125 119.492188 131.640625 119.886719 C 130.449219 120.285156 129.246094 120.660156 128.03125 121.015625 C 126.816406 121.371094 125.589844 121.703125 124.351562 122.015625 C 123.113281 122.328125 121.867188 122.617188 120.609375 122.886719 C 119.347656 123.15625 118.082031 123.402344 116.804688 123.628906 C 115.53125 123.855469 114.25 124.058594 112.957031 124.238281 C 111.667969 124.417969 110.371094 124.578125 109.070312 124.714844 C 107.769531 124.847656 106.464844 124.964844 105.15625 125.054688 C 103.847656 125.144531 102.539062 125.210938 101.222656 125.257812 C 99.910156 125.304688 98.597656 125.328125 97.28125 125.328125 C 95.964844 125.328125 94.652344 125.304688 93.339844 125.257812 C 92.023438 125.210938 90.714844 125.144531 89.40625 125.054688 C 88.097656 124.964844 86.789062 124.847656 85.488281 124.714844 C 84.1875 124.578125 82.894531 124.417969 81.605469 124.238281 C 80.3125 124.058594 79.03125 123.855469 77.753906 123.628906 C 76.480469 123.402344 75.210938 123.15625 73.953125 122.886719 C 72.695312 122.617188 71.449219 122.328125 70.210938 122.015625 C 68.972656 121.703125 67.746094 121.371094 66.527344 121.015625 C 65.3125 120.660156 64.113281 120.285156 62.921875 119.886719 C 61.734375 119.492188 60.558594 119.074219 59.402344 118.636719 C 58.242188 118.199219 57.097656 117.746094 55.96875 117.269531 C 54.839844 116.792969 53.730469 116.296875 52.636719 115.78125 C 51.542969 115.265625 50.46875 114.730469 49.410156 114.179688 C 48.355469 113.628906 47.320312 113.058594 46.300781 112.46875 C 45.285156 111.878906 44.289062 111.277344 43.316406 110.652344 C 42.339844 110.03125 41.390625 109.390625 40.460938 108.734375 C 39.527344 108.082031 38.621094 107.410156 37.738281 106.722656 C 36.855469 106.035156 35.996094 105.332031 35.164062 104.617188 C 34.328125 103.902344 33.519531 103.167969 32.738281 102.425781 C 31.953125 101.679688 31.195312 100.921875 30.464844 100.152344 C 29.734375 99.382812 29.03125 98.597656 28.355469 97.804688 C 27.679688 97.007812 27.03125 96.203125 26.410156 95.382812 C 25.792969 94.566406 25.199219 93.738281 24.636719 92.902344 C 24.074219 92.0625 23.542969 91.214844 23.039062 90.359375 C 22.535156 89.503906 22.0625 88.636719 21.621094 87.765625 C 21.175781 86.890625 20.765625 86.011719 20.382812 85.125 C 20 84.238281 19.652344 83.34375 19.332031 82.445312 C 19.011719 81.546875 18.722656 80.640625 18.464844 79.734375 C 18.210938 78.824219 17.984375 77.910156 17.792969 76.992188 C 17.597656 76.078125 17.4375 75.15625 17.308594 74.234375 C 17.179688 73.3125 17.085938 72.386719 17.019531 71.460938 C 16.953125 70.535156 16.921875 69.609375 16.921875 68.683594 C 16.921875 67.753906 16.953125 66.828125 17.019531 65.902344 C 17.085938 64.976562 17.179688 64.050781 17.308594 63.128906 C 17.4375 62.207031 17.597656 61.289062 17.792969 60.371094 C 17.984375 59.453125 18.210938 58.539062 18.464844 57.632812 C 18.722656 56.722656 19.011719 55.816406 19.332031 54.917969 C 19.652344 54.019531 20 53.125 20.382812 52.238281 C 20.765625 51.351562 21.175781 50.472656 21.621094 49.597656 C 22.0625 48.726562 22.535156 47.863281 23.039062 47.003906 C 23.542969 46.148438 24.074219 45.300781 24.636719 44.464844 C 25.199219 43.625 25.792969 42.796875 26.410156 41.980469 C 27.03125 41.164062 27.679688 40.355469 28.355469 39.5625 C 29.03125 38.765625 29.734375 37.984375 30.464844 37.210938 C 31.195312 36.441406 31.953125 35.683594 32.738281 34.9375 C 33.519531 34.195312 34.328125 33.464844 35.164062 32.746094 C 35.996094 32.03125 36.855469 31.328125 37.738281 30.640625 C 38.621094 29.957031 39.527344 29.285156 40.460938 28.628906 C 41.390625 27.972656 42.339844 27.335938 43.316406 26.710938 C 44.289062 26.089844 45.285156 25.484375 46.300781 24.894531 C 47.320312 24.308594 48.355469 23.738281 49.410156 23.183594 C 50.46875 22.632812 51.542969 22.097656 52.636719 21.585938 C 53.730469 21.070312 54.839844 20.574219 55.96875 20.097656 C 57.097656 19.621094 58.242188 19.164062 59.402344 18.726562 C 60.558594 18.289062 61.734375 17.871094 62.921875 17.476562 C 64.113281 17.078125 65.3125 16.703125 66.527344 16.351562 C 67.746094 15.996094 68.972656 15.660156 70.210938 15.347656 C 71.449219 15.035156 72.695312 14.746094 73.953125 14.476562 C 75.210938 14.207031 76.480469 13.960938 77.753906 13.734375 C 79.03125 13.511719 80.3125 13.308594 81.605469 13.125 C 82.894531 12.945312 84.1875 12.785156 85.488281 12.652344 C 86.789062 12.515625 88.097656 12.402344 89.40625 12.3125 C 90.714844 12.21875 92.023438 12.152344 93.339844 12.105469 C 94.652344 12.0625 95.964844 12.039062 97.28125 12.039062 C 98.597656 12.039062 99.910156 12.0625 101.222656 12.105469 C 102.539062 12.152344 103.847656 12.21875 105.15625 12.3125 C 106.464844 12.402344 107.769531 12.515625 109.070312 12.652344 C 110.371094 12.785156 111.667969 12.945312 112.957031 13.125 C 114.25 13.308594 115.53125 13.511719 116.804688 13.734375 C 118.082031 13.960938 119.347656 14.207031 120.609375 14.476562 C 121.867188 14.746094 123.113281 15.035156 124.351562 15.347656 C 125.589844 15.660156 126.816406 15.996094 128.03125 16.351562 C 129.246094 16.703125 130.449219 17.078125 131.640625 17.476562 C 132.828125 17.871094 134 18.289062 135.160156 18.726562 C 136.320312 19.164062 137.464844 19.621094 138.59375 20.097656 C 139.722656 20.574219 140.832031 21.070312 141.925781 21.585938 C 143.019531 22.097656 144.09375 22.632812 145.152344 23.183594 C 146.207031 23.738281 147.242188 24.308594 148.261719 24.894531 C 149.277344 25.484375 150.273438 26.089844 151.246094 26.710938 C 152.222656 27.335938 153.171875 27.972656 154.101562 28.628906 C 155.03125 29.285156 155.941406 29.957031 156.824219 30.640625 C 157.707031 31.328125 158.566406 32.03125 159.398438 32.746094 C 160.234375 33.464844 161.042969 34.195312 161.824219 34.9375 C 162.609375 35.683594 163.367188 36.441406 164.097656 37.210938 C 164.828125 37.984375 165.53125 38.765625 166.207031 39.5625 C 166.882812 40.355469 167.53125 41.164062 168.152344 41.980469 C 168.769531 42.796875 169.363281 43.625 169.925781 44.464844 C 170.488281 45.300781 171.019531 46.148438 171.523438 47.003906 C 172.027344 47.863281 172.5 48.726562 172.941406 49.597656 C 173.386719 50.472656 173.796875 51.351562 174.179688 52.238281 C 174.5625 53.125 174.910156 54.019531 175.230469 54.917969 C 175.550781 55.816406 175.839844 56.722656 176.09375 57.632812 C 176.351562 58.539062 176.578125 59.453125 176.769531 60.371094 C 176.960938 61.289062 177.125 62.207031 177.253906 63.128906 C 177.382812 64.050781 177.476562 64.976562 177.542969 65.902344 C 177.605469 66.828125 177.640625 67.753906 177.640625 68.683594 Z M 177.640625 68.683594 " fill-opacity="1" fill-rule="nonzero"/></g></g></g></svg>