<svg xmlns="http://www.w3.org/2000/svg" xmlns:xlink="http://www.w3.org/1999/xlink" width="500" zoomAndPan="magnify" viewBox="0 0 375 374.999991" height="500" preserveAspectRatio="xMidYMid meet" version="1.0"><defs><clipPath id="cf94986648"><path d="M 23 68 L 308 68 L 308 196 L 23 196 Z M 23 68 " clip-rule="nonzero"/></clipPath><clipPath id="4a1fe4ca22"><path d="M 40.007812 212.71875 L 23.253906 116.671875 L 298.101562 68.71875 L 314.855469 164.769531 Z M 40.007812 212.71875 " clip-rule="nonzero"/></clipPath><clipPath id="9a79ef74bf"><path d="M 39.808594 212.753906 L 23.050781 116.707031 L 297.898438 68.753906 L 314.65625 164.804688 Z M 39.808594 212.753906 " clip-rule="nonzero"/></clipPath><clipPath id="62925039b5"><path d="M -36.316406 226.035156 L -61.835938 79.746094 L 289.113281 18.519531 L 314.632812 164.808594 Z M -36.316406 226.035156 " clip-rule="nonzero"/></clipPath><clipPath id="ac501c9b12"><path d="M 14 129 L 310 129 L 310 307 L 14 307 Z M 14 129 " clip-rule="nonzero"/></clipPath><clipPath id="cc3c0dd1cd"><path d="M 14.773438 217.699219 L 44.183594 129.472656 L 309.578125 217.945312 L 280.164062 306.171875 Z M 14.773438 217.699219 " clip-rule="nonzero"/></clipPath><clipPath id="760816239b"><path d="M 0.640625 8 L 285 8 L 285 177.238281 L 0.640625 177.238281 Z M 0.640625 8 " clip-rule="nonzero"/></clipPath><clipPath id="0d7900bcbe"><path d="M 0.773438 88.699219 L 30.183594 0.472656 L 295.578125 88.945312 L 266.164062 177.171875 Z M 0.773438 88.699219 " clip-rule="nonzero"/></clipPath><clipPath id="09090e59eb"><path d="M -42.269531 -23.535156 L -89.234375 117.34375 L 248.730469 230.011719 L 295.695312 89.132812 Z M -42.269531 -23.535156 " clip-rule="nonzero"/></clipPath><clipPath id="574826b4fe"><path d="M -42.269531 -23.535156 L -89.234375 117.34375 L 248.730469 230.011719 L 295.695312 89.132812 Z M -42.269531 -23.535156 " clip-rule="nonzero"/></clipPath><clipPath id="22401e516b"><rect x="0" width="296" y="0" height="178"/></clipPath></defs><rect x="-37.5" width="450" fill="#ffffff" y="-37.499999" height="449.999989" fill-opacity="1"/><rect x="-37.5" width="450" fill="#ffffff" y="-37.499999" height="449.999989" fill-opacity="1"/><g clip-path="url(#cf94986648)"><g clip-path="url(#4a1fe4ca22)"><g clip-path="url(#9a79ef74bf)"><g clip-path="url(#62925039b5)"><path fill="#000000" d="M 89.671875 188.5 C 82.242188 187.09375 77.886719 182.753906 76.613281 175.488281 L 76.230469 173.292969 C 75.671875 165.019531 80.039062 160.800781 89.335938 160.636719 C 102.640625 161.007812 118.445312 161.109375 136.746094 160.941406 C 155.050781 160.773438 173.554688 160.101562 192.265625 158.929688 C 220.21875 157.378906 245.292969 154.640625 267.480469 150.71875 C 289.667969 146.796875 300.960938 140.929688 301.359375 133.113281 C 302.0625 125.164062 299.199219 117.410156 292.777344 109.84375 C 286.351562 102.28125 277.902344 95.203125 267.425781 88.609375 C 251.300781 78.238281 234.203125 69.832031 216.140625 63.386719 C 197.28125 56.796875 182.417969 52.5 171.550781 50.496094 C 170.609375 48.761719 169.96875 46.921875 169.628906 44.980469 C 169.289062 43.183594 169.296875 41.386719 169.648438 39.59375 C 177.789062 41.5 187.070312 43.933594 197.488281 46.902344 C 208.441406 49.894531 219.160156 53.566406 229.644531 57.914062 C 249.382812 65.949219 267.742188 76.398438 284.726562 89.253906 C 297.578125 99.035156 305.042969 110.03125 307.121094 122.25 C 307.742188 125.78125 307.917969 129.339844 307.65625 132.917969 C 307.421875 135.765625 306.761719 138.511719 305.679688 141.15625 C 304.59375 143.800781 303.136719 146.21875 301.300781 148.414062 C 297.03125 153.410156 292.050781 157.554688 286.359375 160.84375 C 274.898438 167.402344 260.039062 172.71875 241.785156 176.785156 C 236.28125 178.058594 230.46875 179.226562 224.351562 180.296875 C 211.515625 182.535156 198.144531 184.269531 184.238281 185.5 C 167.660156 186.890625 151.167969 187.816406 134.761719 188.28125 C 118.355469 188.742188 103.328125 188.816406 89.671875 188.5 Z M -18.730469 160.296875 C -12.605469 160.738281 -8.003906 162.921875 -4.921875 166.855469 C -2.332031 169.730469 -0.917969 172.628906 -0.675781 175.554688 C -0.417969 177.035156 -0.3125 178.523438 -0.359375 180.027344 C -0.753906 184.621094 -3.105469 188.335938 -7.40625 191.164062 C -10.464844 192.894531 -13.726562 194.042969 -17.191406 194.617188 C -18.953125 194.917969 -20.726562 195.070312 -22.511719 195.074219 C -25.261719 195.078125 -27.941406 194.648438 -30.554688 193.792969 C -33.167969 192.9375 -35.582031 191.695312 -37.796875 190.066406 C -39.40625 189.125 -40.746094 187.886719 -41.8125 186.355469 C -42.878906 184.824219 -43.574219 183.136719 -43.898438 181.300781 C -44.429688 179.839844 -44.53125 178.347656 -44.207031 176.828125 C -43.644531 171.324219 -40.789062 167.082031 -35.648438 164.101562 C -32.589844 162.375 -29.324219 161.21875 -25.855469 160.636719 C -23.515625 160.265625 -21.160156 160.171875 -18.796875 160.363281 Z M -18.730469 160.296875 " fill-opacity="1" fill-rule="nonzero"/></g></g></g></g><g clip-path="url(#ac501c9b12)"><g clip-path="url(#cc3c0dd1cd)"><g transform="matrix(1, 0, 0, 1, 14, 129)"><g clip-path="url(#22401e516b)"><g clip-path="url(#760816239b)"><g clip-path="url(#0d7900bcbe)"><g clip-path="url(#09090e59eb)"><g clip-path="url(#574826b4fe)"><path fill="#000000" d="M 76.746094 32.292969 C 69.1875 32.582031 64.238281 36.226562 61.902344 43.222656 L 61.195312 45.339844 C 59.414062 53.4375 63.109375 58.257812 72.277344 59.800781 C 85.488281 61.410156 101.132812 63.65625 119.207031 66.539062 C 137.28125 69.421875 155.480469 72.835938 173.808594 76.773438 C 201.226562 82.460938 225.613281 88.890625 246.972656 96.0625 C 268.332031 103.238281 278.628906 110.71875 277.863281 118.503906 C 277.375 126.46875 273.394531 133.714844 265.917969 140.238281 C 258.441406 146.765625 249.03125 152.511719 237.695312 157.476562 C 220.207031 165.335938 202.050781 171.113281 183.230469 174.800781 C 163.601562 178.515625 148.265625 180.558594 137.222656 180.929688 C 136.03125 182.503906 135.125 184.226562 134.5 186.097656 C 133.898438 187.824219 133.640625 189.601562 133.722656 191.425781 C 142.054688 190.75 151.59375 189.722656 162.339844 188.335938 C 173.613281 187.003906 184.757812 184.964844 195.773438 182.21875 C 216.484375 177.203125 236.195312 169.597656 254.898438 159.40625 C 269.058594 151.644531 278.074219 141.875 281.945312 130.105469 C 283.082031 126.703125 283.789062 123.210938 284.058594 119.632812 C 284.25 116.78125 284.007812 113.96875 283.328125 111.191406 C 282.648438 108.417969 281.5625 105.804688 280.074219 103.363281 C 276.597656 97.789062 272.285156 92.953125 267.144531 88.851562 C 256.785156 80.664062 242.878906 73.203125 225.429688 66.472656 C 220.175781 64.394531 214.605469 62.375 208.714844 60.410156 C 196.355469 56.289062 183.386719 52.585938 169.816406 49.304688 C 153.628906 45.46875 137.457031 42.105469 121.304688 39.207031 C 105.148438 36.3125 90.296875 34.007812 76.746094 32.292969 Z M -34.644531 44.089844 C -28.523438 44.5625 -23.644531 43.082031 -20.015625 39.652344 C -17.027344 37.195312 -15.195312 34.539062 -14.523438 31.679688 C -14.046875 30.253906 -13.722656 28.796875 -13.542969 27.304688 C -13.253906 22.699219 -15.027344 18.679688 -18.863281 15.242188 C -21.628906 13.078125 -24.683594 11.457031 -28.023438 10.375 C -29.722656 9.820312 -31.453125 9.40625 -33.214844 9.132812 C -35.9375 8.722656 -38.652344 8.746094 -41.363281 9.207031 C -44.074219 9.664062 -46.644531 10.535156 -49.074219 11.816406 C -50.808594 12.507812 -52.320312 13.53125 -53.601562 14.890625 C -54.882812 16.246094 -55.820312 17.808594 -56.414062 19.578125 C -57.152344 20.945312 -57.476562 22.40625 -57.382812 23.957031 C -57.640625 29.480469 -55.449219 34.101562 -50.808594 37.8125 C -48.039062 39.976562 -44.984375 41.601562 -41.640625 42.691406 C -39.378906 43.410156 -37.0625 43.847656 -34.695312 44.011719 Z M -34.644531 44.089844 " fill-opacity="1" fill-rule="nonzero"/></g></g></g></g></g></g></g></g><path stroke-linecap="butt" transform="matrix(0.000000001309, -0.75, 0.75, 0.000000001309, 168.948817, 275.484356)" fill="none" stroke-linejoin="miter" d="M -0.0000249019 10.500537 L 234.630199 10.500536 " stroke="#000000" stroke-width="21" stroke-opacity="1" stroke-miterlimit="4"/></svg>