<svg xmlns="http://www.w3.org/2000/svg" xmlns:xlink="http://www.w3.org/1999/xlink" width="500" zoomAndPan="magnify" viewBox="0 0 375 374.999991" height="500" preserveAspectRatio="xMidYMid meet" version="1.0"><defs><clipPath id="61976abe1d"><path d="M 124 124.5 L 245.078125 124.5 L 245.078125 168.664062 L 124 168.664062 Z M 124 124.5 " clip-rule="nonzero"/></clipPath><clipPath id="fb8be64808"><path d="M 123.578125 206.664062 L 245.078125 206.664062 L 245.078125 250.914062 L 123.578125 250.914062 Z M 123.578125 206.664062 " clip-rule="nonzero"/></clipPath><clipPath id="23713d4091"><path d="M 1 0.664062 L 122.078125 0.664062 L 122.078125 44.5 L 1 44.5 Z M 1 0.664062 " clip-rule="nonzero"/></clipPath><clipPath id="1816047631"><rect x="0" width="123" y="0" height="45"/></clipPath></defs><rect x="-37.5" width="450" fill="#ffffff" y="-37.499999" height="449.999989" fill-opacity="1"/><rect x="-37.5" width="450" fill="#ffffff" y="-37.499999" height="449.999989" fill-opacity="1"/><g clip-path="url(#61976abe1d)"><path fill="#000000" d="M 253.660156 284.429688 C 253.660156 284.710938 253.632812 284.992188 253.574219 285.269531 C 253.519531 285.550781 253.4375 285.820312 253.328125 286.082031 C 253.222656 286.34375 253.089844 286.59375 252.929688 286.828125 C 252.773438 287.066406 252.59375 287.285156 252.394531 287.484375 C 252.191406 287.683594 251.972656 287.863281 251.738281 288.023438 C 251.503906 288.179688 251.253906 288.3125 250.992188 288.421875 C 250.730469 288.53125 250.457031 288.613281 250.179688 288.667969 C 249.902344 288.722656 249.621094 288.75 249.335938 288.75 C 249.054688 288.75 248.773438 288.722656 248.492188 288.667969 C 248.214844 288.613281 247.945312 288.53125 247.683594 288.421875 C 247.421875 288.3125 247.171875 288.179688 246.9375 288.023438 C 246.699219 287.863281 246.480469 287.683594 246.28125 287.484375 C 246.082031 287.285156 245.902344 287.066406 245.742188 286.828125 C 245.585938 286.59375 245.453125 286.34375 245.34375 286.082031 C 245.234375 285.820312 245.152344 285.550781 245.097656 285.269531 C 245.042969 284.992188 245.015625 284.710938 245.015625 284.429688 L 245.015625 189.335938 C 245.015625 187.496094 244.925781 185.660156 244.746094 183.828125 C 244.5625 181.996094 244.292969 180.179688 243.933594 178.375 C 243.578125 176.570312 243.128906 174.785156 242.597656 173.023438 C 242.0625 171.261719 241.441406 169.53125 240.738281 167.832031 C 240.035156 166.132812 239.25 164.46875 238.378906 162.847656 C 237.511719 161.226562 236.570312 159.648438 235.546875 158.117188 C 234.523438 156.585938 233.429688 155.109375 232.261719 153.6875 C 231.09375 152.265625 229.859375 150.902344 228.558594 149.601562 C 227.257812 148.300781 225.894531 147.066406 224.472656 145.898438 C 223.050781 144.730469 221.574219 143.636719 220.042969 142.613281 C 218.515625 141.59375 216.9375 140.648438 215.316406 139.78125 C 213.691406 138.914062 212.03125 138.125 210.332031 137.421875 C 208.632812 136.71875 206.902344 136.097656 205.140625 135.566406 C 203.378906 135.03125 201.597656 134.582031 199.792969 134.226562 C 197.988281 133.867188 196.167969 133.597656 194.335938 133.414062 C 192.507812 133.234375 190.671875 133.144531 188.832031 133.144531 C 186.988281 133.144531 185.15625 133.234375 183.324219 133.414062 C 181.492188 133.597656 179.675781 133.867188 177.871094 134.226562 C 176.066406 134.582031 174.28125 135.03125 172.519531 135.566406 C 170.761719 136.097656 169.03125 136.71875 167.328125 137.421875 C 165.628906 138.125 163.96875 138.914062 162.34375 139.78125 C 160.722656 140.648438 159.144531 141.59375 157.617188 142.613281 C 156.085938 143.636719 154.609375 144.730469 153.1875 145.898438 C 151.765625 147.066406 150.402344 148.300781 149.101562 149.601562 C 147.800781 150.902344 146.566406 152.265625 145.398438 153.6875 C 144.230469 155.109375 143.136719 156.585938 142.113281 158.117188 C 141.09375 159.648438 140.148438 161.226562 139.28125 162.847656 C 138.414062 164.46875 137.625 166.132812 136.921875 167.832031 C 136.21875 169.53125 135.597656 171.261719 135.066406 173.023438 C 134.53125 174.785156 134.085938 176.570312 133.726562 178.375 C 133.367188 180.179688 133.097656 181.996094 132.917969 183.828125 C 132.734375 185.660156 132.644531 187.496094 132.644531 189.335938 L 132.644531 284.429688 C 132.644531 284.710938 132.617188 284.992188 132.5625 285.269531 C 132.507812 285.550781 132.425781 285.820312 132.316406 286.082031 C 132.207031 286.34375 132.074219 286.59375 131.917969 286.828125 C 131.757812 287.066406 131.582031 287.285156 131.378906 287.484375 C 131.179688 287.683594 130.960938 287.863281 130.726562 288.023438 C 130.488281 288.179688 130.238281 288.3125 129.976562 288.421875 C 129.714844 288.53125 129.445312 288.613281 129.167969 288.667969 C 128.886719 288.722656 128.609375 288.75 128.324219 288.75 C 128.039062 288.75 127.757812 288.722656 127.480469 288.667969 C 127.203125 288.613281 126.933594 288.53125 126.667969 288.421875 C 126.40625 288.3125 126.160156 288.179688 125.921875 288.023438 C 125.6875 287.863281 125.46875 287.683594 125.269531 287.484375 C 125.066406 287.285156 124.886719 287.066406 124.730469 286.828125 C 124.574219 286.59375 124.4375 286.34375 124.332031 286.082031 C 124.222656 285.820312 124.140625 285.550781 124.085938 285.269531 C 124.03125 284.992188 124 284.710938 124 284.429688 L 124 189.335938 C 124 188.273438 124.027344 187.214844 124.078125 186.15625 C 124.132812 185.09375 124.210938 184.035156 124.3125 182.980469 C 124.417969 181.925781 124.546875 180.871094 124.703125 179.824219 C 124.859375 178.773438 125.039062 177.726562 125.246094 176.6875 C 125.453125 175.644531 125.6875 174.609375 125.945312 173.582031 C 126.203125 172.554688 126.484375 171.53125 126.792969 170.515625 C 127.101562 169.5 127.433594 168.492188 127.792969 167.492188 C 128.148438 166.496094 128.53125 165.503906 128.9375 164.523438 C 129.34375 163.542969 129.773438 162.574219 130.226562 161.613281 C 130.679688 160.65625 131.15625 159.707031 131.65625 158.773438 C 132.15625 157.835938 132.679688 156.914062 133.226562 156.003906 C 133.769531 155.09375 134.339844 154.199219 134.925781 153.316406 C 135.515625 152.433594 136.128906 151.566406 136.757812 150.714844 C 137.390625 149.859375 138.042969 149.023438 138.71875 148.203125 C 139.390625 147.382812 140.082031 146.582031 140.796875 145.792969 C 141.507812 145.007812 142.238281 144.242188 142.988281 143.488281 C 143.738281 142.738281 144.507812 142.007812 145.292969 141.296875 C 146.082031 140.582031 146.882812 139.890625 147.703125 139.21875 C 148.523438 138.542969 149.359375 137.890625 150.210938 137.257812 C 151.0625 136.628906 151.929688 136.015625 152.8125 135.425781 C 153.695312 134.835938 154.589844 134.269531 155.5 133.722656 C 156.410156 133.179688 157.335938 132.65625 158.269531 132.15625 C 159.207031 131.65625 160.152344 131.179688 161.113281 130.726562 C 162.070312 130.273438 163.042969 129.839844 164.023438 129.4375 C 165 129.03125 165.992188 128.648438 166.992188 128.289062 C 167.988281 127.933594 168.996094 127.601562 170.011719 127.292969 C 171.027344 126.984375 172.050781 126.699219 173.078125 126.441406 C 174.109375 126.183594 175.140625 125.953125 176.183594 125.746094 C 177.222656 125.539062 178.269531 125.359375 179.316406 125.203125 C 180.367188 125.046875 181.421875 124.917969 182.476562 124.8125 C 183.53125 124.707031 184.589844 124.628906 185.648438 124.578125 C 186.710938 124.527344 187.769531 124.5 188.832031 124.5 C 189.890625 124.5 190.953125 124.527344 192.011719 124.578125 C 193.070312 124.628906 194.128906 124.707031 195.183594 124.8125 C 196.242188 124.917969 197.292969 125.046875 198.34375 125.203125 C 199.390625 125.359375 200.4375 125.539062 201.476562 125.746094 C 202.519531 125.953125 203.554688 126.183594 204.582031 126.441406 C 205.613281 126.699219 206.632812 126.984375 207.648438 127.292969 C 208.664062 127.601562 209.671875 127.933594 210.671875 128.289062 C 211.667969 128.648438 212.660156 129.03125 213.640625 129.4375 C 214.621094 129.839844 215.589844 130.273438 216.546875 130.726562 C 217.507812 131.179688 218.453125 131.65625 219.390625 132.15625 C 220.324219 132.65625 221.25 133.179688 222.160156 133.722656 C 223.070312 134.269531 223.964844 134.835938 224.847656 135.425781 C 225.730469 136.015625 226.597656 136.628906 227.449219 137.257812 C 228.300781 137.890625 229.136719 138.542969 229.957031 139.21875 C 230.777344 139.890625 231.582031 140.582031 232.367188 141.296875 C 233.152344 142.007812 233.921875 142.738281 234.671875 143.488281 C 235.421875 144.242188 236.152344 145.007812 236.863281 145.792969 C 237.578125 146.582031 238.269531 147.382812 238.945312 148.203125 C 239.617188 149.023438 240.269531 149.859375 240.902344 150.714844 C 241.53125 151.566406 242.144531 152.433594 242.734375 153.316406 C 243.324219 154.199219 243.890625 155.09375 244.4375 156.003906 C 244.980469 156.914062 245.503906 157.835938 246.003906 158.773438 C 246.503906 159.707031 246.980469 160.65625 247.433594 161.613281 C 247.886719 162.574219 248.316406 163.542969 248.722656 164.523438 C 249.128906 165.503906 249.511719 166.496094 249.871094 167.492188 C 250.226562 168.492188 250.558594 169.5 250.867188 170.515625 C 251.175781 171.53125 251.457031 172.554688 251.714844 173.582031 C 251.972656 174.609375 252.207031 175.644531 252.414062 176.6875 C 252.621094 177.726562 252.800781 178.773438 252.957031 179.824219 C 253.113281 180.871094 253.242188 181.925781 253.347656 182.980469 C 253.449219 184.035156 253.527344 185.09375 253.582031 186.15625 C 253.632812 187.214844 253.660156 188.273438 253.660156 189.335938 Z M 253.660156 284.429688 " fill-opacity="1" fill-rule="nonzero"/></g><g clip-path="url(#fb8be64808)"><g transform="matrix(1, 0, 0, 1, 123, 206)"><g clip-path="url(#1816047631)"><g clip-path="url(#23713d4091)"><path fill="#000000" d="M 130.660156 -115.425781 C 130.660156 -115.710938 130.632812 -115.992188 130.574219 -116.269531 C 130.519531 -116.546875 130.4375 -116.820312 130.328125 -117.082031 C 130.222656 -117.34375 130.089844 -117.59375 129.929688 -117.828125 C 129.773438 -118.066406 129.59375 -118.28125 129.394531 -118.484375 C 129.191406 -118.683594 128.972656 -118.863281 128.738281 -119.019531 C 128.503906 -119.179688 128.253906 -119.3125 127.992188 -119.421875 C 127.730469 -119.527344 127.457031 -119.609375 127.179688 -119.667969 C 126.902344 -119.722656 126.621094 -119.75 126.335938 -119.75 C 126.054688 -119.75 125.773438 -119.722656 125.492188 -119.667969 C 125.214844 -119.609375 124.945312 -119.527344 124.683594 -119.421875 C 124.421875 -119.3125 124.171875 -119.179688 123.9375 -119.019531 C 123.699219 -118.863281 123.480469 -118.683594 123.28125 -118.484375 C 123.082031 -118.28125 122.902344 -118.066406 122.742188 -117.828125 C 122.585938 -117.59375 122.453125 -117.34375 122.34375 -117.082031 C 122.234375 -116.820312 122.152344 -116.546875 122.097656 -116.269531 C 122.042969 -115.992188 122.015625 -115.710938 122.015625 -115.425781 L 122.015625 -20.335938 C 122.015625 -18.496094 121.925781 -16.660156 121.746094 -14.828125 C 121.5625 -12.996094 121.292969 -11.179688 120.933594 -9.371094 C 120.578125 -7.566406 120.128906 -5.785156 119.597656 -4.023438 C 119.0625 -2.261719 118.441406 -0.53125 117.738281 1.167969 C 117.035156 2.867188 116.25 4.53125 115.378906 6.152344 C 114.511719 7.777344 113.570312 9.351562 112.546875 10.882812 C 111.523438 12.414062 110.429688 13.890625 109.261719 15.3125 C 108.09375 16.734375 106.859375 18.097656 105.558594 19.398438 C 104.257812 20.699219 102.894531 21.933594 101.472656 23.101562 C 100.050781 24.269531 98.574219 25.363281 97.042969 26.386719 C 95.515625 27.410156 93.9375 28.351562 92.316406 29.222656 C 90.691406 30.089844 89.03125 30.875 87.332031 31.578125 C 85.632812 32.28125 83.902344 32.902344 82.140625 33.4375 C 80.378906 33.96875 78.597656 34.417969 76.792969 34.777344 C 74.988281 35.136719 73.167969 35.40625 71.335938 35.585938 C 69.507812 35.765625 67.671875 35.855469 65.832031 35.855469 C 63.988281 35.855469 62.15625 35.765625 60.324219 35.585938 C 58.492188 35.40625 56.675781 35.136719 54.871094 34.777344 C 53.066406 34.417969 51.28125 33.96875 49.519531 33.4375 C 47.761719 32.902344 46.03125 32.28125 44.328125 31.578125 C 42.628906 30.875 40.96875 30.089844 39.34375 29.222656 C 37.722656 28.351562 36.144531 27.410156 34.617188 26.386719 C 33.085938 25.363281 31.609375 24.269531 30.1875 23.101562 C 28.765625 21.933594 27.402344 20.699219 26.101562 19.398438 C 24.800781 18.097656 23.566406 16.734375 22.398438 15.3125 C 21.230469 13.890625 20.136719 12.414062 19.113281 10.882812 C 18.09375 9.351562 17.148438 7.777344 16.28125 6.152344 C 15.414062 4.53125 14.625 2.867188 13.921875 1.167969 C 13.21875 -0.53125 12.597656 -2.261719 12.066406 -4.023438 C 11.53125 -5.785156 11.085938 -7.566406 10.726562 -9.371094 C 10.367188 -11.179688 10.097656 -12.996094 9.917969 -14.828125 C 9.734375 -16.660156 9.644531 -18.496094 9.644531 -20.335938 L 9.644531 -115.425781 C 9.644531 -115.710938 9.617188 -115.992188 9.5625 -116.269531 C 9.507812 -116.546875 9.425781 -116.820312 9.316406 -117.082031 C 9.207031 -117.34375 9.074219 -117.59375 8.917969 -117.828125 C 8.757812 -118.066406 8.582031 -118.28125 8.378906 -118.484375 C 8.179688 -118.683594 7.960938 -118.863281 7.726562 -119.019531 C 7.488281 -119.179688 7.238281 -119.3125 6.976562 -119.421875 C 6.714844 -119.527344 6.445312 -119.609375 6.167969 -119.667969 C 5.886719 -119.722656 5.609375 -119.75 5.324219 -119.75 C 5.039062 -119.75 4.757812 -119.722656 4.480469 -119.667969 C 4.203125 -119.609375 3.933594 -119.527344 3.667969 -119.421875 C 3.40625 -119.3125 3.160156 -119.179688 2.921875 -119.019531 C 2.6875 -118.863281 2.46875 -118.683594 2.269531 -118.484375 C 2.066406 -118.28125 1.886719 -118.066406 1.730469 -117.828125 C 1.574219 -117.59375 1.4375 -117.34375 1.332031 -117.082031 C 1.222656 -116.820312 1.140625 -116.546875 1.085938 -116.269531 C 1.03125 -115.992188 1 -115.710938 1 -115.425781 L 1 -20.335938 C 1 -19.273438 1.027344 -18.214844 1.078125 -17.152344 C 1.132812 -16.09375 1.210938 -15.035156 1.3125 -13.980469 C 1.417969 -12.925781 1.546875 -11.871094 1.703125 -10.820312 C 1.859375 -9.773438 2.039062 -8.726562 2.246094 -7.6875 C 2.453125 -6.644531 2.6875 -5.609375 2.945312 -4.582031 C 3.203125 -3.550781 3.484375 -2.53125 3.792969 -1.515625 C 4.101562 -0.5 4.433594 0.507812 4.792969 1.507812 C 5.148438 2.507812 5.53125 3.496094 5.9375 4.476562 C 6.34375 5.457031 6.773438 6.425781 7.226562 7.386719 C 7.679688 8.34375 8.15625 9.292969 8.65625 10.226562 C 9.15625 11.164062 9.679688 12.085938 10.226562 12.996094 C 10.769531 13.90625 11.339844 14.804688 11.925781 15.6875 C 12.515625 16.566406 13.128906 17.433594 13.757812 18.289062 C 14.390625 19.140625 15.042969 19.976562 15.71875 20.796875 C 16.390625 21.617188 17.082031 22.417969 17.796875 23.207031 C 18.507812 23.992188 19.238281 24.761719 19.988281 25.511719 C 20.738281 26.261719 21.507812 26.992188 22.292969 27.703125 C 23.082031 28.417969 23.882812 29.109375 24.703125 29.785156 C 25.523438 30.457031 26.359375 31.109375 27.210938 31.742188 C 28.0625 32.375 28.929688 32.984375 29.8125 33.574219 C 30.695312 34.164062 31.589844 34.730469 32.5 35.277344 C 33.410156 35.820312 34.335938 36.34375 35.269531 36.84375 C 36.207031 37.34375 37.152344 37.820312 38.113281 38.277344 C 39.070312 38.730469 40.042969 39.160156 41.023438 39.566406 C 42 39.972656 42.992188 40.351562 43.992188 40.710938 C 44.988281 41.066406 45.996094 41.402344 47.011719 41.707031 C 48.027344 42.015625 49.050781 42.300781 50.078125 42.558594 C 51.109375 42.816406 52.140625 43.046875 53.183594 43.253906 C 54.222656 43.460938 55.269531 43.644531 56.316406 43.796875 C 57.367188 43.953125 58.421875 44.085938 59.476562 44.1875 C 60.53125 44.292969 61.589844 44.371094 62.648438 44.421875 C 63.710938 44.472656 64.769531 44.5 65.832031 44.5 C 66.890625 44.5 67.953125 44.472656 69.011719 44.421875 C 70.070312 44.371094 71.128906 44.292969 72.183594 44.1875 C 73.242188 44.085938 74.292969 43.953125 75.34375 43.796875 C 76.390625 43.644531 77.4375 43.460938 78.476562 43.253906 C 79.519531 43.046875 80.554688 42.816406 81.582031 42.558594 C 82.613281 42.300781 83.632812 42.015625 84.648438 41.707031 C 85.664062 41.402344 86.671875 41.066406 87.671875 40.710938 C 88.667969 40.351562 89.660156 39.972656 90.640625 39.566406 C 91.621094 39.160156 92.589844 38.730469 93.546875 38.277344 C 94.507812 37.820312 95.453125 37.34375 96.390625 36.84375 C 97.324219 36.34375 98.25 35.820312 99.160156 35.277344 C 100.070312 34.730469 100.964844 34.164062 101.847656 33.574219 C 102.730469 32.984375 103.597656 32.375 104.449219 31.742188 C 105.300781 31.109375 106.136719 30.457031 106.957031 29.785156 C 107.777344 29.109375 108.582031 28.417969 109.367188 27.703125 C 110.152344 26.992188 110.921875 26.261719 111.671875 25.511719 C 112.421875 24.761719 113.152344 23.992188 113.863281 23.207031 C 114.578125 22.417969 115.269531 21.617188 115.945312 20.796875 C 116.617188 19.976562 117.269531 19.140625 117.902344 18.289062 C 118.53125 17.433594 119.144531 16.566406 119.734375 15.6875 C 120.324219 14.804688 120.890625 13.90625 121.4375 12.996094 C 121.980469 12.085938 122.503906 11.164062 123.003906 10.226562 C 123.503906 9.292969 123.980469 8.34375 124.433594 7.386719 C 124.886719 6.425781 125.316406 5.457031 125.722656 4.476562 C 126.128906 3.496094 126.511719 2.507812 126.871094 1.507812 C 127.226562 0.507812 127.558594 -0.5 127.867188 -1.515625 C 128.175781 -2.53125 128.457031 -3.550781 128.714844 -4.582031 C 128.972656 -5.609375 129.207031 -6.644531 129.414062 -7.6875 C 129.621094 -8.726562 129.800781 -9.773438 129.957031 -10.820312 C 130.113281 -11.871094 130.242188 -12.925781 130.347656 -13.980469 C 130.449219 -15.035156 130.527344 -16.09375 130.582031 -17.152344 C 130.632812 -18.214844 130.660156 -19.273438 130.660156 -20.335938 Z M 130.660156 -115.425781 " fill-opacity="1" fill-rule="nonzero"/></g></g></g></g><path stroke-linecap="round" transform="matrix(0.75, 0, 0, 0.75, 37.500002, 163.117782)" fill="none" stroke-linejoin="miter" d="M 6.499998 6.499208 L 124.89063 6.499208 " stroke="#000000" stroke-width="13" stroke-opacity="1" stroke-miterlimit="4"/><path stroke-linecap="round" transform="matrix(0.75, 0, 0, 0.75, 38.173222, 203.825027)" fill="none" stroke-linejoin="miter" d="M 6.498204 6.498923 L 124.888837 6.498923 " stroke="#000000" stroke-width="13" stroke-opacity="1" stroke-miterlimit="4"/><path stroke-linecap="round" transform="matrix(0.75, 0, 0, 0.75, 238.956889, 206.508092)" fill="none" stroke-linejoin="miter" d="M 6.50019 6.499628 L 124.890823 6.499628 " stroke="#000000" stroke-width="13" stroke-opacity="1" stroke-miterlimit="4"/><path stroke-linecap="round" transform="matrix(0.75, 0, 0, 0.75, 238.956889, 158.741884)" fill="none" stroke-linejoin="miter" d="M 6.50019 6.500405 L 124.890823 6.500405 " stroke="#000000" stroke-width="13" stroke-opacity="1" stroke-miterlimit="4"/></svg>