<svg xmlns="http://www.w3.org/2000/svg" xmlns:xlink="http://www.w3.org/1999/xlink" width="500" zoomAndPan="magnify" viewBox="0 0 375 374.999991" height="500" preserveAspectRatio="xMidYMid meet" version="1.0"><defs><clipPath id="4fbf41ef86"><path d="M 0.769531 0.769531 L 268.230469 0.769531 L 268.230469 268.230469 L 0.769531 268.230469 Z M 0.769531 0.769531 " clip-rule="nonzero"/></clipPath><clipPath id="292de126ea"><path d="M 134.5 0.769531 C 60.644531 0.769531 0.769531 60.644531 0.769531 134.5 C 0.769531 208.355469 60.644531 268.230469 134.5 268.230469 C 208.355469 268.230469 268.230469 208.355469 268.230469 134.5 C 268.230469 60.644531 208.355469 0.769531 134.5 0.769531 Z M 134.5 0.769531 " clip-rule="nonzero"/></clipPath><clipPath id="33f9fbe7cc"><path d="M 0.769531 0.769531 L 268.230469 0.769531 L 268.230469 268.230469 L 0.769531 268.230469 Z M 0.769531 0.769531 " clip-rule="nonzero"/></clipPath><clipPath id="4419f791c0"><path d="M 134.5 0.769531 C 60.644531 0.769531 0.769531 60.644531 0.769531 134.5 C 0.769531 208.355469 60.644531 268.230469 134.5 268.230469 C 208.355469 268.230469 268.230469 208.355469 268.230469 134.5 C 268.230469 60.644531 208.355469 0.769531 134.5 0.769531 Z M 134.5 0.769531 " clip-rule="nonzero"/></clipPath><clipPath id="557365c254"><rect x="0" width="269" y="0" height="269"/></clipPath><clipPath id="33631f8d13"><path d="M 11.507812 12.175781 L 256.152344 12.175781 L 256.152344 256.824219 L 11.507812 256.824219 Z M 11.507812 12.175781 " clip-rule="nonzero"/></clipPath><clipPath id="9cd025fda4"><path d="M 133.832031 12.175781 C 66.273438 12.175781 11.507812 66.941406 11.507812 134.5 C 11.507812 202.058594 66.273438 256.824219 133.832031 256.824219 C 201.386719 256.824219 256.152344 202.058594 256.152344 134.5 C 256.152344 66.941406 201.386719 12.175781 133.832031 12.175781 Z M 133.832031 12.175781 " clip-rule="nonzero"/></clipPath><clipPath id="1a9a135d7a"><path d="M 0.507812 0.175781 L 245.152344 0.175781 L 245.152344 244.824219 L 0.507812 244.824219 Z M 0.507812 0.175781 " clip-rule="nonzero"/></clipPath><clipPath id="058466cdca"><path d="M 122.832031 0.175781 C 55.273438 0.175781 0.507812 54.941406 0.507812 122.5 C 0.507812 190.058594 55.273438 244.824219 122.832031 244.824219 C 190.386719 244.824219 245.152344 190.058594 245.152344 122.5 C 245.152344 54.941406 190.386719 0.175781 122.832031 0.175781 Z M 122.832031 0.175781 " clip-rule="nonzero"/></clipPath><clipPath id="85cebe2df6"><rect x="0" width="246" y="0" height="245"/></clipPath><clipPath id="d29418f75f"><rect x="0" width="269" y="0" height="269"/></clipPath></defs><rect x="-37.5" width="450" fill="#ffffff" y="-37.499999" height="449.999989" fill-opacity="1"/><rect x="-37.5" width="450" fill="#ffffff" y="-37.499999" height="449.999989" fill-opacity="1"/><g transform="matrix(1, 0, 0, 1, 53, 53)"><g clip-path="url(#d29418f75f)"><g clip-path="url(#4fbf41ef86)"><g clip-path="url(#292de126ea)"><g transform="matrix(1, 0, 0, 1, -0.000000000000007105, 0)"><g clip-path="url(#557365c254)"><g clip-path="url(#33f9fbe7cc)"><g clip-path="url(#4419f791c0)"><path fill="#000000" d="M 0.769531 0.769531 L 268.230469 0.769531 L 268.230469 268.230469 L 0.769531 268.230469 Z M 0.769531 0.769531 " fill-opacity="1" fill-rule="nonzero"/></g></g></g></g></g></g><g clip-path="url(#33631f8d13)"><g clip-path="url(#9cd025fda4)"><g transform="matrix(1, 0, 0, 1, 11, 12)"><g clip-path="url(#85cebe2df6)"><g clip-path="url(#1a9a135d7a)"><g clip-path="url(#058466cdca)"><path fill="#ffffff" d="M 0.507812 0.175781 L 245.152344 0.175781 L 245.152344 244.824219 L 0.507812 244.824219 Z M 0.507812 0.175781 " fill-opacity="1" fill-rule="nonzero"/></g></g></g></g></g></g></g></g><path stroke-linecap="butt" transform="matrix(0.494016, -0.564312, 0.564312, 0.494016, 99.230388, 280.345645)" fill="none" stroke-linejoin="miter" d="M -0.00159576 9.498719 L 344.966667 9.50246 " stroke="#000000" stroke-width="19" stroke-opacity="1" stroke-miterlimit="4"/><path stroke-linecap="butt" transform="matrix(0.53033, 0.53033, -0.53033, 0.53033, 101.063633, 88.827973)" fill="none" stroke-linejoin="miter" d="M 0.00275755 9.499276 L 344.967768 9.499276 " stroke="#000000" stroke-width="19" stroke-opacity="1" stroke-miterlimit="4"/><path stroke-linecap="butt" transform="matrix(-0.75, 0, 0, -0.75, 337.499982, 53.77066)" fill="none" stroke-linejoin="miter" d="M -0.00002355 10.501505 L 400.000003 10.501505 " stroke="#000000" stroke-width="21" stroke-opacity="1" stroke-miterlimit="4"/><path stroke-linecap="butt" transform="matrix(-0.75, 0, 0, -0.75, 337.499982, 335.479315)" fill="none" stroke-linejoin="miter" d="M -0.00002355 10.498462 L 400.000003 10.498462 " stroke="#000000" stroke-width="21" stroke-opacity="1" stroke-miterlimit="4"/></svg>