<svg xmlns="http://www.w3.org/2000/svg" xmlns:xlink="http://www.w3.org/1999/xlink" width="500" zoomAndPan="magnify" viewBox="0 0 375 374.999991" height="500" preserveAspectRatio="xMidYMid meet" version="1.0"><defs><clipPath id="7b8cd02839"><path d="M 76.851562 67.722656 L 298.101562 67.722656 L 298.101562 347.472656 L 76.851562 347.472656 Z M 76.851562 67.722656 " clip-rule="nonzero"/></clipPath></defs><rect x="-37.5" width="450" fill="#ffffff" y="-37.499999" height="449.999989" fill-opacity="1"/><rect x="-37.5" width="450" fill="#ffffff" y="-37.499999" height="449.999989" fill-opacity="1"/><g clip-path="url(#7b8cd02839)"><path fill="#000000" d="M 76.921875 75.085938 C 76.921875 74.601562 76.96875 74.125 77.066406 73.648438 C 77.160156 73.175781 77.300781 72.714844 77.484375 72.269531 C 77.667969 71.820312 77.898438 71.398438 78.164062 70.996094 C 78.433594 70.59375 78.738281 70.222656 79.082031 69.878906 C 79.425781 69.539062 79.796875 69.234375 80.199219 68.964844 C 80.601562 68.695312 81.027344 68.46875 81.472656 68.285156 C 81.921875 68.097656 82.382812 67.960938 82.855469 67.867188 C 83.332031 67.769531 83.808594 67.722656 84.292969 67.722656 C 84.777344 67.722656 85.257812 67.769531 85.730469 67.867188 C 86.207031 67.960938 86.667969 68.097656 87.113281 68.285156 C 87.5625 68.46875 87.984375 68.695312 88.386719 68.964844 C 88.789062 69.234375 89.164062 69.539062 89.503906 69.878906 C 89.847656 70.222656 90.152344 70.59375 90.421875 70.996094 C 90.691406 71.398438 90.917969 71.820312 91.101562 72.269531 C 91.289062 72.714844 91.425781 73.175781 91.523438 73.648438 C 91.617188 74.125 91.664062 74.601562 91.664062 75.085938 L 91.664062 237.046875 C 91.664062 238.613281 91.703125 240.179688 91.777344 241.742188 C 91.855469 243.308594 91.972656 244.867188 92.125 246.425781 C 92.277344 247.984375 92.46875 249.539062 92.699219 251.089844 C 92.929688 252.636719 93.199219 254.179688 93.503906 255.71875 C 93.8125 257.253906 94.152344 258.78125 94.535156 260.300781 C 94.917969 261.820312 95.335938 263.328125 95.789062 264.828125 C 96.246094 266.328125 96.734375 267.8125 97.265625 269.289062 C 97.792969 270.761719 98.355469 272.222656 98.957031 273.671875 C 99.558594 275.117188 100.191406 276.550781 100.863281 277.964844 C 101.535156 279.378906 102.238281 280.78125 102.976562 282.160156 C 103.714844 283.542969 104.488281 284.90625 105.296875 286.246094 C 106.101562 287.589844 106.941406 288.914062 107.8125 290.214844 C 108.683594 291.519531 109.585938 292.800781 110.519531 294.058594 C 111.453125 295.316406 112.417969 296.550781 113.414062 297.761719 C 114.40625 298.972656 115.429688 300.15625 116.484375 301.316406 C 117.535156 302.476562 118.617188 303.613281 119.726562 304.71875 C 120.835938 305.828125 121.972656 306.90625 123.132812 307.957031 C 124.292969 309.011719 125.480469 310.03125 126.695312 311.027344 C 127.90625 312.019531 129.140625 312.984375 130.402344 313.917969 C 131.660156 314.847656 132.941406 315.75 134.246094 316.621094 C 135.550781 317.492188 136.875 318.328125 138.21875 319.132812 C 139.5625 319.941406 140.929688 320.710938 142.3125 321.449219 C 143.695312 322.1875 145.09375 322.890625 146.511719 323.5625 C 147.929688 324.230469 149.363281 324.867188 150.8125 325.464844 C 152.257812 326.066406 153.722656 326.628906 155.199219 327.15625 C 156.675781 327.683594 158.164062 328.175781 159.664062 328.628906 C 161.164062 329.082031 162.675781 329.5 164.195312 329.882812 C 165.71875 330.261719 167.246094 330.605469 168.785156 330.910156 C 170.324219 331.21875 171.867188 331.484375 173.417969 331.714844 C 174.96875 331.945312 176.523438 332.136719 178.085938 332.289062 C 179.644531 332.441406 181.210938 332.558594 182.777344 332.636719 C 184.339844 332.710938 185.910156 332.75 187.476562 332.75 C 189.042969 332.75 190.613281 332.710938 192.179688 332.636719 C 193.746094 332.558594 195.308594 332.441406 196.867188 332.289062 C 198.429688 332.136719 199.984375 331.945312 201.535156 331.714844 C 203.085938 331.484375 204.632812 331.21875 206.167969 330.910156 C 207.707031 330.605469 209.238281 330.261719 210.757812 329.882812 C 212.277344 329.5 213.789062 329.082031 215.289062 328.628906 C 216.789062 328.175781 218.277344 327.683594 219.753906 327.15625 C 221.230469 326.628906 222.695312 326.066406 224.144531 325.464844 C 225.589844 324.867188 227.023438 324.230469 228.441406 323.5625 C 229.859375 322.890625 231.257812 322.1875 232.644531 321.449219 C 234.027344 320.710938 235.390625 319.941406 236.734375 319.132812 C 238.078125 318.328125 239.402344 317.492188 240.707031 316.621094 C 242.011719 315.75 243.292969 314.847656 244.550781 313.917969 C 245.8125 312.984375 247.046875 312.019531 248.261719 311.027344 C 249.472656 310.03125 250.660156 309.011719 251.820312 307.957031 C 252.984375 306.90625 254.117188 305.828125 255.226562 304.71875 C 256.335938 303.613281 257.417969 302.476562 258.46875 301.316406 C 259.523438 300.15625 260.546875 298.972656 261.542969 297.761719 C 262.535156 296.550781 263.5 295.316406 264.433594 294.058594 C 265.367188 292.800781 266.269531 291.519531 267.140625 290.214844 C 268.011719 288.914062 268.851562 287.589844 269.660156 286.246094 C 270.464844 284.90625 271.238281 283.542969 271.976562 282.160156 C 272.714844 280.78125 273.421875 279.378906 274.089844 277.964844 C 274.761719 276.550781 275.394531 275.117188 275.996094 273.671875 C 276.597656 272.222656 277.160156 270.761719 277.6875 269.289062 C 278.21875 267.8125 278.707031 266.328125 279.164062 264.828125 C 279.621094 263.328125 280.039062 261.820312 280.417969 260.300781 C 280.800781 258.78125 281.144531 257.253906 281.449219 255.71875 C 281.753906 254.179688 282.023438 252.636719 282.253906 251.089844 C 282.484375 249.539062 282.675781 247.984375 282.828125 246.425781 C 282.980469 244.867188 283.097656 243.304688 283.175781 241.742188 C 283.25 240.179688 283.289062 238.613281 283.289062 237.046875 L 283.289062 75.085938 C 283.289062 74.601562 283.335938 74.125 283.429688 73.648438 C 283.527344 73.175781 283.664062 72.714844 283.851562 72.269531 C 284.035156 71.820312 284.261719 71.398438 284.53125 70.996094 C 284.800781 70.59375 285.105469 70.222656 285.449219 69.878906 C 285.789062 69.539062 286.164062 69.234375 286.566406 68.964844 C 286.96875 68.695312 287.390625 68.46875 287.839844 68.285156 C 288.285156 68.097656 288.746094 67.960938 289.222656 67.867188 C 289.695312 67.769531 290.175781 67.722656 290.660156 67.722656 C 291.144531 67.722656 291.625 67.769531 292.097656 67.867188 C 292.574219 67.960938 293.035156 68.097656 293.480469 68.285156 C 293.925781 68.46875 294.351562 68.695312 294.753906 68.964844 C 295.15625 69.234375 295.527344 69.539062 295.871094 69.878906 C 296.214844 70.222656 296.519531 70.59375 296.789062 70.996094 C 297.058594 71.398438 297.285156 71.820312 297.46875 72.269531 C 297.65625 72.714844 297.792969 73.175781 297.886719 73.648438 C 297.984375 74.125 298.03125 74.601562 298.03125 75.085938 L 298.03125 237.046875 C 298.03125 238.855469 297.984375 240.660156 297.898438 242.464844 C 297.808594 244.269531 297.675781 246.070312 297.496094 247.871094 C 297.320312 249.667969 297.097656 251.460938 296.832031 253.25 C 296.566406 255.035156 296.257812 256.816406 295.90625 258.589844 C 295.554688 260.363281 295.15625 262.125 294.71875 263.878906 C 294.277344 265.632812 293.796875 267.371094 293.269531 269.101562 C 292.746094 270.832031 292.175781 272.546875 291.566406 274.25 C 290.957031 275.949219 290.308594 277.636719 289.613281 279.304688 C 288.921875 280.976562 288.1875 282.625 287.414062 284.261719 C 286.640625 285.894531 285.828125 287.507812 284.976562 289.101562 C 284.125 290.695312 283.230469 292.265625 282.300781 293.816406 C 281.371094 295.367188 280.402344 296.894531 279.398438 298.398438 C 278.394531 299.898438 277.351562 301.375 276.273438 302.828125 C 275.195312 304.28125 274.082031 305.703125 272.9375 307.101562 C 271.789062 308.496094 270.605469 309.867188 269.390625 311.203125 C 268.175781 312.542969 266.929688 313.851562 265.648438 315.128906 C 264.371094 316.410156 263.058594 317.652344 261.71875 318.867188 C 260.378906 320.082031 259.007812 321.261719 257.609375 322.40625 C 256.210938 323.554688 254.785156 324.667969 253.332031 325.742188 C 251.878906 326.820312 250.402344 327.859375 248.898438 328.863281 C 247.394531 329.867188 245.863281 330.835938 244.3125 331.761719 C 242.761719 332.691406 241.1875 333.582031 239.589844 334.433594 C 237.996094 335.285156 236.378906 336.097656 234.746094 336.871094 C 233.109375 337.644531 231.457031 338.375 229.785156 339.066406 C 228.113281 339.757812 226.425781 340.410156 224.722656 341.019531 C 223.015625 341.628906 221.300781 342.195312 219.570312 342.71875 C 217.835938 343.242188 216.09375 343.726562 214.339844 344.164062 C 212.582031 344.605469 210.820312 345 209.042969 345.351562 C 207.269531 345.703125 205.488281 346.011719 203.699219 346.277344 C 201.910156 346.542969 200.113281 346.765625 198.3125 346.941406 C 196.511719 347.121094 194.707031 347.253906 192.902344 347.339844 C 191.09375 347.429688 189.285156 347.472656 187.476562 347.472656 C 185.667969 347.472656 183.859375 347.429688 182.050781 347.339844 C 180.246094 347.253906 178.441406 347.121094 176.640625 346.941406 C 174.839844 346.765625 173.042969 346.542969 171.253906 346.277344 C 169.464844 346.011719 167.683594 345.703125 165.910156 345.351562 C 164.132812 345 162.371094 344.605469 160.613281 344.164062 C 158.859375 343.726562 157.117188 343.242188 155.382812 342.71875 C 153.652344 342.195312 151.9375 341.628906 150.230469 341.019531 C 148.527344 340.410156 146.839844 339.757812 145.167969 339.066406 C 143.5 338.375 141.84375 337.644531 140.210938 336.871094 C 138.574219 336.097656 136.957031 335.285156 135.363281 334.433594 C 133.765625 333.582031 132.191406 332.691406 130.640625 331.761719 C 129.089844 330.835938 127.5625 329.867188 126.054688 328.863281 C 124.550781 327.859375 123.074219 326.820312 121.621094 325.742188 C 120.167969 324.664062 118.742188 323.554688 117.34375 322.40625 C 115.945312 321.261719 114.574219 320.082031 113.234375 318.867188 C 111.894531 317.652344 110.582031 316.410156 109.304688 315.128906 C 108.023438 313.851562 106.777344 312.542969 105.5625 311.203125 C 104.347656 309.867188 103.164062 308.496094 102.019531 307.101562 C 100.871094 305.703125 99.757812 304.28125 98.679688 302.828125 C 97.601562 301.375 96.558594 299.898438 95.554688 298.398438 C 94.550781 296.894531 93.582031 295.367188 92.652344 293.816406 C 91.722656 292.265625 90.832031 290.695312 89.976562 289.101562 C 89.125 287.507812 88.3125 285.894531 87.539062 284.261719 C 86.765625 282.625 86.03125 280.976562 85.339844 279.304688 C 84.644531 277.636719 83.996094 275.949219 83.386719 274.25 C 82.777344 272.546875 82.207031 270.832031 81.683594 269.101562 C 81.160156 267.371094 80.675781 265.632812 80.238281 263.878906 C 79.796875 262.125 79.402344 260.363281 79.046875 258.589844 C 78.695312 256.816406 78.386719 255.035156 78.121094 253.25 C 77.855469 251.460938 77.632812 249.667969 77.457031 247.871094 C 77.277344 246.070312 77.144531 244.269531 77.054688 242.464844 C 76.96875 240.660156 76.921875 238.855469 76.921875 237.046875 Z M 76.921875 75.085938 " fill-opacity="1" fill-rule="nonzero"/></g><path stroke-linecap="butt" transform="matrix(-0.75, 0, 0, -0.75, 300.023598, 49.499997)" fill="none" stroke-linejoin="miter" d="M 0.000214531 10.499996 L 297.573151 10.499996 " stroke="#000000" stroke-width="21" stroke-opacity="1" stroke-miterlimit="4"/></svg>