<svg xmlns="http://www.w3.org/2000/svg" xmlns:xlink="http://www.w3.org/1999/xlink" width="500" zoomAndPan="magnify" viewBox="0 0 375 374.999991" height="500" preserveAspectRatio="xMidYMid meet" version="1.0"><defs><clipPath id="21983f4259"><path d="M 37.5 37.5 L 337.5 37.5 L 337.5 337.5 L 37.5 337.5 Z M 37.5 37.5 " clip-rule="nonzero"/></clipPath><clipPath id="77f5db9c27"><path d="M 187.5 37.5 C 104.65625 37.5 37.5 104.65625 37.5 187.5 C 37.5 270.34375 104.65625 337.5 187.5 337.5 C 270.34375 337.5 337.5 270.34375 337.5 187.5 C 337.5 104.65625 270.34375 37.5 187.5 37.5 Z M 187.5 37.5 " clip-rule="nonzero"/></clipPath><clipPath id="07b80e23bd"><path d="M 0.5 0.5 L 300.5 0.5 L 300.5 300.5 L 0.5 300.5 Z M 0.5 0.5 " clip-rule="nonzero"/></clipPath><clipPath id="f51919c94b"><path d="M 150.5 0.5 C 67.65625 0.5 0.5 67.65625 0.5 150.5 C 0.5 233.34375 67.65625 300.5 150.5 300.5 C 233.34375 300.5 300.5 233.34375 300.5 150.5 C 300.5 67.65625 233.34375 0.5 150.5 0.5 Z M 150.5 0.5 " clip-rule="nonzero"/></clipPath><clipPath id="124c613a13"><rect x="0" width="301" y="0" height="301"/></clipPath><clipPath id="fb37c5018e"><path d="M 49.542969 50.292969 L 323.957031 50.292969 L 323.957031 324.707031 L 49.542969 324.707031 Z M 49.542969 50.292969 " clip-rule="nonzero"/></clipPath><clipPath id="4344801a87"><path d="M 186.75 50.292969 C 110.972656 50.292969 49.542969 111.722656 49.542969 187.5 C 49.542969 263.277344 110.972656 324.707031 186.75 324.707031 C 262.527344 324.707031 323.957031 263.277344 323.957031 187.5 C 323.957031 111.722656 262.527344 50.292969 186.75 50.292969 Z M 186.75 50.292969 " clip-rule="nonzero"/></clipPath><clipPath id="c47453dc61"><path d="M 0.542969 0.292969 L 274.957031 0.292969 L 274.957031 274.707031 L 0.542969 274.707031 Z M 0.542969 0.292969 " clip-rule="nonzero"/></clipPath><clipPath id="abb4bae481"><path d="M 137.75 0.292969 C 61.972656 0.292969 0.542969 61.722656 0.542969 137.5 C 0.542969 213.277344 61.972656 274.707031 137.75 274.707031 C 213.527344 274.707031 274.957031 213.277344 274.957031 137.5 C 274.957031 61.722656 213.527344 0.292969 137.75 0.292969 Z M 137.75 0.292969 " clip-rule="nonzero"/></clipPath><clipPath id="5f1a316785"><rect x="0" width="275" y="0" height="275"/></clipPath></defs><rect x="-37.5" width="450" fill="#ffffff" y="-37.499999" height="449.999989" fill-opacity="1"/><rect x="-37.5" width="450" fill="#ffffff" y="-37.499999" height="449.999989" fill-opacity="1"/><g clip-path="url(#21983f4259)"><g clip-path="url(#77f5db9c27)"><g transform="matrix(1, 0, 0, 1, 37, 37)"><g clip-path="url(#124c613a13)"><g clip-path="url(#07b80e23bd)"><g clip-path="url(#f51919c94b)"><path fill="#000000" d="M 0.5 0.5 L 300.5 0.5 L 300.5 300.5 L 0.5 300.5 Z M 0.5 0.5 " fill-opacity="1" fill-rule="nonzero"/></g></g></g></g></g></g><g clip-path="url(#fb37c5018e)"><g clip-path="url(#4344801a87)"><g transform="matrix(1, 0, 0, 1, 49, 50)"><g clip-path="url(#5f1a316785)"><g clip-path="url(#c47453dc61)"><g clip-path="url(#abb4bae481)"><path fill="#ffffff" d="M 0.542969 0.292969 L 274.957031 0.292969 L 274.957031 274.707031 L 0.542969 274.707031 Z M 0.542969 0.292969 " fill-opacity="1" fill-rule="nonzero"/></g></g></g></g></g></g><path stroke-linecap="butt" transform="matrix(0.494016, -0.564312, 0.564312, 0.494016, 122.493856, 255.718342)" fill="none" stroke-linejoin="miter" d="M 0.00178928 7.000686 L 254.043489 6.99961 " stroke="#000000" stroke-width="14" stroke-opacity="1" stroke-miterlimit="4"/><path stroke-linecap="butt" transform="matrix(0.53033, 0.53033, -0.53033, 0.53033, 123.848257, 114.680265)" fill="none" stroke-linejoin="miter" d="M -0.00111128 6.997433 L 254.041747 6.997433 " stroke="#000000" stroke-width="14" stroke-opacity="1" stroke-miterlimit="4"/></svg>