<svg xmlns="http://www.w3.org/2000/svg" xmlns:xlink="http://www.w3.org/1999/xlink" width="500" zoomAndPan="magnify" viewBox="0 0 375 374.999991" height="500" preserveAspectRatio="xMidYMid meet" version="1.0"><defs><clipPath id="a7bea4ac29"><path d="M 33 111.484375 L 332 111.484375 L 332 177 L 33 177 Z M 33 111.484375 " clip-rule="nonzero"/></clipPath></defs><rect x="-37.5" width="450" fill="#ffffff" y="-37.499999" height="449.999989" fill-opacity="1"/><rect x="-37.5" width="450" fill="#ffffff" y="-37.499999" height="449.999989" fill-opacity="1"/><g clip-path="url(#a7bea4ac29)"><path fill="#000000" d="M 35.292969 147.398438 C 49.914062 118.761719 84.382812 111.777344 112.957031 121.007812 C 141.527344 130.238281 160 154.191406 186.300781 166.996094 C 235.597656 190.984375 299.378906 166.445312 331.03125 124.207031 C 332.597656 122.113281 329.550781 119.28125 327.488281 120.75 C 302.871094 137.238281 280.527344 156.09375 250.925781 163.058594 C 243.367188 164.902344 235.699219 165.871094 227.925781 165.964844 C 220.148438 166.058594 212.460938 165.273438 204.859375 163.609375 C 189.570312 160.050781 176.804688 151.769531 164.285156 142.628906 C 142.042969 126.417969 118.234375 111.519531 89.714844 111.988281 C 66.324219 112.347656 43.273438 124.515625 33.195312 146.257812 C 32.523438 147.570312 34.554688 148.816406 35.292969 147.398438 Z M 35.292969 147.398438 " fill-opacity="1" fill-rule="nonzero"/></g><path stroke-linecap="butt" transform="matrix(0, 0.75, -0.75, 0, 189.28275, 111.486321)" fill="none" stroke-linejoin="miter" d="M -0.00259531 9.002001 L 202.705751 9.002001 " stroke="#000000" stroke-width="18" stroke-opacity="1" stroke-miterlimit="4"/><path fill="#000000" d="M 39.507812 199.847656 C 54.128906 171.210938 88.601562 164.226562 117.171875 173.457031 C 145.742188 182.683594 164.214844 206.636719 190.515625 219.445312 C 239.816406 243.433594 303.597656 218.890625 335.246094 176.652344 C 336.8125 174.5625 333.769531 171.726562 331.703125 173.195312 C 307.089844 189.683594 284.746094 208.539062 255.140625 215.503906 C 247.585938 217.347656 239.917969 218.320312 232.140625 218.410156 C 224.363281 218.503906 216.675781 217.71875 209.078125 216.058594 C 193.785156 212.496094 181.023438 204.21875 168.5 195.078125 C 146.257812 178.867188 122.453125 163.96875 93.933594 164.433594 C 70.539062 164.796875 47.488281 176.964844 37.410156 198.707031 C 36.738281 200.019531 38.769531 201.261719 39.507812 199.847656 Z M 39.507812 199.847656 " fill-opacity="1" fill-rule="nonzero"/></svg>