<svg xmlns="http://www.w3.org/2000/svg" xmlns:xlink="http://www.w3.org/1999/xlink" width="500" zoomAndPan="magnify" viewBox="0 0 375 374.999991" height="500" preserveAspectRatio="xMidYMid meet" version="1.0"><defs><clipPath id="90bcc219f1"><path d="M 59.71875 103.433594 L 313 103.433594 L 313 184.433594 L 59.71875 184.433594 Z M 59.71875 103.433594 " clip-rule="nonzero"/></clipPath><clipPath id="22cfddf2b0"><path d="M 0.71875 0.433594 L 253.902344 0.433594 L 253.902344 81.433594 L 0.71875 81.433594 Z M 0.71875 0.433594 " clip-rule="nonzero"/></clipPath><clipPath id="b89b2b8894"><rect x="0" width="254" y="0" height="82"/></clipPath><clipPath id="6161dfe96e"><path d="M 62.09375 190.867188 L 315.59375 190.867188 L 315.59375 271.867188 L 62.09375 271.867188 Z M 62.09375 190.867188 " clip-rule="nonzero"/></clipPath><clipPath id="9d70acfe71"><path d="M 0.09375 0.867188 L 253.59375 0.867188 L 253.59375 81.5625 L 0.09375 81.5625 Z M 0.09375 0.867188 " clip-rule="nonzero"/></clipPath><clipPath id="5d4f616e04"><rect x="0" width="254" y="0" height="82"/></clipPath></defs><rect x="-37.5" width="450" fill="#ffffff" y="-37.499999" height="449.999989" fill-opacity="1"/><rect x="-37.5" width="450" fill="#ffffff" y="-37.499999" height="449.999989" fill-opacity="1"/><g clip-path="url(#90bcc219f1)"><g transform="matrix(1, 0, 0, 1, 59, 103)"><g clip-path="url(#b89b2b8894)"><g clip-path="url(#22cfddf2b0)"><path fill="#000000" d="M 68.449219 0.410156 L 83.496094 15.484375 L 39.183594 59.875 L 253.601562 59.875 L 253.601562 81.191406 L 39.183594 81.191406 L 83.496094 125.582031 L 68.449219 140.65625 L -1.554688 70.535156 Z M 68.449219 0.410156 " fill-opacity="1" fill-rule="nonzero"/></g></g></g></g><g clip-path="url(#6161dfe96e)"><g transform="matrix(1, 0, 0, 1, 62, 190)"><g clip-path="url(#5d4f616e04)"><g clip-path="url(#9d70acfe71)"><path fill="#000000" d="M 185.546875 81.585938 L 170.496094 66.511719 L 214.8125 22.121094 L 0.394531 22.121094 L 0.394531 0.800781 L 214.8125 0.800781 L 170.496094 -43.585938 L 185.546875 -58.660156 L 255.550781 11.460938 Z M 185.546875 81.585938 " fill-opacity="1" fill-rule="nonzero"/></g></g></g></g></svg>