<svg xmlns="http://www.w3.org/2000/svg" xmlns:xlink="http://www.w3.org/1999/xlink" width="500" zoomAndPan="magnify" viewBox="0 0 375 374.999991" height="500" preserveAspectRatio="xMidYMid meet" version="1.0"><defs><clipPath id="2912236184"><path d="M 69 37.5 L 306 37.5 L 306 337.5 L 69 337.5 Z M 69 37.5 " clip-rule="nonzero"/></clipPath><clipPath id="5d7a204f22"><path d="M 0 0.5 L 237 0.5 L 237 300.5 L 0 300.5 Z M 0 0.5 " clip-rule="nonzero"/></clipPath><clipPath id="272775cda0"><rect x="0" width="237" y="0" height="301"/></clipPath></defs><rect x="-37.5" width="450" fill="#ffffff" y="-37.499999" height="449.999989" fill-opacity="1"/><rect x="-37.5" width="450" fill="#ffffff" y="-37.499999" height="449.999989" fill-opacity="1"/><g clip-path="url(#2912236184)"><g transform="matrix(1, 0, 0, 1, 69, 37)"><g clip-path="url(#272775cda0)"><g clip-path="url(#5d7a204f22)"><path fill="#000000" d="M 236.921875 8.394531 C 236.921875 7.875 236.871094 7.363281 236.769531 6.855469 C 236.667969 6.347656 236.519531 5.851562 236.320312 5.375 C 236.121094 4.894531 235.878906 4.441406 235.589844 4.007812 C 235.300781 3.578125 234.976562 3.179688 234.609375 2.8125 C 234.242188 2.445312 233.84375 2.117188 233.414062 1.832031 C 232.980469 1.542969 232.527344 1.300781 232.046875 1.101562 C 231.570312 0.902344 231.074219 0.753906 230.566406 0.652344 C 230.058594 0.550781 229.542969 0.5 229.027344 0.5 C 228.507812 0.5 227.996094 0.550781 227.484375 0.652344 C 226.976562 0.753906 226.484375 0.902344 226.003906 1.101562 C 225.527344 1.300781 225.070312 1.542969 224.640625 1.832031 C 224.210938 2.117188 223.808594 2.445312 223.445312 2.8125 C 223.078125 3.179688 222.75 3.578125 222.460938 4.007812 C 222.175781 4.441406 221.929688 4.894531 221.734375 5.375 C 221.535156 5.851562 221.382812 6.347656 221.285156 6.855469 C 221.183594 7.363281 221.132812 7.875 221.132812 8.394531 L 221.132812 182.078125 C 221.132812 183.757812 221.089844 185.4375 221.007812 187.113281 C 220.925781 188.792969 220.800781 190.46875 220.636719 192.136719 C 220.472656 193.808594 220.265625 195.476562 220.019531 197.136719 C 219.773438 198.800781 219.488281 200.453125 219.160156 202.101562 C 218.832031 203.75 218.464844 205.386719 218.054688 207.015625 C 217.648438 208.644531 217.199219 210.265625 216.710938 211.871094 C 216.226562 213.480469 215.699219 215.074219 215.132812 216.65625 C 214.566406 218.234375 213.960938 219.800781 213.320312 221.355469 C 212.675781 222.90625 211.996094 224.441406 211.277344 225.960938 C 210.558594 227.476562 209.804688 228.976562 209.011719 230.460938 C 208.222656 231.941406 207.394531 233.402344 206.53125 234.84375 C 205.667969 236.28125 204.769531 237.703125 203.835938 239.097656 C 202.902344 240.496094 201.933594 241.867188 200.933594 243.214844 C 199.933594 244.566406 198.902344 245.890625 197.835938 247.1875 C 196.769531 248.484375 195.671875 249.757812 194.546875 251.003906 C 193.417969 252.246094 192.257812 253.460938 191.070312 254.652344 C 189.882812 255.839844 188.667969 256.996094 187.421875 258.125 C 186.179688 259.25 184.90625 260.347656 183.609375 261.414062 C 182.308594 262.480469 180.988281 263.511719 179.636719 264.511719 C 178.289062 265.515625 176.914062 266.480469 175.519531 267.414062 C 174.121094 268.347656 172.703125 269.246094 171.261719 270.109375 C 169.824219 270.972656 168.363281 271.800781 166.878906 272.59375 C 165.398438 273.382812 163.898438 274.136719 162.378906 274.855469 C 160.863281 275.574219 159.328125 276.253906 157.777344 276.898438 C 156.222656 277.539062 154.65625 278.144531 153.074219 278.710938 C 151.492188 279.277344 149.898438 279.804688 148.292969 280.292969 C 146.683594 280.777344 145.066406 281.226562 143.4375 281.632812 C 141.808594 282.042969 140.167969 282.410156 138.523438 282.738281 C 136.875 283.066406 135.21875 283.351562 133.558594 283.601562 C 131.898438 283.847656 130.230469 284.050781 128.558594 284.214844 C 126.886719 284.382812 125.214844 284.503906 123.535156 284.585938 C 121.859375 284.667969 120.179688 284.710938 118.5 284.710938 C 116.820312 284.710938 115.140625 284.667969 113.464844 284.585938 C 111.785156 284.503906 110.113281 284.382812 108.441406 284.214844 C 106.769531 284.050781 105.101562 283.847656 103.441406 283.601562 C 101.78125 283.351562 100.125 283.066406 98.476562 282.738281 C 96.832031 282.410156 95.191406 282.042969 93.5625 281.632812 C 91.933594 281.226562 90.316406 280.777344 88.707031 280.292969 C 87.101562 279.804688 85.507812 279.277344 83.925781 278.710938 C 82.34375 278.144531 80.777344 277.539062 79.222656 276.898438 C 77.671875 276.253906 76.136719 275.574219 74.621094 274.855469 C 73.101562 274.136719 71.601562 273.382812 70.121094 272.59375 C 68.636719 271.800781 67.175781 270.972656 65.738281 270.109375 C 64.296875 269.246094 62.878906 268.347656 61.480469 267.414062 C 60.085938 266.480469 58.710938 265.515625 57.363281 264.511719 C 56.011719 263.511719 54.691406 262.480469 53.390625 261.414062 C 52.09375 260.347656 50.820312 259.25 49.578125 258.125 C 48.332031 256.996094 47.117188 255.839844 45.929688 254.652344 C 44.742188 253.460938 43.582031 252.246094 42.453125 251.003906 C 41.328125 249.757812 40.230469 248.484375 39.164062 247.1875 C 38.097656 245.890625 37.066406 244.566406 36.066406 243.214844 C 35.066406 241.867188 34.097656 240.496094 33.164062 239.097656 C 32.230469 237.703125 31.332031 236.28125 30.46875 234.84375 C 29.605469 233.402344 28.777344 231.941406 27.988281 230.460938 C 27.195312 228.976562 26.441406 227.476562 25.722656 225.960938 C 25.003906 224.441406 24.324219 222.90625 23.679688 221.355469 C 23.039062 219.800781 22.433594 218.234375 21.867188 216.65625 C 21.300781 215.074219 20.773438 213.480469 20.289062 211.871094 C 19.800781 210.265625 19.351562 208.644531 18.945312 207.015625 C 18.535156 205.386719 18.167969 203.75 17.839844 202.101562 C 17.511719 200.453125 17.226562 198.800781 16.980469 197.136719 C 16.734375 195.476562 16.527344 193.808594 16.363281 192.136719 C 16.199219 190.46875 16.074219 188.792969 15.992188 187.113281 C 15.910156 185.4375 15.867188 183.757812 15.867188 182.078125 L 15.867188 8.394531 C 15.867188 7.875 15.816406 7.363281 15.714844 6.855469 C 15.617188 6.347656 15.464844 5.851562 15.265625 5.375 C 15.070312 4.894531 14.824219 4.441406 14.539062 4.007812 C 14.25 3.578125 13.921875 3.179688 13.554688 2.8125 C 13.191406 2.445312 12.789062 2.117188 12.359375 1.832031 C 11.929688 1.542969 11.472656 1.300781 10.996094 1.101562 C 10.515625 0.902344 10.023438 0.753906 9.515625 0.652344 C 9.003906 0.550781 8.492188 0.5 7.972656 0.5 C 7.457031 0.5 6.941406 0.550781 6.433594 0.652344 C 5.925781 0.753906 5.429688 0.902344 4.953125 1.101562 C 4.472656 1.300781 4.019531 1.542969 3.585938 1.832031 C 3.15625 2.117188 2.757812 2.445312 2.390625 2.8125 C 2.023438 3.179688 1.699219 3.578125 1.410156 4.007812 C 1.121094 4.441406 0.878906 4.894531 0.679688 5.375 C 0.480469 5.851562 0.332031 6.347656 0.230469 6.855469 C 0.128906 7.363281 0.078125 7.875 0.078125 8.394531 L 0.078125 182.078125 C 0.078125 184.015625 0.125 185.953125 0.222656 187.890625 C 0.316406 189.824219 0.460938 191.757812 0.648438 193.6875 C 0.839844 195.613281 1.078125 197.539062 1.359375 199.453125 C 1.644531 201.371094 1.976562 203.28125 2.355469 205.183594 C 2.734375 207.082031 3.15625 208.972656 3.628906 210.851562 C 4.097656 212.734375 4.617188 214.601562 5.179688 216.453125 C 5.742188 218.308594 6.347656 220.148438 7 221.972656 C 7.652344 223.796875 8.351562 225.605469 9.09375 227.398438 C 9.835938 229.1875 10.621094 230.957031 11.449219 232.710938 C 12.277344 234.460938 13.148438 236.191406 14.0625 237.902344 C 14.976562 239.613281 15.929688 241.296875 16.925781 242.960938 C 17.921875 244.621094 18.960938 246.257812 20.035156 247.871094 C 21.113281 249.480469 22.230469 251.066406 23.382812 252.621094 C 24.539062 254.179688 25.730469 255.707031 26.960938 257.203125 C 28.1875 258.703125 29.453125 260.167969 30.753906 261.605469 C 32.058594 263.042969 33.394531 264.445312 34.761719 265.816406 C 36.132812 267.1875 37.539062 268.523438 38.972656 269.824219 C 40.410156 271.125 41.875 272.390625 43.375 273.621094 C 44.871094 274.847656 46.398438 276.042969 47.957031 277.195312 C 49.511719 278.351562 51.097656 279.464844 52.707031 280.542969 C 54.320312 281.617188 55.957031 282.65625 57.621094 283.652344 C 59.28125 284.648438 60.96875 285.601562 62.675781 286.515625 C 64.386719 287.429688 66.117188 288.300781 67.867188 289.128906 C 69.621094 289.957031 71.390625 290.742188 73.183594 291.484375 C 74.972656 292.226562 76.78125 292.925781 78.605469 293.578125 C 80.429688 294.230469 82.269531 294.839844 84.125 295.402344 C 85.980469 295.964844 87.847656 296.480469 89.726562 296.949219 C 91.605469 297.421875 93.496094 297.847656 95.398438 298.222656 C 97.296875 298.601562 99.207031 298.933594 101.125 299.21875 C 103.042969 299.503906 104.964844 299.738281 106.894531 299.929688 C 108.820312 300.121094 110.753906 300.261719 112.6875 300.355469 C 114.625 300.453125 116.5625 300.5 118.5 300.5 C 120.4375 300.5 122.375 300.453125 124.3125 300.355469 C 126.246094 300.261719 128.179688 300.121094 130.105469 299.929688 C 132.035156 299.738281 133.957031 299.503906 135.875 299.21875 C 137.792969 298.933594 139.703125 298.601562 141.601562 298.222656 C 143.503906 297.847656 145.394531 297.421875 147.273438 296.949219 C 149.152344 296.480469 151.019531 295.964844 152.875 295.402344 C 154.730469 294.839844 156.570312 294.230469 158.394531 293.578125 C 160.21875 292.925781 162.027344 292.226562 163.816406 291.484375 C 165.609375 290.742188 167.378906 289.957031 169.132812 289.128906 C 170.882812 288.300781 172.613281 287.429688 174.324219 286.515625 C 176.03125 285.601562 177.71875 284.648438 179.378906 283.652344 C 181.042969 282.65625 182.679688 281.617188 184.292969 280.542969 C 185.902344 279.464844 187.488281 278.351562 189.042969 277.195312 C 190.601562 276.042969 192.128906 274.847656 193.625 273.621094 C 195.125 272.390625 196.589844 271.125 198.027344 269.824219 C 199.460938 268.523438 200.867188 267.1875 202.234375 265.816406 C 203.605469 264.445312 204.941406 263.042969 206.246094 261.605469 C 207.546875 260.167969 208.8125 258.703125 210.039062 257.203125 C 211.269531 255.707031 212.460938 254.179688 213.617188 252.621094 C 214.769531 251.066406 215.886719 249.480469 216.964844 247.871094 C 218.039062 246.257812 219.078125 244.621094 220.074219 242.960938 C 221.070312 241.296875 222.023438 239.613281 222.9375 237.902344 C 223.851562 236.191406 224.722656 234.460938 225.550781 232.710938 C 226.378906 230.957031 227.164062 229.1875 227.90625 227.398438 C 228.648438 225.605469 229.347656 223.796875 230 221.972656 C 230.652344 220.148438 231.257812 218.308594 231.820312 216.453125 C 232.382812 214.601562 232.902344 212.734375 233.371094 210.851562 C 233.84375 208.972656 234.265625 207.082031 234.644531 205.183594 C 235.023438 203.28125 235.355469 201.371094 235.640625 199.453125 C 235.921875 197.539062 236.160156 195.613281 236.351562 193.6875 C 236.539062 191.757812 236.683594 189.824219 236.777344 187.890625 C 236.875 185.953125 236.921875 184.015625 236.921875 182.078125 Z M 236.921875 8.394531 " fill-opacity="1" fill-rule="nonzero"/></g></g></g></g></svg>