<svg xmlns="http://www.w3.org/2000/svg" xmlns:xlink="http://www.w3.org/1999/xlink" width="500" zoomAndPan="magnify" viewBox="0 0 375 374.999991" height="500" preserveAspectRatio="xMidYMid meet" version="1.0"><defs><clipPath id="96f9c64e5a"><path d="M 65.613281 75.910156 L 345.363281 75.910156 L 345.363281 297.160156 L 65.613281 297.160156 Z M 65.613281 75.910156 " clip-rule="nonzero"/></clipPath></defs><rect x="-37.5" width="450" fill="#ffffff" y="-37.499999" height="449.999989" fill-opacity="1"/><rect x="-37.5" width="450" fill="#ffffff" y="-37.499999" height="449.999989" fill-opacity="1"/><g clip-path="url(#96f9c64e5a)"><path fill="#000000" d="M 338.003906 75.984375 C 338.488281 75.984375 338.964844 76.03125 339.4375 76.125 C 339.914062 76.21875 340.375 76.359375 340.820312 76.542969 C 341.265625 76.730469 341.691406 76.957031 342.09375 77.226562 C 342.496094 77.492188 342.867188 77.800781 343.207031 78.140625 C 343.550781 78.484375 343.855469 78.855469 344.125 79.257812 C 344.394531 79.660156 344.621094 80.085938 344.804688 80.53125 C 344.988281 80.980469 345.128906 81.441406 345.222656 81.914062 C 345.316406 82.390625 345.363281 82.871094 345.363281 83.351562 C 345.363281 83.835938 345.316406 84.316406 345.222656 84.792969 C 345.128906 85.265625 344.988281 85.726562 344.804688 86.171875 C 344.621094 86.621094 344.394531 87.046875 344.125 87.449219 C 343.855469 87.851562 343.550781 88.222656 343.207031 88.566406 C 342.867188 88.90625 342.496094 89.210938 342.09375 89.480469 C 341.691406 89.75 341.265625 89.976562 340.820312 90.164062 C 340.375 90.347656 339.914062 90.488281 339.4375 90.582031 C 338.964844 90.675781 338.488281 90.722656 338.003906 90.722656 L 176.042969 90.722656 C 174.476562 90.722656 172.910156 90.761719 171.347656 90.839844 C 169.78125 90.914062 168.21875 91.03125 166.660156 91.183594 C 165.101562 91.339844 163.550781 91.53125 162 91.761719 C 160.449219 91.992188 158.90625 92.257812 157.371094 92.5625 C 155.835938 92.871094 154.308594 93.214844 152.789062 93.59375 C 151.269531 93.976562 149.761719 94.394531 148.261719 94.847656 C 146.761719 95.304688 145.277344 95.796875 143.800781 96.324219 C 142.324219 96.851562 140.867188 97.417969 139.417969 98.015625 C 137.972656 98.617188 136.539062 99.253906 135.125 99.921875 C 133.707031 100.59375 132.308594 101.296875 130.929688 102.035156 C 129.546875 102.777344 128.183594 103.546875 126.839844 104.355469 C 125.496094 105.160156 124.175781 106 122.871094 106.871094 C 121.570312 107.742188 120.289062 108.644531 119.03125 109.578125 C 117.773438 110.511719 116.539062 111.476562 115.328125 112.472656 C 114.117188 113.464844 112.933594 114.492188 111.773438 115.542969 C 110.609375 116.597656 109.476562 117.675781 108.371094 118.785156 C 107.261719 119.894531 106.183594 121.03125 105.128906 122.191406 C 104.078125 123.355469 103.054688 124.542969 102.0625 125.753906 C 101.070312 126.964844 100.105469 128.203125 99.171875 129.460938 C 98.238281 130.71875 97.335938 132 96.46875 133.304688 C 95.597656 134.609375 94.757812 135.933594 93.953125 137.277344 C 93.148438 138.625 92.378906 139.988281 91.640625 141.371094 C 90.902344 142.753906 90.195312 144.152344 89.527344 145.570312 C 88.859375 146.988281 88.222656 148.421875 87.625 149.871094 C 87.023438 151.320312 86.460938 152.78125 85.933594 154.257812 C 85.40625 155.734375 84.914062 157.222656 84.460938 158.722656 C 84.003906 160.222656 83.585938 161.734375 83.207031 163.253906 C 82.824219 164.777344 82.484375 166.304688 82.175781 167.84375 C 81.871094 169.382812 81.605469 170.925781 81.375 172.476562 C 81.144531 174.027344 80.953125 175.585938 80.800781 177.144531 C 80.644531 178.707031 80.53125 180.269531 80.453125 181.835938 C 80.378906 183.402344 80.339844 184.96875 80.339844 186.535156 C 80.339844 188.105469 80.378906 189.671875 80.453125 191.238281 C 80.53125 192.804688 80.644531 194.367188 80.800781 195.925781 C 80.953125 197.488281 81.144531 199.042969 81.375 200.59375 C 81.605469 202.144531 81.871094 203.691406 82.175781 205.230469 C 82.484375 206.765625 82.824219 208.296875 83.207031 209.816406 C 83.585938 211.339844 84.003906 212.847656 84.460938 214.347656 C 84.914062 215.851562 85.40625 217.339844 85.933594 218.816406 C 86.460938 220.292969 87.023438 221.753906 87.625 223.203125 C 88.222656 224.652344 88.859375 226.085938 89.527344 227.5 C 90.195312 228.917969 90.902344 230.320312 91.640625 231.703125 C 92.378906 233.085938 93.148438 234.449219 93.953125 235.792969 C 94.761719 237.140625 95.597656 238.464844 96.46875 239.765625 C 97.335938 241.070312 98.238281 242.351562 99.171875 243.613281 C 100.105469 244.871094 101.070312 246.105469 102.0625 247.320312 C 103.054688 248.53125 104.078125 249.71875 105.128906 250.878906 C 106.183594 252.042969 107.261719 253.175781 108.371094 254.285156 C 109.476562 255.394531 110.609375 256.476562 111.773438 257.527344 C 112.933594 258.582031 114.117188 259.605469 115.328125 260.601562 C 116.539062 261.59375 117.773438 262.558594 119.03125 263.492188 C 120.289062 264.429688 121.570312 265.332031 122.871094 266.203125 C 124.175781 267.074219 125.496094 267.910156 126.839844 268.71875 C 128.183594 269.523438 129.546875 270.296875 130.929688 271.035156 C 132.308594 271.773438 133.707031 272.480469 135.125 273.148438 C 136.539062 273.820312 137.972656 274.457031 139.417969 275.054688 C 140.867188 275.65625 142.324219 276.21875 143.800781 276.75 C 145.277344 277.277344 146.761719 277.769531 148.261719 278.222656 C 149.761719 278.679688 151.269531 279.097656 152.789062 279.476562 C 154.308594 279.859375 155.835938 280.203125 157.371094 280.507812 C 158.90625 280.8125 160.449219 281.082031 162 281.3125 C 163.550781 281.542969 165.101562 281.734375 166.660156 281.886719 C 168.21875 282.042969 169.78125 282.15625 171.347656 282.234375 C 172.910156 282.3125 174.476562 282.347656 176.042969 282.347656 L 338.003906 282.347656 C 338.488281 282.347656 338.964844 282.398438 339.4375 282.492188 C 339.914062 282.585938 340.375 282.726562 340.820312 282.910156 C 341.265625 283.09375 341.691406 283.324219 342.09375 283.589844 C 342.496094 283.859375 342.867188 284.164062 343.207031 284.507812 C 343.550781 284.851562 343.855469 285.222656 344.125 285.625 C 344.394531 286.027344 344.621094 286.453125 344.804688 286.898438 C 344.988281 287.347656 345.128906 287.808594 345.222656 288.28125 C 345.316406 288.757812 345.363281 289.234375 345.363281 289.71875 C 345.363281 290.203125 345.316406 290.683594 345.222656 291.15625 C 345.128906 291.632812 344.988281 292.09375 344.804688 292.539062 C 344.621094 292.988281 344.394531 293.410156 344.125 293.8125 C 343.855469 294.214844 343.550781 294.589844 343.207031 294.929688 C 342.867188 295.273438 342.496094 295.578125 342.09375 295.847656 C 341.691406 296.117188 341.265625 296.34375 340.820312 296.527344 C 340.375 296.714844 339.914062 296.855469 339.4375 296.949219 C 338.964844 297.042969 338.488281 297.089844 338.003906 297.089844 L 176.042969 297.089844 C 174.234375 297.089844 172.429688 297.046875 170.625 296.957031 C 168.820312 296.867188 167.015625 296.734375 165.21875 296.558594 C 163.421875 296.378906 161.628906 296.160156 159.839844 295.894531 C 158.050781 295.628906 156.273438 295.320312 154.5 294.964844 C 152.726562 294.613281 150.964844 294.214844 149.210938 293.777344 C 147.457031 293.335938 145.714844 292.855469 143.988281 292.328125 C 142.257812 291.804688 140.542969 291.238281 138.839844 290.628906 C 137.140625 290.019531 135.453125 289.367188 133.785156 288.675781 C 132.113281 287.980469 130.460938 287.25 128.828125 286.476562 C 127.195312 285.703125 125.582031 284.890625 123.988281 284.035156 C 122.394531 283.183594 120.820312 282.292969 119.269531 281.359375 C 117.722656 280.429688 116.195312 279.464844 114.691406 278.457031 C 113.191406 277.453125 111.710938 276.410156 110.261719 275.332031 C 108.808594 274.257812 107.386719 273.144531 105.988281 271.996094 C 104.589844 270.847656 103.222656 269.667969 101.882812 268.449219 C 100.542969 267.234375 99.234375 265.988281 97.957031 264.710938 C 96.679688 263.429688 95.433594 262.121094 94.222656 260.78125 C 93.007812 259.4375 91.828125 258.070312 90.679688 256.671875 C 89.535156 255.273438 88.421875 253.847656 87.347656 252.394531 C 86.269531 250.941406 85.230469 249.460938 84.226562 247.957031 C 83.222656 246.453125 82.253906 244.925781 81.324219 243.371094 C 80.394531 241.820312 79.507812 240.246094 78.652344 238.652344 C 77.800781 237.054688 76.988281 235.441406 76.21875 233.804688 C 75.445312 232.167969 74.710938 230.515625 74.019531 228.84375 C 73.328125 227.171875 72.679688 225.484375 72.070312 223.78125 C 71.460938 222.078125 70.894531 220.359375 70.371094 218.628906 C 69.84375 216.898438 69.363281 215.152344 68.925781 213.398438 C 68.484375 211.644531 68.089844 209.878906 67.738281 208.105469 C 67.382812 206.328125 67.074219 204.546875 66.808594 202.757812 C 66.546875 200.96875 66.324219 199.171875 66.148438 197.371094 C 65.96875 195.570312 65.835938 193.769531 65.746094 191.960938 C 65.660156 190.152344 65.613281 188.34375 65.613281 186.535156 C 65.613281 184.726562 65.660156 182.917969 65.746094 181.113281 C 65.835938 179.304688 65.96875 177.5 66.148438 175.699219 C 66.324219 173.898438 66.546875 172.105469 66.808594 170.316406 C 67.074219 168.523438 67.382812 166.742188 67.738281 164.96875 C 68.089844 163.195312 68.484375 161.429688 68.925781 159.675781 C 69.363281 157.917969 69.84375 156.175781 70.371094 154.445312 C 70.894531 152.714844 71.460938 150.996094 72.070312 149.292969 C 72.679688 147.589844 73.328125 145.902344 74.019531 144.230469 C 74.710938 142.558594 75.445312 140.902344 76.21875 139.269531 C 76.988281 137.632812 77.800781 136.015625 78.652344 134.421875 C 79.507812 132.828125 80.398438 131.253906 81.324219 129.699219 C 82.253906 128.148438 83.222656 126.621094 84.226562 125.117188 C 85.230469 123.613281 86.269531 122.132812 87.347656 120.679688 C 88.421875 119.226562 89.535156 117.800781 90.679688 116.402344 C 91.828125 115.003906 93.007812 113.632812 94.222656 112.292969 C 95.433594 110.953125 96.679688 109.644531 97.957031 108.363281 C 99.234375 107.082031 100.542969 105.835938 101.882812 104.621094 C 103.222656 103.40625 104.589844 102.226562 105.988281 101.078125 C 107.386719 99.929688 108.808594 98.816406 110.261719 97.738281 C 111.710938 96.660156 113.191406 95.621094 114.691406 94.613281 C 116.195312 93.609375 117.722656 92.640625 119.269531 91.710938 C 120.820312 90.78125 122.394531 89.890625 123.988281 89.035156 C 125.582031 88.183594 127.195312 87.371094 128.828125 86.597656 C 130.460938 85.824219 132.113281 85.089844 133.785156 84.398438 C 135.453125 83.707031 137.140625 83.054688 138.839844 82.445312 C 140.542969 81.835938 142.257812 81.269531 143.988281 80.742188 C 145.714844 80.21875 147.457031 79.734375 149.210938 79.296875 C 150.964844 78.855469 152.726562 78.460938 154.5 78.105469 C 156.273438 77.753906 158.050781 77.445312 159.839844 77.179688 C 161.628906 76.914062 163.421875 76.691406 165.21875 76.515625 C 167.015625 76.339844 168.820312 76.203125 170.625 76.117188 C 172.429688 76.027344 174.234375 75.984375 176.042969 75.984375 Z M 338.003906 75.984375 " fill-opacity="1" fill-rule="nonzero"/></g><path stroke-linecap="butt" transform="matrix(0, -0.75, 0.75, 0, 29.621112, 299.085919)" fill="none" stroke-linejoin="miter" d="M -0.0000249866 10.499977 L 297.572911 10.499977 " stroke="#000000" stroke-width="21" stroke-opacity="1" stroke-miterlimit="4"/></svg>