<svg xmlns="http://www.w3.org/2000/svg" xmlns:xlink="http://www.w3.org/1999/xlink" width="500" zoomAndPan="magnify" viewBox="0 0 375 374.999991" height="500" preserveAspectRatio="xMidYMid meet" version="1.0"><defs><clipPath id="74af904170"><path d="M 40.675781 37.5 L 331.417969 37.5 L 331.417969 338 L 40.675781 338 Z M 40.675781 37.5 " clip-rule="nonzero"/></clipPath><clipPath id="a66eb0201a"><path d="M 186.046875 37.5 C 105.757812 37.5 40.675781 104.65625 40.675781 187.5 C 40.675781 270.34375 105.757812 337.5 186.046875 337.5 C 266.332031 337.5 331.417969 270.34375 331.417969 187.5 C 331.417969 104.65625 266.332031 37.5 186.046875 37.5 Z M 186.046875 37.5 " clip-rule="nonzero"/></clipPath><clipPath id="dfca92bd75"><path d="M 0.675781 0.5 L 291.417969 0.5 L 291.417969 300.679688 L 0.675781 300.679688 Z M 0.675781 0.5 " clip-rule="nonzero"/></clipPath><clipPath id="7b77b4c6e7"><path d="M 146.046875 0.5 C 65.757812 0.5 0.675781 67.65625 0.675781 150.5 C 0.675781 233.34375 65.757812 300.5 146.046875 300.5 C 226.332031 300.5 291.417969 233.34375 291.417969 150.5 C 291.417969 67.65625 226.332031 0.5 146.046875 0.5 Z M 146.046875 0.5 " clip-rule="nonzero"/></clipPath><clipPath id="478cc6a53d"><rect x="0" width="292" y="0" height="301"/></clipPath><clipPath id="d561d3a93c"><path d="M 52.347656 50.292969 L 318.292969 50.292969 L 318.292969 325 L 52.347656 325 Z M 52.347656 50.292969 " clip-rule="nonzero"/></clipPath><clipPath id="ee8f5963d5"><path d="M 185.320312 50.292969 C 111.878906 50.292969 52.347656 111.722656 52.347656 187.5 C 52.347656 263.277344 111.878906 324.707031 185.320312 324.707031 C 258.757812 324.707031 318.292969 263.277344 318.292969 187.5 C 318.292969 111.722656 258.757812 50.292969 185.320312 50.292969 Z M 185.320312 50.292969 " clip-rule="nonzero"/></clipPath><clipPath id="7dbbc3bbbc"><path d="M 0.347656 0.292969 L 266.292969 0.292969 L 266.292969 274.71875 L 0.347656 274.71875 Z M 0.347656 0.292969 " clip-rule="nonzero"/></clipPath><clipPath id="3d252594d5"><path d="M 133.320312 0.292969 C 59.878906 0.292969 0.347656 61.722656 0.347656 137.5 C 0.347656 213.277344 59.878906 274.707031 133.320312 274.707031 C 206.757812 274.707031 266.292969 213.277344 266.292969 137.5 C 266.292969 61.722656 206.757812 0.292969 133.320312 0.292969 Z M 133.320312 0.292969 " clip-rule="nonzero"/></clipPath><clipPath id="648e5e9c1f"><rect x="0" width="267" y="0" height="275"/></clipPath></defs><rect x="-37.5" width="450" fill="#ffffff" y="-37.499999" height="449.999989" fill-opacity="1"/><rect x="-37.5" width="450" fill="#ffffff" y="-37.499999" height="449.999989" fill-opacity="1"/><g clip-path="url(#74af904170)"><g clip-path="url(#a66eb0201a)"><g transform="matrix(1, 0, 0, 1, 40, 37)"><g clip-path="url(#478cc6a53d)"><g clip-path="url(#dfca92bd75)"><g clip-path="url(#7b77b4c6e7)"><path fill="#000000" d="M 0.675781 0.5 L 291.417969 0.5 L 291.417969 300.328125 L 0.675781 300.328125 Z M 0.675781 0.5 " fill-opacity="1" fill-rule="nonzero"/></g></g></g></g></g></g><g clip-path="url(#d561d3a93c)"><g clip-path="url(#ee8f5963d5)"><g transform="matrix(1, 0, 0, 1, 52, 50)"><g clip-path="url(#648e5e9c1f)"><g clip-path="url(#7dbbc3bbbc)"><g clip-path="url(#3d252594d5)"><path fill="#ffffff" d="M 0.347656 0.292969 L 266.292969 0.292969 L 266.292969 274.550781 L 0.347656 274.550781 Z M 0.347656 0.292969 " fill-opacity="1" fill-rule="nonzero"/></g></g></g></g></g></g></svg>