<svg xmlns="http://www.w3.org/2000/svg" xmlns:xlink="http://www.w3.org/1999/xlink" width="500" zoomAndPan="magnify" viewBox="0 0 375 374.999991" height="500" preserveAspectRatio="xMidYMid meet" version="1.0"><defs><clipPath id="9464175d07"><path d="M 38 201 L 337 201 L 337 266.625 L 38 266.625 Z M 38 201 " clip-rule="nonzero"/></clipPath><clipPath id="c21ebdfd18"><path d="M 37.5 102.75 L 337.5 102.75 L 337.5 187.5 L 37.5 187.5 Z M 37.5 102.75 " clip-rule="nonzero"/></clipPath><clipPath id="fa57e38c7c"><path d="M 0.5 0.75 L 300.5 0.75 L 300.5 85.5 L 0.5 85.5 Z M 0.5 0.75 " clip-rule="nonzero"/></clipPath><clipPath id="153523e46b"><rect x="0" width="301" y="0" height="86"/></clipPath></defs><rect x="-37.5" width="450" fill="#ffffff" y="-37.499999" height="449.999989" fill-opacity="1"/><rect x="-37.5" width="450" fill="#ffffff" y="-37.499999" height="449.999989" fill-opacity="1"/><g clip-path="url(#9464175d07)"><path fill="#000000" d="M 334.742188 230.710938 C 320.121094 259.347656 285.648438 266.332031 257.078125 257.101562 C 228.507812 247.875 210.035156 223.917969 183.734375 211.113281 C 134.433594 187.125 70.652344 211.667969 39.003906 253.90625 C 37.4375 255.996094 40.480469 258.832031 42.546875 257.363281 C 67.160156 240.875 89.503906 222.019531 119.109375 215.054688 C 126.664062 213.207031 134.332031 212.238281 142.109375 212.144531 C 149.886719 212.050781 157.574219 212.835938 165.171875 214.5 C 180.464844 218.0625 193.226562 226.339844 205.75 235.480469 C 227.992188 251.691406 251.796875 266.589844 280.316406 266.125 C 303.710938 265.761719 326.761719 253.59375 336.839844 231.851562 C 337.511719 230.539062 335.480469 229.292969 334.742188 230.710938 Z M 334.742188 230.710938 " fill-opacity="1" fill-rule="nonzero"/></g><g clip-path="url(#c21ebdfd18)"><g transform="matrix(1, 0, 0, 1, 37, 102)"><g clip-path="url(#153523e46b)"><g clip-path="url(#fa57e38c7c)"><path fill="#000000" d="M 203.824219 5.6875 C 206.199219 11.089844 208.242188 16.867188 209.449219 21.574219 C 210.398438 25.269531 211.71875 32.835938 211.71875 34.566406 L 211.71875 35.835938 L 0.679688 35.835938 L 0.679688 50.398438 L 211.71875 50.398438 L 211.71875 51.667969 C 211.71875 53.398438 210.398438 60.964844 209.449219 64.65625 C 208.242188 69.367188 206.199219 75.140625 203.824219 80.546875 C 202.632812 83.265625 201.683594 85.492188 201.71875 85.492188 C 202.207031 85.492188 300.207031 43.398438 300.273438 43.160156 C 300.339844 42.929688 202.335938 0.742188 201.722656 0.742188 C 201.6875 0.742188 202.632812 2.96875 203.824219 5.6875 Z M 203.824219 5.6875 " fill-opacity="1" fill-rule="nonzero"/></g></g></g></g></svg>