<svg xmlns="http://www.w3.org/2000/svg" xmlns:xlink="http://www.w3.org/1999/xlink" width="500" zoomAndPan="magnify" viewBox="0 0 375 374.999991" height="500" preserveAspectRatio="xMidYMid meet" version="1.0"><defs><clipPath id="9df17f2aac"><path d="M 41.917969 75.796875 L 332.917969 75.796875 L 332.917969 305.296875 L 41.917969 305.296875 Z M 41.917969 75.796875 " clip-rule="nonzero"/></clipPath></defs><rect x="-37.5" width="450" fill="#ffffff" y="-37.499999" height="449.999989" fill-opacity="1"/><rect x="-37.5" width="450" fill="#ffffff" y="-37.499999" height="449.999989" fill-opacity="1"/><g clip-path="url(#9df17f2aac)"><path fill="#000000" d="M 325.257812 75.875 C 325.761719 75.875 326.257812 75.921875 326.753906 76.023438 C 327.246094 76.121094 327.726562 76.265625 328.1875 76.457031 C 328.652344 76.648438 329.09375 76.882812 329.511719 77.164062 C 329.929688 77.441406 330.316406 77.757812 330.671875 78.113281 C 331.027344 78.46875 331.347656 78.855469 331.625 79.273438 C 331.90625 79.691406 332.140625 80.128906 332.332031 80.59375 C 332.527344 81.058594 332.671875 81.535156 332.769531 82.027344 C 332.867188 82.519531 332.917969 83.019531 332.917969 83.519531 C 332.917969 84.023438 332.867188 84.519531 332.769531 85.011719 C 332.671875 85.503906 332.527344 85.980469 332.332031 86.445312 C 332.140625 86.910156 331.90625 87.347656 331.625 87.765625 C 331.347656 88.183594 331.027344 88.570312 330.671875 88.925781 C 330.316406 89.28125 329.929688 89.597656 329.511719 89.875 C 329.09375 90.15625 328.652344 90.390625 328.1875 90.582031 C 327.726562 90.773438 327.246094 90.917969 326.753906 91.015625 C 326.257812 91.117188 325.761719 91.164062 325.257812 91.164062 L 156.785156 91.164062 C 155.15625 91.164062 153.527344 91.203125 151.898438 91.285156 C 150.273438 91.363281 148.648438 91.484375 147.027344 91.644531 C 145.40625 91.800781 143.789062 92 142.175781 92.238281 C 140.566406 92.480469 138.960938 92.757812 137.363281 93.074219 C 135.765625 93.390625 134.175781 93.746094 132.597656 94.144531 C 131.015625 94.539062 129.445312 94.972656 127.886719 95.445312 C 126.328125 95.914062 124.78125 96.425781 123.246094 96.972656 C 121.710938 97.523438 120.191406 98.105469 118.6875 98.730469 C 117.183594 99.351562 115.695312 100.011719 114.222656 100.707031 C 112.75 101.402344 111.292969 102.132812 109.855469 102.898438 C 108.417969 103.667969 107.003906 104.46875 105.605469 105.304688 C 104.207031 106.140625 102.832031 107.011719 101.476562 107.914062 C 100.121094 108.816406 98.789062 109.753906 97.480469 110.722656 C 96.171875 111.691406 94.890625 112.691406 93.628906 113.722656 C 92.371094 114.753906 91.136719 115.816406 89.929688 116.910156 C 88.722656 118 87.542969 119.121094 86.390625 120.273438 C 85.238281 121.421875 84.117188 122.601562 83.019531 123.804688 C 81.925781 125.011719 80.863281 126.242188 79.828125 127.5 C 78.796875 128.757812 77.792969 130.039062 76.824219 131.34375 C 75.851562 132.652344 74.914062 133.980469 74.011719 135.332031 C 73.105469 136.683594 72.234375 138.058594 71.394531 139.453125 C 70.558594 140.847656 69.753906 142.265625 68.988281 143.699219 C 68.21875 145.132812 67.488281 146.585938 66.789062 148.054688 C 66.09375 149.527344 65.433594 151.011719 64.808594 152.515625 C 64.1875 154.019531 63.601562 155.535156 63.050781 157.066406 C 62.503906 158.597656 61.992188 160.140625 61.519531 161.699219 C 61.046875 163.253906 60.613281 164.820312 60.214844 166.398438 C 59.820312 167.976562 59.464844 169.5625 59.144531 171.160156 C 58.828125 172.753906 58.550781 174.355469 58.308594 175.964844 C 58.070312 177.574219 57.871094 179.1875 57.710938 180.804688 C 57.550781 182.425781 57.433594 184.046875 57.351562 185.671875 C 57.273438 187.296875 57.234375 188.921875 57.234375 190.546875 C 57.234375 192.171875 57.273438 193.800781 57.351562 195.421875 C 57.433594 197.046875 57.550781 198.667969 57.710938 200.289062 C 57.871094 201.90625 58.070312 203.519531 58.308594 205.128906 C 58.550781 206.738281 58.828125 208.339844 59.144531 209.9375 C 59.464844 211.53125 59.820312 213.117188 60.214844 214.695312 C 60.613281 216.273438 61.046875 217.839844 61.519531 219.394531 C 61.992188 220.953125 62.503906 222.496094 63.050781 224.027344 C 63.601562 225.558594 64.1875 227.078125 64.808594 228.578125 C 65.433594 230.082031 66.09375 231.570312 66.789062 233.039062 C 67.488281 234.507812 68.21875 235.960938 68.988281 237.394531 C 69.753906 238.832031 70.558594 240.246094 71.394531 241.640625 C 72.234375 243.035156 73.105469 244.410156 74.011719 245.761719 C 74.914062 247.113281 75.851562 248.441406 76.824219 249.75 C 77.792969 251.054688 78.796875 252.335938 79.828125 253.59375 C 80.863281 254.851562 81.925781 256.082031 83.023438 257.289062 C 84.117188 258.492188 85.238281 259.671875 86.390625 260.820312 C 87.542969 261.972656 88.722656 263.09375 89.929688 264.183594 C 91.136719 265.277344 92.371094 266.339844 93.628906 267.371094 C 94.890625 268.402344 96.171875 269.402344 97.480469 270.371094 C 98.789062 271.339844 100.121094 272.277344 101.476562 273.179688 C 102.832031 274.085938 104.207031 274.953125 105.605469 275.789062 C 107.003906 276.625 108.417969 277.429688 109.855469 278.195312 C 111.292969 278.960938 112.75 279.691406 114.222656 280.386719 C 115.695312 281.082031 117.183594 281.742188 118.6875 282.363281 C 120.191406 282.988281 121.710938 283.574219 123.246094 284.121094 C 124.78125 284.667969 126.328125 285.179688 127.886719 285.652344 C 129.445312 286.121094 131.015625 286.554688 132.597656 286.953125 C 134.175781 287.347656 135.765625 287.703125 137.363281 288.019531 C 138.960938 288.335938 140.566406 288.617188 142.175781 288.855469 C 143.789062 289.09375 145.40625 289.292969 147.027344 289.453125 C 148.648438 289.609375 150.273438 289.730469 151.898438 289.808594 C 153.527344 289.890625 155.15625 289.929688 156.785156 289.929688 L 325.257812 289.929688 C 325.761719 289.929688 326.257812 289.980469 326.753906 290.078125 C 327.246094 290.175781 327.726562 290.320312 328.1875 290.511719 C 328.652344 290.703125 329.09375 290.9375 329.511719 291.21875 C 329.929688 291.496094 330.316406 291.8125 330.671875 292.167969 C 331.027344 292.523438 331.347656 292.910156 331.625 293.328125 C 331.90625 293.746094 332.140625 294.183594 332.332031 294.648438 C 332.527344 295.113281 332.671875 295.589844 332.769531 296.082031 C 332.867188 296.574219 332.917969 297.074219 332.917969 297.574219 C 332.917969 298.078125 332.867188 298.574219 332.769531 299.066406 C 332.671875 299.558594 332.527344 300.035156 332.332031 300.5 C 332.140625 300.964844 331.90625 301.40625 331.625 301.820312 C 331.347656 302.238281 331.027344 302.625 330.671875 302.980469 C 330.316406 303.335938 329.929688 303.652344 329.511719 303.929688 C 329.09375 304.210938 328.652344 304.445312 328.1875 304.636719 C 327.726562 304.828125 327.246094 304.976562 326.753906 305.074219 C 326.257812 305.171875 325.761719 305.21875 325.257812 305.21875 L 156.785156 305.21875 C 154.90625 305.21875 153.027344 305.171875 151.148438 305.082031 C 149.269531 304.988281 147.398438 304.851562 145.527344 304.667969 C 143.65625 304.484375 141.789062 304.253906 139.929688 303.976562 C 138.070312 303.703125 136.21875 303.382812 134.375 303.015625 C 132.53125 302.648438 130.699219 302.238281 128.875 301.78125 C 127.050781 301.328125 125.238281 300.828125 123.441406 300.28125 C 121.640625 299.738281 119.855469 299.148438 118.085938 298.515625 C 116.316406 297.882812 114.5625 297.207031 112.828125 296.492188 C 111.089844 295.773438 109.371094 295.011719 107.671875 294.210938 C 105.972656 293.40625 104.292969 292.5625 102.636719 291.679688 C 100.976562 290.792969 99.34375 289.871094 97.730469 288.90625 C 96.117188 287.941406 94.53125 286.9375 92.96875 285.894531 C 91.40625 284.851562 89.867188 283.769531 88.359375 282.652344 C 86.847656 281.535156 85.367188 280.378906 83.914062 279.191406 C 82.460938 278 81.035156 276.773438 79.644531 275.515625 C 78.25 274.253906 76.890625 272.960938 75.5625 271.632812 C 74.230469 270.304688 72.9375 268.945312 71.671875 267.554688 C 70.410156 266.164062 69.183594 264.746094 67.992188 263.292969 C 66.796875 261.84375 65.640625 260.363281 64.523438 258.859375 C 63.402344 257.351562 62.320312 255.816406 61.277344 254.253906 C 60.230469 252.695312 59.226562 251.109375 58.257812 249.5 C 57.292969 247.890625 56.367188 246.257812 55.480469 244.601562 C 54.59375 242.949219 53.75 241.273438 52.945312 239.574219 C 52.140625 237.878906 51.378906 236.164062 50.660156 234.429688 C 49.941406 232.695312 49.265625 230.945312 48.632812 229.179688 C 48 227.414062 47.410156 225.628906 46.863281 223.835938 C 46.316406 222.039062 45.816406 220.230469 45.359375 218.410156 C 44.902344 216.589844 44.492188 214.757812 44.125 212.917969 C 43.757812 211.078125 43.4375 209.230469 43.160156 207.375 C 42.882812 205.515625 42.652344 203.65625 42.46875 201.785156 C 42.285156 199.917969 42.148438 198.046875 42.054688 196.175781 C 41.960938 194.300781 41.917969 192.425781 41.917969 190.546875 C 41.917969 188.671875 41.960938 186.796875 42.054688 184.921875 C 42.148438 183.046875 42.285156 181.175781 42.46875 179.308594 C 42.652344 177.441406 42.882812 175.578125 43.160156 173.722656 C 43.4375 171.863281 43.757812 170.015625 44.125 168.175781 C 44.492188 166.335938 44.902344 164.503906 45.359375 162.683594 C 45.816406 160.863281 46.316406 159.054688 46.863281 157.257812 C 47.410156 155.464844 48 153.683594 48.632812 151.914062 C 49.265625 150.148438 49.941406 148.398438 50.660156 146.664062 C 51.378906 144.929688 52.140625 143.214844 52.945312 141.519531 C 53.75 139.820312 54.59375 138.144531 55.480469 136.492188 C 56.367188 134.835938 57.292969 133.203125 58.257812 131.59375 C 59.226562 129.984375 60.230469 128.398438 61.277344 126.839844 C 62.320312 125.277344 63.402344 123.746094 64.523438 122.238281 C 65.640625 120.730469 66.796875 119.25 67.992188 117.800781 C 69.183594 116.347656 70.410156 114.929688 71.671875 113.539062 C 72.9375 112.148438 74.230469 110.789062 75.5625 109.460938 C 76.890625 108.132812 78.25 106.839844 79.644531 105.582031 C 81.035156 104.320312 82.460938 103.09375 83.914062 101.902344 C 85.367188 100.714844 86.847656 99.558594 88.359375 98.441406 C 89.867188 97.324219 91.40625 96.242188 92.96875 95.199219 C 94.53125 94.15625 96.117188 93.152344 97.730469 92.1875 C 99.34375 91.222656 100.976562 90.300781 102.636719 89.414062 C 104.292969 88.53125 105.972656 87.6875 107.671875 86.882812 C 109.371094 86.082031 111.089844 85.320312 112.828125 84.605469 C 114.5625 83.886719 116.316406 83.210938 118.085938 82.578125 C 119.855469 81.945312 121.640625 81.355469 123.441406 80.8125 C 125.238281 80.269531 127.050781 79.765625 128.875 79.3125 C 130.699219 78.855469 132.53125 78.445312 134.375 78.078125 C 136.21875 77.710938 138.070312 77.390625 139.929688 77.117188 C 141.789062 76.839844 143.65625 76.609375 145.527344 76.425781 C 147.398438 76.242188 149.269531 76.105469 151.148438 76.011719 C 153.027344 75.921875 154.90625 75.875 156.785156 75.875 Z M 325.257812 75.875 " fill-opacity="1" fill-rule="nonzero"/></g><path stroke-linecap="butt" transform="matrix(0.398712, -0.635239, 0.635239, 0.398712, 121.642907, 328.725154)" fill="none" stroke-linejoin="miter" d="M 0.00136643 10.498485 L 457.794902 10.497894 " stroke="#000000" stroke-width="21" stroke-opacity="1" stroke-miterlimit="4"/></svg>