<svg xmlns="http://www.w3.org/2000/svg" xmlns:xlink="http://www.w3.org/1999/xlink" width="500" zoomAndPan="magnify" viewBox="0 0 375 374.999991" height="500" preserveAspectRatio="xMidYMid meet" version="1.0"><defs><clipPath id="7f150d60f5"><path d="M 37.5 37.5 L 337.5 37.5 L 337.5 337.5 L 37.5 337.5 Z M 37.5 37.5 " clip-rule="nonzero"/></clipPath><clipPath id="5beeb78539"><path d="M 187.5 37.5 C 104.65625 37.5 37.5 104.65625 37.5 187.5 C 37.5 270.34375 104.65625 337.5 187.5 337.5 C 270.34375 337.5 337.5 270.34375 337.5 187.5 C 337.5 104.65625 270.34375 37.5 187.5 37.5 Z M 187.5 37.5 " clip-rule="nonzero"/></clipPath><clipPath id="a936f1cf8a"><path d="M 0.5 0.5 L 300.5 0.5 L 300.5 300.5 L 0.5 300.5 Z M 0.5 0.5 " clip-rule="nonzero"/></clipPath><clipPath id="9967f2dff4"><path d="M 150.5 0.5 C 67.65625 0.5 0.5 67.65625 0.5 150.5 C 0.5 233.34375 67.65625 300.5 150.5 300.5 C 233.34375 300.5 300.5 233.34375 300.5 150.5 C 300.5 67.65625 233.34375 0.5 150.5 0.5 Z M 150.5 0.5 " clip-rule="nonzero"/></clipPath><clipPath id="67e9e24fe8"><rect x="0" width="301" y="0" height="301"/></clipPath><clipPath id="9e8b82b456"><path d="M 49.542969 50.292969 L 323.957031 50.292969 L 323.957031 324.707031 L 49.542969 324.707031 Z M 49.542969 50.292969 " clip-rule="nonzero"/></clipPath><clipPath id="ffde88f632"><path d="M 186.75 50.292969 C 110.972656 50.292969 49.542969 111.722656 49.542969 187.5 C 49.542969 263.277344 110.972656 324.707031 186.75 324.707031 C 262.527344 324.707031 323.957031 263.277344 323.957031 187.5 C 323.957031 111.722656 262.527344 50.292969 186.75 50.292969 Z M 186.75 50.292969 " clip-rule="nonzero"/></clipPath><clipPath id="4b610c965a"><path d="M 0.542969 0.292969 L 274.957031 0.292969 L 274.957031 274.707031 L 0.542969 274.707031 Z M 0.542969 0.292969 " clip-rule="nonzero"/></clipPath><clipPath id="55e0b1e4b2"><path d="M 137.75 0.292969 C 61.972656 0.292969 0.542969 61.722656 0.542969 137.5 C 0.542969 213.277344 61.972656 274.707031 137.75 274.707031 C 213.527344 274.707031 274.957031 213.277344 274.957031 137.5 C 274.957031 61.722656 213.527344 0.292969 137.75 0.292969 Z M 137.75 0.292969 " clip-rule="nonzero"/></clipPath><clipPath id="8e81a091bc"><rect x="0" width="275" y="0" height="275"/></clipPath></defs><rect x="-37.5" width="450" fill="#ffffff" y="-37.499999" height="449.999989" fill-opacity="1"/><rect x="-37.5" width="450" fill="#ffffff" y="-37.499999" height="449.999989" fill-opacity="1"/><g clip-path="url(#7f150d60f5)"><g clip-path="url(#5beeb78539)"><g transform="matrix(1, 0, 0, 1, 37, 37)"><g clip-path="url(#67e9e24fe8)"><g clip-path="url(#a936f1cf8a)"><g clip-path="url(#9967f2dff4)"><path fill="#000000" d="M 0.5 0.5 L 300.5 0.5 L 300.5 300.5 L 0.5 300.5 Z M 0.5 0.5 " fill-opacity="1" fill-rule="nonzero"/></g></g></g></g></g></g><g clip-path="url(#9e8b82b456)"><g clip-path="url(#ffde88f632)"><g transform="matrix(1, 0, 0, 1, 49, 50)"><g clip-path="url(#8e81a091bc)"><g clip-path="url(#4b610c965a)"><g clip-path="url(#55e0b1e4b2)"><path fill="#ffffff" d="M 0.542969 0.292969 L 274.957031 0.292969 L 274.957031 274.707031 L 0.542969 274.707031 Z M 0.542969 0.292969 " fill-opacity="1" fill-rule="nonzero"/></g></g></g></g></g></g><path stroke-linecap="butt" transform="matrix(0.494016, -0.564312, 0.564312, 0.494016, 88.580543, 291.723029)" fill="none" stroke-linejoin="miter" d="M -0.00164355 10.498045 L 386.940413 10.49941 " stroke="#000000" stroke-width="21" stroke-opacity="1" stroke-miterlimit="4"/><path stroke-linecap="butt" transform="matrix(0.53033, 0.53033, -0.53033, 0.53033, 90.465973, 76.901597)" fill="none" stroke-linejoin="miter" d="M -0.000360162 10.497886 L 386.93807 10.501569 " stroke="#000000" stroke-width="21" stroke-opacity="1" stroke-miterlimit="4"/></svg>