<svg xmlns="http://www.w3.org/2000/svg" xmlns:xlink="http://www.w3.org/1999/xlink" width="500" zoomAndPan="magnify" viewBox="0 0 375 374.999991" height="500" preserveAspectRatio="xMidYMid meet" version="1.0"><defs><clipPath id="f19022a4d0"><path d="M 0.320312 70 L 318.800781 70 L 318.800781 313.160156 L 0.320312 313.160156 Z M 0.320312 70 " clip-rule="nonzero"/></clipPath><clipPath id="16b10942d6"><path d="M 0.320312 0.921875 L 318.800781 0.921875 L 318.800781 248 L 0.320312 248 Z M 0.320312 0.921875 " clip-rule="nonzero"/></clipPath><clipPath id="1dcf1bbb9c"><rect x="0" width="319" y="0" height="314"/></clipPath></defs><rect x="-37.5" width="450" fill="#ffffff" y="-37.499999" height="449.999989" fill-opacity="1"/><rect x="-37.5" width="450" fill="#ffffff" y="-37.499999" height="449.999989" fill-opacity="1"/><g transform="matrix(1, 0, 0, 1, 28, 31)"><g clip-path="url(#1dcf1bbb9c)"><g clip-path="url(#f19022a4d0)"><path stroke-linecap="butt" transform="matrix(-0.665207, 0.324288, -0.324288, -0.665207, 311.277393, 165.093449)" fill="none" stroke-linejoin="miter" d="M 0.00189958 10.500026 L 445.000309 10.49883 " stroke="#000000" stroke-width="21" stroke-opacity="1" stroke-miterlimit="4"/></g><g clip-path="url(#16b10942d6)"><path stroke-linecap="butt" transform="matrix(-0.661914, -0.330957, 0.330957, -0.661914, 303.691028, 166.520762)" fill="none" stroke-linejoin="miter" d="M -0.00207443 10.501566 L 447.214074 10.499205 " stroke="#000000" stroke-width="21" stroke-opacity="1" stroke-miterlimit="4"/></g></g></g></svg>