<svg xmlns="http://www.w3.org/2000/svg" xmlns:xlink="http://www.w3.org/1999/xlink" width="500" zoomAndPan="magnify" viewBox="0 0 375 374.999991" height="500" preserveAspectRatio="xMidYMid meet" version="1.0"><defs><clipPath id="fcd8c7be27"><path d="M 0.480469 0.960938 L 314.878906 0.960938 L 314.878906 230 L 0.480469 230 Z M 0.480469 0.960938 " clip-rule="nonzero"/></clipPath><clipPath id="7eb8a7424a"><path d="M 0.480469 62 L 314.878906 62 L 314.878906 294.71875 L 0.480469 294.71875 Z M 0.480469 62 " clip-rule="nonzero"/></clipPath><clipPath id="df63007abd"><rect x="0" width="315" y="0" height="295"/></clipPath></defs><rect x="-37.5" width="450" fill="#ffffff" y="-37.499999" height="449.999989" fill-opacity="1"/><rect x="-37.5" width="450" fill="#ffffff" y="-37.499999" height="449.999989" fill-opacity="1"/><path stroke-linecap="butt" transform="matrix(-0.47405, 0.581185, -0.581185, -0.47405, 288.73853, 45.622907)" fill="none" stroke-linejoin="miter" d="M 0.00117801 10.000583 L 504.557821 9.997753 " stroke="#000000" stroke-width="20" stroke-opacity="1" stroke-miterlimit="4"/><g transform="matrix(1, 0, 0, 1, 30, 48)"><g clip-path="url(#df63007abd)"><g clip-path="url(#fcd8c7be27)"><path stroke-linecap="butt" transform="matrix(0.632643, -0.292755, 0.292755, 0.632643, 7.499566, 140.028576)" fill="none" stroke-linejoin="miter" d="M 0.00061591 10.501154 L 464.323335 10.499717 " stroke="#000000" stroke-width="21" stroke-opacity="1" stroke-miterlimit="4"/></g><g clip-path="url(#7eb8a7424a)"><path stroke-linecap="butt" transform="matrix(0.629765, 0.298895, -0.298895, 0.629765, 14.41327, 138.68363)" fill="none" stroke-linejoin="miter" d="M -0.00141527 10.501804 L 466.44758 10.499462 " stroke="#000000" stroke-width="21" stroke-opacity="1" stroke-miterlimit="4"/></g></g></g></svg>