<svg xmlns="http://www.w3.org/2000/svg" xmlns:xlink="http://www.w3.org/1999/xlink" width="500" zoomAndPan="magnify" viewBox="0 0 375 374.999991" height="500" preserveAspectRatio="xMidYMid meet" version="1.0"><rect x="-37.5" width="450" fill="#ffffff" y="-37.499999" height="449.999989" fill-opacity="1"/><rect x="-37.5" width="450" fill="#ffffff" y="-37.499999" height="449.999989" fill-opacity="1"/><path fill="#000000" d="M 40.257812 183.851562 C 54.878906 155.214844 89.351562 148.230469 117.921875 157.460938 C 146.492188 166.6875 164.964844 190.644531 191.265625 203.449219 C 240.566406 227.4375 304.347656 202.894531 335.996094 160.65625 C 337.5625 158.566406 334.519531 155.730469 332.453125 157.199219 C 307.839844 173.6875 285.496094 192.542969 255.890625 199.507812 C 248.335938 201.355469 240.667969 202.324219 232.890625 202.417969 C 225.113281 202.511719 217.425781 201.726562 209.828125 200.0625 C 194.535156 196.5 181.773438 188.222656 169.25 179.082031 C 147.007812 162.871094 123.203125 147.972656 94.683594 148.4375 C 71.289062 148.800781 48.238281 160.96875 38.160156 182.710938 C 37.488281 184.023438 39.519531 185.269531 40.257812 183.851562 Z M 40.257812 183.851562 " fill-opacity="1" fill-rule="nonzero"/></svg>