<svg xmlns="http://www.w3.org/2000/svg" xmlns:xlink="http://www.w3.org/1999/xlink" width="500" zoomAndPan="magnify" viewBox="0 0 375 374.999991" height="500" preserveAspectRatio="xMidYMid meet" version="1.0"><defs><clipPath id="95eb9aa346"><path d="M 38.398438 38.398438 L 336.601562 38.398438 L 336.601562 336.601562 L 38.398438 336.601562 Z M 38.398438 38.398438 " clip-rule="nonzero"/></clipPath><clipPath id="4a52835aa1"><path d="M 37.5 37.5 L 337.5 37.5 L 337.5 337.5 L 37.5 337.5 Z M 37.5 37.5 " clip-rule="nonzero"/></clipPath></defs><rect x="-37.5" width="450" fill="#ffffff" y="-37.499999" height="449.999989" fill-opacity="1"/><rect x="-37.5" width="450" fill="#ffffff" y="-37.499999" height="449.999989" fill-opacity="1"/><g clip-path="url(#95eb9aa346)"><path stroke-linecap="round" transform="matrix(0.688705, 0, 0, 0.688705, 15.609016, 14.704308)" fill="none" stroke-linejoin="round" d="M 32.381258 33.717583 L 466.750496 33.717583 L 466.750496 468.081149 L 32.381258 468.081149 Z M 32.381258 33.717583 " stroke="#000000" stroke-width="1.25" stroke-opacity="1" stroke-miterlimit="1.5"/></g><g clip-path="url(#4a52835aa1)"><path stroke-linecap="butt" transform="matrix(0.75, 0, 0, 0.75, 37.500002, 37.499998)" fill="none" stroke-linejoin="miter" d="M -0.00000271667 0.00000328333 L -0.00000271667 400.00003 L 400.000024 400.00003 L 400.000024 0.00000328333 L -0.00000271667 0.00000328333 " stroke="#000000" stroke-width="34" stroke-opacity="1" stroke-miterlimit="4"/></g><path stroke-linecap="butt" transform="matrix(0.749993, -0.00328535, 0.00328535, 0.749993, 75.659318, 180.750017)" fill="none" stroke-linejoin="miter" d="M -0.00184831 9.000056 L 298.167705 8.998884 " stroke="#000000" stroke-width="18" stroke-opacity="1" stroke-miterlimit="4"/><path stroke-linecap="butt" transform="matrix(0, -0.75, 0.75, 0, 180.749493, 300.621074)" fill="none" stroke-linejoin="miter" d="M -0.000026521 9.000676 L 301.656243 9.000676 " stroke="#000000" stroke-width="18" stroke-opacity="1" stroke-miterlimit="4"/></svg>