<svg xmlns="http://www.w3.org/2000/svg" xmlns:xlink="http://www.w3.org/1999/xlink" width="500" zoomAndPan="magnify" viewBox="0 0 375 374.999991" height="500" preserveAspectRatio="xMidYMid meet" version="1.0"><defs><clipPath id="bfe62dede1"><path d="M 38.398438 38.398438 L 336.601562 38.398438 L 336.601562 336.601562 L 38.398438 336.601562 Z M 38.398438 38.398438 " clip-rule="nonzero"/></clipPath><clipPath id="b0c1a3de9b"><path d="M 37.5 37.5 L 337.5 37.5 L 337.5 337.5 L 37.5 337.5 Z M 37.5 37.5 " clip-rule="nonzero"/></clipPath><clipPath id="26403dbfe2"><path d="M 0.398438 0.441406 L 214.480469 0.441406 L 214.480469 216.679688 L 0.398438 216.679688 Z M 0.398438 0.441406 " clip-rule="nonzero"/></clipPath><clipPath id="b9c8c7441c"><path d="M 96 0.441406 L 116 0.441406 L 116 216.679688 L 96 216.679688 Z M 96 0.441406 " clip-rule="nonzero"/></clipPath><clipPath id="283e288c4b"><rect x="0" width="215" y="0" height="217"/></clipPath></defs><rect x="-37.5" width="450" fill="#ffffff" y="-37.499999" height="449.999989" fill-opacity="1"/><rect x="-37.5" width="450" fill="#ffffff" y="-37.499999" height="449.999989" fill-opacity="1"/><g clip-path="url(#bfe62dede1)"><path stroke-linecap="round" transform="matrix(0.688705, 0, 0, 0.688705, 15.609016, 14.704308)" fill="none" stroke-linejoin="round" d="M 32.381258 33.717583 L 466.750496 33.717583 L 466.750496 468.081149 L 32.381258 468.081149 Z M 32.381258 33.717583 " stroke="#000000" stroke-width="1.25" stroke-opacity="1" stroke-miterlimit="1.5"/></g><g clip-path="url(#b0c1a3de9b)"><path stroke-linecap="butt" transform="matrix(0.75, 0, 0, 0.75, 37.500002, 37.499998)" fill="none" stroke-linejoin="miter" d="M -0.00000271667 0.00000328333 L -0.00000271667 400.00003 L 400.000024 400.00003 L 400.000024 0.00000328333 L -0.00000271667 0.00000328333 " stroke="#000000" stroke-width="70" stroke-opacity="1" stroke-miterlimit="4"/></g><g transform="matrix(1, 0, 0, 1, 80, 79)"><g clip-path="url(#283e288c4b)"><g clip-path="url(#26403dbfe2)"><path stroke-linecap="butt" transform="matrix(0.549152, -0.00240556, 0.00240556, 0.549152, 10.48673, 98.889793)" fill="none" stroke-linejoin="miter" d="M -0.00270117 17.50008 L 353.169804 17.496466 " stroke="#000000" stroke-width="35" stroke-opacity="1" stroke-miterlimit="4"/></g><g clip-path="url(#b9c8c7441c)"><path stroke-linecap="butt" transform="matrix(0, -0.549157, 0.549157, 0, 96.530291, 206.606017)" fill="none" stroke-linejoin="miter" d="M 0.000998795 17.500155 L 357.302862 17.500155 " stroke="#000000" stroke-width="35" stroke-opacity="1" stroke-miterlimit="4"/></g></g></g></svg>