<svg xmlns="http://www.w3.org/2000/svg" xmlns:xlink="http://www.w3.org/1999/xlink" width="500" zoomAndPan="magnify" viewBox="0 0 375 374.999991" height="500" preserveAspectRatio="xMidYMid meet" version="1.0"><defs><filter x="0%" y="0%" width="100%" height="100%" id="e714baea67"><feColorMatrix values="0 0 0 0 1 0 0 0 0 1 0 0 0 0 1 0 0 0 1 0" color-interpolation-filters="sRGB"/></filter><mask id="be15e9da59"><g filter="url(#e714baea67)"><rect x="-37.5" width="450" fill="#000000" y="-37.499999" height="449.999989" fill-opacity="0.78"/></g></mask><clipPath id="55a5ba2b51"><path d="M 38.398438 38.398438 L 336.601562 38.398438 L 336.601562 336.601562 L 38.398438 336.601562 Z M 38.398438 38.398438 " clip-rule="nonzero"/></clipPath><clipPath id="a92238e8e5"><path d="M 37.5 37.5 L 337.5 37.5 L 337.5 337.5 L 37.5 337.5 Z M 37.5 37.5 " clip-rule="nonzero"/></clipPath><clipPath id="5bb4a8098c"><rect x="0" width="375" y="0" height="375"/></clipPath><mask id="5e05a603b4"><g filter="url(#e714baea67)"><rect x="-37.5" width="450" fill="#000000" y="-37.499999" height="449.999989" fill-opacity="0.78"/></g></mask><clipPath id="bd979020e4"><path d="M 0.878906 0.519531 L 238.71875 0.519531 L 238.71875 15.398438 L 0.878906 15.398438 Z M 0.878906 0.519531 " clip-rule="nonzero"/></clipPath><clipPath id="53abd74c33"><rect x="0" width="239" y="0" height="16"/></clipPath><mask id="4449be5c20"><g filter="url(#e714baea67)"><rect x="-37.5" width="450" fill="#000000" y="-37.499999" height="449.999989" fill-opacity="0.78"/></g></mask><clipPath id="9ff865c487"><path d="M 0.71875 0.199219 L 14.398438 0.199219 L 14.398438 240.441406 L 0.71875 240.441406 Z M 0.71875 0.199219 " clip-rule="nonzero"/></clipPath><clipPath id="b74b377d4f"><rect x="0" width="15" y="0" height="241"/></clipPath></defs><rect x="-37.5" width="450" fill="#ffffff" y="-37.499999" height="449.999989" fill-opacity="1"/><rect x="-37.5" width="450" fill="#ffffff" y="-37.499999" height="449.999989" fill-opacity="1"/><g mask="url(#be15e9da59)"><g transform="matrix(1, 0, 0, 1, 0, 0)"><g clip-path="url(#5bb4a8098c)"><g clip-path="url(#55a5ba2b51)"><path stroke-linecap="round" transform="matrix(0.688705, 0, 0, 0.688705, 15.609016, 14.704308)" fill="none" stroke-linejoin="round" d="M 32.381258 33.717583 L 466.750496 33.717583 L 466.750496 468.081149 L 32.381258 468.081149 Z M 32.381258 33.717583 " stroke="#000000" stroke-width="1.25" stroke-opacity="1" stroke-miterlimit="1.5"/></g><g clip-path="url(#a92238e8e5)"><path stroke-linecap="butt" transform="matrix(0.75, 0, 0, 0.75, 37.500002, 37.499998)" fill="none" stroke-linejoin="miter" d="M -0.00000271667 0.00000328333 L -0.00000271667 400.00003 L 400.000024 400.00003 L 400.000024 0.00000328333 L -0.00000271667 0.00000328333 " stroke="#000000" stroke-width="34" stroke-opacity="1" stroke-miterlimit="4"/></g></g></g></g><g mask="url(#5e05a603b4)"><g transform="matrix(1, 0, 0, 1, 68, 179)"><g clip-path="url(#53abd74c33)"><g clip-path="url(#bd979020e4)"><path stroke-linecap="butt" transform="matrix(0.749993, -0.00328535, 0.00328535, 0.749993, 7.659318, 1.750017)" fill="none" stroke-linejoin="miter" d="M -0.00184895 9.000056 L 298.167705 8.998884 " stroke="#000000" stroke-width="18" stroke-opacity="1" stroke-miterlimit="4"/></g></g></g></g><g mask="url(#4449be5c20)"><g transform="matrix(1, 0, 0, 1, 180, 67)"><g clip-path="url(#b74b377d4f)"><g clip-path="url(#9ff865c487)"><path stroke-linecap="butt" transform="matrix(0, -0.75, 0.75, 0, 0.749495, 233.621074)" fill="none" stroke-linejoin="miter" d="M -0.000026521 9.000674 L 301.656243 9.000674 " stroke="#000000" stroke-width="18" stroke-opacity="1" stroke-miterlimit="4"/></g></g></g></g></svg>