<svg xmlns="http://www.w3.org/2000/svg" xmlns:xlink="http://www.w3.org/1999/xlink" width="500" zoomAndPan="magnify" viewBox="0 0 375 374.999991" height="500" preserveAspectRatio="xMidYMid meet" version="1.0"><defs><clipPath id="6ac9812bcb"><path d="M 38.398438 38.398438 L 336.601562 38.398438 L 336.601562 336.601562 L 38.398438 336.601562 Z M 38.398438 38.398438 " clip-rule="nonzero"/></clipPath><clipPath id="a5d1ea0929"><path d="M 37.5 37.5 L 337.5 37.5 L 337.5 337.5 L 37.5 337.5 Z M 37.5 37.5 " clip-rule="nonzero"/></clipPath><clipPath id="69cd756c82"><path d="M 0.238281 38 L 206.640625 38 L 206.640625 170 L 0.238281 170 Z M 0.238281 38 " clip-rule="nonzero"/></clipPath><clipPath id="4449857980"><path d="M 96 0.28125 L 108 0.28125 L 108 208.839844 L 96 208.839844 Z M 96 0.28125 " clip-rule="nonzero"/></clipPath><clipPath id="e56916939d"><rect x="0" width="207" y="0" height="209"/></clipPath></defs><rect x="-37.5" width="450" fill="#ffffff" y="-37.499999" height="449.999989" fill-opacity="1"/><rect x="-37.5" width="450" fill="#ffffff" y="-37.499999" height="449.999989" fill-opacity="1"/><g clip-path="url(#6ac9812bcb)"><path stroke-linecap="round" transform="matrix(0.688705, 0, 0, 0.688705, 15.609016, 14.704308)" fill="none" stroke-linejoin="round" d="M 32.381258 33.717583 L 466.750496 33.717583 L 466.750496 468.081149 L 32.381258 468.081149 Z M 32.381258 33.717583 " stroke="#000000" stroke-width="1.25" stroke-opacity="1" stroke-miterlimit="1.5"/></g><g clip-path="url(#a5d1ea0929)"><path stroke-linecap="butt" transform="matrix(0.75, 0, 0, 0.75, 37.500002, 37.499998)" fill="none" stroke-linejoin="miter" d="M -0.00000271667 0.00000328333 L -0.00000271667 400.00003 L 400.000024 400.00003 L 400.000024 0.00000328333 L -0.00000271667 0.00000328333 " stroke="#000000" stroke-width="42" stroke-opacity="1" stroke-miterlimit="4"/></g><g transform="matrix(1, 0, 0, 1, 84, 83)"><g clip-path="url(#e56916939d)"><g clip-path="url(#69cd756c82)"><path stroke-linecap="butt" transform="matrix(0.549152, -0.00240556, 0.00240556, 0.549152, 6.503568, 98.733866)" fill="none" stroke-linejoin="miter" d="M -0.00270013 10.500062 L 353.169774 10.503561 " stroke="#000000" stroke-width="21" stroke-opacity="1" stroke-miterlimit="4"/></g><g clip-path="url(#4449857980)"><path stroke-linecap="butt" transform="matrix(0, -0.549157, 0.549157, 0, 96.374393, 202.606017)" fill="none" stroke-linejoin="miter" d="M 0.000998795 10.500151 L 357.302862 10.500151 " stroke="#000000" stroke-width="21" stroke-opacity="1" stroke-miterlimit="4"/></g></g></g></svg>