<svg xmlns="http://www.w3.org/2000/svg" xmlns:xlink="http://www.w3.org/1999/xlink" width="500" zoomAndPan="magnify" viewBox="0 0 375 374.999991" height="500" preserveAspectRatio="xMidYMid meet" version="1.0"><defs><filter x="0%" y="0%" width="100%" height="100%" id="ad9a9f08dd"><feColorMatrix values="0 0 0 0 1 0 0 0 0 1 0 0 0 0 1 0 0 0 1 0" color-interpolation-filters="sRGB"/></filter><mask id="ca543d5b1a"><g filter="url(#ad9a9f08dd)"><rect x="-37.5" width="450" fill="#000000" y="-37.499999" height="449.999989" fill-opacity="0.78"/></g></mask><clipPath id="4bbec85d08"><path d="M 38.398438 38.398438 L 336.601562 38.398438 L 336.601562 336.601562 L 38.398438 336.601562 Z M 38.398438 38.398438 " clip-rule="nonzero"/></clipPath><clipPath id="c6c8a87be5"><path d="M 37.5 37.5 L 337.5 37.5 L 337.5 337.5 L 37.5 337.5 Z M 37.5 37.5 " clip-rule="nonzero"/></clipPath><clipPath id="76005ebb16"><rect x="0" width="375" y="0" height="375"/></clipPath><mask id="f013dd75b7"><g filter="url(#ad9a9f08dd)"><rect x="-37.5" width="450" fill="#000000" y="-37.499999" height="449.999989" fill-opacity="0.78"/></g></mask><clipPath id="19734be2be"><path d="M 0.878906 0.519531 L 238.71875 0.519531 L 238.71875 15.398438 L 0.878906 15.398438 Z M 0.878906 0.519531 " clip-rule="nonzero"/></clipPath><clipPath id="c66ed9ea03"><rect x="0" width="239" y="0" height="16"/></clipPath><mask id="dd1dbac8d4"><g filter="url(#ad9a9f08dd)"><rect x="-37.5" width="450" fill="#000000" y="-37.499999" height="449.999989" fill-opacity="0.78"/></g></mask><clipPath id="4e1c980b95"><path d="M 0.71875 0.199219 L 14.398438 0.199219 L 14.398438 240.441406 L 0.71875 240.441406 Z M 0.71875 0.199219 " clip-rule="nonzero"/></clipPath><clipPath id="61730359d9"><rect x="0" width="15" y="0" height="241"/></clipPath></defs><rect x="-37.5" width="450" fill="#ffffff" y="-37.499999" height="449.999989" fill-opacity="1"/><rect x="-37.5" width="450" fill="#ffffff" y="-37.499999" height="449.999989" fill-opacity="1"/><g mask="url(#ca543d5b1a)"><g transform="matrix(1, 0, 0, 1, 0, 0)"><g clip-path="url(#76005ebb16)"><g clip-path="url(#4bbec85d08)"><path stroke-linecap="round" transform="matrix(0.688705, 0, 0, 0.688705, 15.609016, 14.704308)" fill="none" stroke-linejoin="round" d="M 32.381258 33.717583 L 466.750496 33.717583 L 466.750496 468.081149 L 32.381258 468.081149 Z M 32.381258 33.717583 " stroke="#000000" stroke-width="1.25" stroke-opacity="1" stroke-miterlimit="1.5"/></g><g clip-path="url(#c6c8a87be5)"><path stroke-linecap="butt" transform="matrix(0.75, 0, 0, 0.75, 37.500002, 37.499998)" fill="none" stroke-linejoin="miter" d="M -0.00000271667 0.00000328333 L -0.00000271667 400.00003 L 400.000024 400.00003 L 400.000024 0.00000328333 L -0.00000271667 0.00000328333 " stroke="#000000" stroke-width="34" stroke-opacity="1" stroke-miterlimit="4"/></g></g></g></g><g mask="url(#f013dd75b7)"><g transform="matrix(1, 0, 0, 1, 68, 179)"><g clip-path="url(#c66ed9ea03)"><g clip-path="url(#19734be2be)"><path stroke-linecap="butt" transform="matrix(0.749993, -0.00328535, 0.00328535, 0.749993, 7.659318, 1.749988)" fill="none" stroke-linejoin="miter" d="M -0.00184912 9.000095 L 298.167705 8.998923 " stroke="#000000" stroke-width="18" stroke-opacity="1" stroke-miterlimit="4"/></g></g></g></g><g mask="url(#dd1dbac8d4)"><g transform="matrix(1, 0, 0, 1, 180, 67)"><g clip-path="url(#61730359d9)"><g clip-path="url(#4e1c980b95)"><path stroke-linecap="butt" transform="matrix(0, -0.75, 0.75, 0, 0.749495, 233.621074)" fill="none" stroke-linejoin="miter" d="M -0.000026521 9.000674 L 301.656243 9.000674 " stroke="#000000" stroke-width="18" stroke-opacity="1" stroke-miterlimit="4"/></g></g></g></g></svg>