<svg xmlns="http://www.w3.org/2000/svg" xmlns:xlink="http://www.w3.org/1999/xlink" width="500" zoomAndPan="magnify" viewBox="0 0 375 374.999991" height="500" preserveAspectRatio="xMidYMid meet" version="1.0"><defs><clipPath id="2cfe11c183"><path d="M 83.636719 71.242188 L 293.636719 71.242188 L 293.636719 337.492188 L 83.636719 337.492188 Z M 83.636719 71.242188 " clip-rule="nonzero"/></clipPath></defs><rect x="-37.5" width="450" fill="#ffffff" y="-37.499999" height="449.999989" fill-opacity="1"/><rect x="-37.5" width="450" fill="#ffffff" y="-37.499999" height="449.999989" fill-opacity="1"/><g clip-path="url(#2cfe11c183)"><path fill="#000000" d="M 293.570312 330.484375 C 293.570312 330.945312 293.523438 331.398438 293.433594 331.851562 C 293.34375 332.300781 293.210938 332.742188 293.035156 333.164062 C 292.859375 333.589844 292.644531 333.996094 292.390625 334.378906 C 292.136719 334.757812 291.84375 335.113281 291.519531 335.4375 C 291.195312 335.765625 290.84375 336.054688 290.460938 336.308594 C 290.078125 336.566406 289.675781 336.78125 289.25 336.957031 C 288.828125 337.132812 288.390625 337.265625 287.9375 337.355469 C 287.488281 337.445312 287.03125 337.492188 286.574219 337.492188 C 286.113281 337.492188 285.660156 337.445312 285.210938 337.355469 C 284.757812 337.265625 284.320312 337.132812 283.898438 336.957031 C 283.472656 336.78125 283.070312 336.566406 282.6875 336.308594 C 282.304688 336.054688 281.953125 335.765625 281.628906 335.4375 C 281.300781 335.113281 281.011719 334.757812 280.757812 334.378906 C 280.503906 333.996094 280.285156 333.589844 280.109375 333.164062 C 279.933594 332.742188 279.800781 332.300781 279.710938 331.851562 C 279.625 331.398438 279.578125 330.945312 279.578125 330.484375 L 279.578125 176.339844 C 279.578125 174.847656 279.542969 173.359375 279.46875 171.871094 C 279.394531 170.382812 279.285156 168.894531 279.140625 167.410156 C 278.996094 165.929688 278.8125 164.449219 278.59375 162.976562 C 278.375 161.5 278.121094 160.03125 277.832031 158.570312 C 277.539062 157.109375 277.214844 155.652344 276.851562 154.207031 C 276.492188 152.761719 276.09375 151.324219 275.664062 149.898438 C 275.230469 148.472656 274.761719 147.058594 274.261719 145.652344 C 273.761719 144.25 273.226562 142.859375 272.65625 141.484375 C 272.085938 140.105469 271.484375 138.742188 270.847656 137.394531 C 270.210938 136.046875 269.542969 134.71875 268.839844 133.402344 C 268.136719 132.085938 267.40625 130.792969 266.640625 129.511719 C 265.875 128.234375 265.078125 126.976562 264.25 125.734375 C 263.425781 124.496094 262.566406 123.277344 261.683594 122.082031 C 260.796875 120.882812 259.878906 119.707031 258.9375 118.554688 C 257.992188 117.402344 257.019531 116.273438 256.019531 115.171875 C 255.019531 114.066406 253.996094 112.988281 252.941406 111.933594 C 251.890625 110.878906 250.8125 109.851562 249.710938 108.851562 C 248.605469 107.847656 247.480469 106.875 246.328125 105.929688 C 245.179688 104.984375 244.007812 104.066406 242.8125 103.179688 C 241.613281 102.292969 240.398438 101.433594 239.160156 100.605469 C 237.921875 99.777344 236.667969 98.980469 235.390625 98.214844 C 234.113281 97.445312 232.820312 96.710938 231.507812 96.007812 C 230.195312 95.308594 228.863281 94.636719 227.519531 94 C 226.175781 93.363281 224.8125 92.757812 223.4375 92.1875 C 222.0625 91.617188 220.675781 91.082031 219.273438 90.578125 C 217.871094 90.078125 216.460938 89.609375 215.035156 89.175781 C 213.613281 88.742188 212.175781 88.347656 210.734375 87.984375 C 209.289062 87.621094 207.839844 87.296875 206.378906 87.003906 C 204.917969 86.714844 203.453125 86.457031 201.980469 86.238281 C 200.507812 86.019531 199.03125 85.839844 197.550781 85.691406 C 196.070312 85.546875 194.585938 85.4375 193.097656 85.363281 C 191.613281 85.289062 190.125 85.253906 188.636719 85.253906 C 187.148438 85.253906 185.660156 85.289062 184.175781 85.363281 C 182.6875 85.4375 181.203125 85.546875 179.722656 85.691406 C 178.242188 85.839844 176.765625 86.019531 175.292969 86.238281 C 173.820312 86.457031 172.355469 86.714844 170.894531 87.003906 C 169.433594 87.296875 167.984375 87.621094 166.539062 87.984375 C 165.097656 88.347656 163.664062 88.742188 162.238281 89.175781 C 160.8125 89.609375 159.402344 90.078125 158 90.578125 C 156.597656 91.082031 155.210938 91.617188 153.835938 92.1875 C 152.460938 92.757812 151.101562 93.363281 149.753906 94 C 148.410156 94.636719 147.082031 95.308594 145.765625 96.007812 C 144.453125 96.710938 143.160156 97.445312 141.882812 98.214844 C 140.605469 98.980469 139.351562 99.777344 138.113281 100.605469 C 136.875 101.433594 135.660156 102.292969 134.464844 103.179688 C 133.269531 104.066406 132.09375 104.984375 130.945312 105.929688 C 129.792969 106.875 128.667969 107.847656 127.566406 108.851562 C 126.460938 109.851562 125.382812 110.878906 124.332031 111.933594 C 123.28125 112.988281 122.253906 114.066406 121.253906 115.171875 C 120.253906 116.273438 119.28125 117.402344 118.339844 118.554688 C 117.394531 119.707031 116.480469 120.882812 115.59375 122.082031 C 114.707031 123.277344 113.847656 124.496094 113.023438 125.734375 C 112.195312 126.976562 111.398438 128.234375 110.632812 129.511719 C 109.867188 130.792969 109.136719 132.085938 108.433594 133.402344 C 107.730469 134.71875 107.0625 136.046875 106.425781 137.394531 C 105.789062 138.742188 105.1875 140.105469 104.617188 141.484375 C 104.046875 142.859375 103.511719 144.25 103.011719 145.652344 C 102.511719 147.058594 102.042969 148.472656 101.613281 149.898438 C 101.179688 151.324219 100.78125 152.761719 100.421875 154.207031 C 100.058594 155.652344 99.734375 157.109375 99.441406 158.570312 C 99.152344 160.03125 98.898438 161.5 98.679688 162.976562 C 98.460938 164.449219 98.28125 165.929688 98.132812 167.410156 C 97.988281 168.894531 97.878906 170.382812 97.804688 171.871094 C 97.730469 173.359375 97.695312 174.847656 97.695312 176.339844 L 97.695312 330.484375 C 97.695312 330.945312 97.652344 331.398438 97.5625 331.851562 C 97.472656 332.300781 97.339844 332.742188 97.164062 333.164062 C 96.988281 333.589844 96.773438 333.996094 96.515625 334.378906 C 96.261719 334.757812 95.972656 335.113281 95.648438 335.4375 C 95.320312 335.765625 94.96875 336.054688 94.585938 336.308594 C 94.203125 336.566406 93.800781 336.78125 93.378906 336.957031 C 92.953125 337.132812 92.515625 337.265625 92.066406 337.355469 C 91.613281 337.445312 91.160156 337.492188 90.699219 337.492188 C 90.242188 337.492188 89.785156 337.445312 89.335938 337.355469 C 88.886719 337.265625 88.449219 337.132812 88.023438 336.957031 C 87.597656 336.78125 87.195312 336.566406 86.8125 336.308594 C 86.433594 336.054688 86.078125 335.765625 85.753906 335.4375 C 85.429688 335.113281 85.140625 334.757812 84.882812 334.378906 C 84.628906 333.996094 84.414062 333.589844 84.238281 333.164062 C 84.0625 332.742188 83.929688 332.300781 83.839844 331.851562 C 83.75 331.398438 83.703125 330.945312 83.703125 330.484375 L 83.703125 176.339844 C 83.703125 174.621094 83.746094 172.902344 83.832031 171.183594 C 83.914062 169.464844 84.042969 167.75 84.210938 166.039062 C 84.378906 164.328125 84.589844 162.621094 84.839844 160.917969 C 85.09375 159.21875 85.386719 157.523438 85.722656 155.835938 C 86.054688 154.148438 86.433594 152.472656 86.847656 150.804688 C 87.265625 149.132812 87.722656 147.476562 88.222656 145.832031 C 88.722656 144.183594 89.261719 142.550781 89.839844 140.933594 C 90.417969 139.3125 91.035156 137.710938 91.691406 136.121094 C 92.347656 134.53125 93.046875 132.960938 93.78125 131.402344 C 94.511719 129.847656 95.285156 128.3125 96.09375 126.796875 C 96.90625 125.28125 97.75 123.785156 98.632812 122.308594 C 99.515625 120.832031 100.433594 119.378906 101.390625 117.949219 C 102.34375 116.519531 103.332031 115.113281 104.355469 113.734375 C 105.378906 112.351562 106.433594 110.996094 107.523438 109.664062 C 108.613281 108.335938 109.734375 107.035156 110.886719 105.761719 C 112.039062 104.484375 113.222656 103.238281 114.4375 102.023438 C 115.652344 100.808594 116.894531 99.621094 118.167969 98.464844 C 119.441406 97.3125 120.742188 96.1875 122.070312 95.097656 C 123.394531 94.007812 124.75 92.949219 126.128906 91.921875 C 127.507812 90.898438 128.910156 89.910156 130.339844 88.953125 C 131.769531 87.996094 133.21875 87.078125 134.691406 86.195312 C 136.164062 85.308594 137.65625 84.460938 139.171875 83.652344 C 140.6875 82.839844 142.21875 82.066406 143.773438 81.332031 C 145.324219 80.597656 146.894531 79.898438 148.480469 79.242188 C 150.066406 78.582031 151.667969 77.964844 153.285156 77.382812 C 154.902344 76.804688 156.535156 76.265625 158.175781 75.765625 C 159.820312 75.265625 161.476562 74.808594 163.140625 74.390625 C 164.804688 73.972656 166.480469 73.597656 168.164062 73.261719 C 169.851562 72.925781 171.542969 72.632812 173.238281 72.378906 C 174.9375 72.125 176.644531 71.914062 178.351562 71.746094 C 180.0625 71.578125 181.773438 71.453125 183.488281 71.367188 C 185.203125 71.285156 186.917969 71.242188 188.636719 71.242188 C 190.355469 71.242188 192.070312 71.285156 193.785156 71.367188 C 195.5 71.453125 197.214844 71.578125 198.921875 71.746094 C 200.632812 71.914062 202.335938 72.125 204.035156 72.378906 C 205.734375 72.632812 207.425781 72.925781 209.109375 73.261719 C 210.792969 73.597656 212.46875 73.972656 214.132812 74.390625 C 215.800781 74.808594 217.453125 75.265625 219.097656 75.765625 C 220.742188 76.265625 222.371094 76.804688 223.988281 77.382812 C 225.605469 77.964844 227.207031 78.582031 228.792969 79.242188 C 230.378906 79.898438 231.949219 80.597656 233.5 81.332031 C 235.054688 82.066406 236.585938 82.839844 238.101562 83.652344 C 239.617188 84.460938 241.109375 85.308594 242.582031 86.195312 C 244.054688 87.078125 245.507812 87.996094 246.933594 88.953125 C 248.363281 89.910156 249.765625 90.898438 251.144531 91.921875 C 252.523438 92.949219 253.878906 94.007812 255.207031 95.097656 C 256.53125 96.1875 257.832031 97.3125 259.105469 98.464844 C 260.378906 99.621094 261.621094 100.808594 262.835938 102.023438 C 264.050781 103.238281 265.234375 104.484375 266.386719 105.761719 C 267.539062 107.035156 268.660156 108.335938 269.75 109.664062 C 270.839844 110.996094 271.894531 112.351562 272.917969 113.734375 C 273.941406 115.113281 274.929688 116.519531 275.886719 117.949219 C 276.839844 119.378906 277.757812 120.832031 278.640625 122.308594 C 279.523438 123.785156 280.371094 125.28125 281.179688 126.796875 C 281.988281 128.3125 282.761719 129.847656 283.496094 131.402344 C 284.230469 132.960938 284.925781 134.53125 285.582031 136.121094 C 286.238281 137.710938 286.855469 139.3125 287.433594 140.933594 C 288.015625 142.550781 288.550781 144.183594 289.050781 145.832031 C 289.550781 147.476562 290.007812 149.132812 290.425781 150.804688 C 290.84375 152.472656 291.21875 154.148438 291.554688 155.835938 C 291.886719 157.523438 292.179688 159.21875 292.433594 160.917969 C 292.683594 162.621094 292.894531 164.328125 293.0625 166.039062 C 293.230469 167.75 293.359375 169.464844 293.441406 171.183594 C 293.527344 172.902344 293.570312 174.621094 293.570312 176.339844 Z M 293.570312 330.484375 " fill-opacity="1" fill-rule="nonzero"/></g><path stroke-linecap="butt" transform="matrix(0.75, 0.000000000000000038, -0.000000000000000038, 0.75, 83.458329, 37.55772)" fill="none" stroke-linejoin="miter" d="M -0.00172983 10.501166 L 280.482664 10.501166 " stroke="#000000" stroke-width="21" stroke-opacity="1" stroke-miterlimit="4"/></svg>