<svg xmlns="http://www.w3.org/2000/svg" xmlns:xlink="http://www.w3.org/1999/xlink" width="500" zoomAndPan="magnify" viewBox="0 0 375 374.999991" height="500" preserveAspectRatio="xMidYMid meet" version="1.0"><defs><clipPath id="36a7c7b9ba"><path d="M 42.058594 69.71875 L 333.058594 69.71875 L 333.058594 299.21875 L 42.058594 299.21875 Z M 42.058594 69.71875 " clip-rule="nonzero"/></clipPath></defs><rect x="-37.5" width="450" fill="#ffffff" y="-37.499999" height="449.999989" fill-opacity="1"/><rect x="-37.5" width="450" fill="#ffffff" y="-37.499999" height="449.999989" fill-opacity="1"/><g clip-path="url(#36a7c7b9ba)"><path fill="#000000" d="M 49.714844 299.140625 C 49.210938 299.140625 48.714844 299.09375 48.222656 298.996094 C 47.726562 298.898438 47.25 298.75 46.785156 298.558594 C 46.320312 298.367188 45.878906 298.132812 45.460938 297.851562 C 45.042969 297.574219 44.65625 297.257812 44.300781 296.902344 C 43.945312 296.546875 43.628906 296.160156 43.347656 295.742188 C 43.070312 295.328125 42.832031 294.886719 42.640625 294.421875 C 42.449219 293.957031 42.300781 293.480469 42.203125 292.988281 C 42.105469 292.496094 42.058594 292 42.058594 291.496094 C 42.058594 290.996094 42.105469 290.496094 42.203125 290.003906 C 42.300781 289.511719 42.449219 289.035156 42.640625 288.570312 C 42.832031 288.109375 43.070312 287.667969 43.347656 287.25 C 43.628906 286.832031 43.945312 286.445312 44.300781 286.089844 C 44.65625 285.734375 45.042969 285.417969 45.460938 285.140625 C 45.878906 284.863281 46.320312 284.625 46.785156 284.433594 C 47.25 284.242188 47.726562 284.097656 48.222656 284 C 48.714844 283.902344 49.210938 283.851562 49.714844 283.851562 L 218.1875 283.851562 C 219.816406 283.851562 221.445312 283.8125 223.074219 283.730469 C 224.699219 283.652344 226.324219 283.53125 227.945312 283.375 C 229.566406 283.214844 231.183594 283.015625 232.796875 282.777344 C 234.40625 282.539062 236.011719 282.261719 237.609375 281.941406 C 239.207031 281.625 240.796875 281.269531 242.378906 280.875 C 243.957031 280.476562 245.527344 280.042969 247.085938 279.574219 C 248.648438 279.101562 250.191406 278.589844 251.726562 278.042969 C 253.261719 277.496094 254.78125 276.910156 256.285156 276.285156 C 257.792969 275.664062 259.28125 275.003906 260.753906 274.308594 C 262.226562 273.613281 263.679688 272.882812 265.117188 272.117188 C 266.554688 271.351562 267.972656 270.550781 269.371094 269.710938 C 270.765625 268.875 272.144531 268.007812 273.496094 267.101562 C 274.851562 266.199219 276.183594 265.261719 277.492188 264.292969 C 278.800781 263.324219 280.085938 262.324219 281.34375 261.292969 C 282.605469 260.261719 283.835938 259.199219 285.042969 258.105469 C 286.25 257.015625 287.429688 255.894531 288.582031 254.742188 C 289.734375 253.59375 290.859375 252.414062 291.953125 251.210938 C 293.046875 250.003906 294.109375 248.773438 295.144531 247.515625 C 296.175781 246.261719 297.179688 244.976562 298.148438 243.671875 C 299.121094 242.363281 300.058594 241.035156 300.964844 239.683594 C 301.867188 238.332031 302.742188 236.957031 303.578125 235.5625 C 304.414062 234.167969 305.21875 232.753906 305.988281 231.316406 C 306.753906 229.882812 307.488281 228.429688 308.183594 226.960938 C 308.878906 225.492188 309.539062 224.003906 310.164062 222.5 C 310.785156 221 311.375 219.480469 311.921875 217.949219 C 312.472656 216.417969 312.980469 214.875 313.453125 213.320312 C 313.929688 211.761719 314.363281 210.195312 314.757812 208.617188 C 315.152344 207.039062 315.511719 205.453125 315.828125 203.859375 C 316.148438 202.261719 316.425781 200.660156 316.664062 199.050781 C 316.902344 197.441406 317.101562 195.828125 317.261719 194.210938 C 317.421875 192.59375 317.542969 190.96875 317.621094 189.347656 C 317.703125 187.722656 317.742188 186.097656 317.742188 184.46875 C 317.742188 182.84375 317.703125 181.21875 317.621094 179.59375 C 317.542969 177.96875 317.421875 176.347656 317.261719 174.726562 C 317.101562 173.109375 316.902344 171.496094 316.664062 169.886719 C 316.425781 168.277344 316.148438 166.675781 315.828125 165.082031 C 315.511719 163.484375 315.152344 161.898438 314.757812 160.320312 C 314.363281 158.742188 313.929688 157.175781 313.453125 155.621094 C 312.980469 154.0625 312.472656 152.519531 311.921875 150.988281 C 311.375 149.457031 310.785156 147.941406 310.164062 146.4375 C 309.539062 144.933594 308.878906 143.449219 308.183594 141.976562 C 307.488281 140.507812 306.753906 139.054688 305.988281 137.621094 C 305.21875 136.1875 304.414062 134.773438 303.578125 133.375 C 302.742188 131.980469 301.867188 130.609375 300.964844 129.253906 C 300.058594 127.902344 299.121094 126.574219 298.148438 125.265625 C 297.179688 123.960938 296.175781 122.679688 295.144531 121.421875 C 294.109375 120.164062 293.046875 118.933594 291.953125 117.726562 C 290.859375 116.523438 289.734375 115.34375 288.582031 114.195312 C 287.429688 113.046875 286.25 111.925781 285.042969 110.832031 C 283.835938 109.738281 282.605469 108.675781 281.34375 107.644531 C 280.085938 106.613281 278.800781 105.613281 277.492188 104.644531 C 276.183594 103.675781 274.851562 102.738281 273.496094 101.835938 C 272.144531 100.933594 270.765625 100.0625 269.371094 99.226562 C 267.972656 98.390625 266.554688 97.589844 265.117188 96.820312 C 263.679688 96.054688 262.226562 95.324219 260.753906 94.628906 C 259.28125 93.933594 257.792969 93.273438 256.285156 92.652344 C 254.78125 92.027344 253.261719 91.445312 251.726562 90.894531 C 250.191406 90.347656 248.648438 89.839844 247.085938 89.367188 C 245.527344 88.894531 243.957031 88.460938 242.378906 88.066406 C 240.796875 87.667969 239.207031 87.3125 237.609375 86.996094 C 236.011719 86.679688 234.40625 86.402344 232.796875 86.164062 C 231.183594 85.921875 229.566406 85.722656 227.945312 85.566406 C 226.324219 85.40625 224.699219 85.285156 223.074219 85.207031 C 221.445312 85.125 219.816406 85.085938 218.1875 85.085938 L 49.714844 85.085938 C 49.210938 85.085938 48.714844 85.039062 48.222656 84.941406 C 47.726562 84.84375 47.25 84.695312 46.785156 84.503906 C 46.320312 84.3125 45.878906 84.078125 45.460938 83.796875 C 45.042969 83.519531 44.65625 83.203125 44.300781 82.847656 C 43.945312 82.492188 43.628906 82.105469 43.347656 81.6875 C 43.070312 81.273438 42.832031 80.832031 42.640625 80.367188 C 42.449219 79.902344 42.300781 79.425781 42.203125 78.933594 C 42.105469 78.441406 42.058594 77.945312 42.058594 77.441406 C 42.058594 76.941406 42.105469 76.441406 42.203125 75.949219 C 42.300781 75.457031 42.449219 74.980469 42.640625 74.515625 C 42.832031 74.050781 43.070312 73.613281 43.347656 73.195312 C 43.628906 72.777344 43.945312 72.390625 44.300781 72.035156 C 44.65625 71.679688 45.042969 71.363281 45.460938 71.085938 C 45.878906 70.804688 46.320312 70.570312 46.785156 70.378906 C 47.25 70.1875 47.726562 70.042969 48.222656 69.945312 C 48.714844 69.847656 49.210938 69.796875 49.714844 69.796875 L 218.1875 69.796875 C 220.070312 69.796875 221.949219 69.84375 223.824219 69.933594 C 225.703125 70.027344 227.578125 70.164062 229.449219 70.347656 C 231.320312 70.53125 233.183594 70.761719 235.042969 71.039062 C 236.902344 71.3125 238.753906 71.632812 240.597656 72 C 242.441406 72.367188 244.277344 72.777344 246.101562 73.234375 C 247.921875 73.691406 249.734375 74.191406 251.535156 74.734375 C 253.332031 75.28125 255.117188 75.867188 256.886719 76.5 C 258.65625 77.132812 260.410156 77.808594 262.148438 78.527344 C 263.882812 79.242188 265.601562 80.003906 267.300781 80.808594 C 269 81.609375 270.679688 82.453125 272.335938 83.335938 C 273.996094 84.222656 275.628906 85.148438 277.242188 86.113281 C 278.855469 87.078125 280.441406 88.082031 282.007812 89.121094 C 283.570312 90.164062 285.105469 91.246094 286.617188 92.363281 C 288.125 93.480469 289.609375 94.636719 291.0625 95.828125 C 292.515625 97.015625 293.9375 98.242188 295.328125 99.503906 C 296.722656 100.761719 298.082031 102.058594 299.414062 103.382812 C 300.742188 104.710938 302.039062 106.070312 303.300781 107.460938 C 304.5625 108.851562 305.789062 110.269531 306.984375 111.722656 C 308.175781 113.171875 309.332031 114.652344 310.453125 116.160156 C 311.570312 117.667969 312.652344 119.199219 313.699219 120.761719 C 314.742188 122.320312 315.75 123.90625 316.714844 125.515625 C 317.679688 127.125 318.609375 128.757812 319.492188 130.414062 C 320.378906 132.066406 321.226562 133.742188 322.027344 135.441406 C 322.832031 137.136719 323.59375 138.851562 324.3125 140.585938 C 325.03125 142.320312 325.710938 144.070312 326.34375 145.835938 C 326.976562 147.605469 327.566406 149.386719 328.109375 151.183594 C 328.65625 152.976562 329.15625 154.785156 329.613281 156.605469 C 330.070312 158.425781 330.484375 160.257812 330.851562 162.097656 C 331.21875 163.9375 331.539062 165.785156 331.8125 167.644531 C 332.089844 169.5 332.320312 171.363281 332.503906 173.230469 C 332.6875 175.097656 332.828125 176.96875 332.917969 178.84375 C 333.011719 180.71875 333.058594 182.59375 333.058594 184.46875 C 333.058594 186.347656 333.011719 188.222656 332.917969 190.097656 C 332.828125 191.96875 332.6875 193.839844 332.503906 195.710938 C 332.320312 197.578125 332.089844 199.4375 331.8125 201.296875 C 331.539062 203.152344 331.21875 205 330.851562 206.839844 C 330.484375 208.679688 330.070312 210.511719 329.613281 212.332031 C 329.15625 214.152344 328.65625 215.960938 328.109375 217.757812 C 327.566406 219.554688 326.976562 221.335938 326.34375 223.101562 C 325.710938 224.867188 325.03125 226.617188 324.3125 228.351562 C 323.59375 230.085938 322.832031 231.800781 322.027344 233.5 C 321.226562 235.195312 320.378906 236.871094 319.492188 238.527344 C 318.609375 240.179688 317.679688 241.8125 316.714844 243.421875 C 315.75 245.03125 314.742188 246.617188 313.699219 248.179688 C 312.652344 249.738281 311.570312 251.273438 310.453125 252.78125 C 309.332031 254.285156 308.175781 255.765625 306.984375 257.214844 C 305.789062 258.667969 304.5625 260.089844 303.300781 261.480469 C 302.039062 262.867188 300.742188 264.226562 299.414062 265.554688 C 298.082031 266.882812 296.722656 268.175781 295.328125 269.4375 C 293.9375 270.695312 292.515625 271.921875 291.0625 273.113281 C 289.609375 274.304688 288.125 275.457031 286.617188 276.574219 C 285.105469 277.691406 283.570312 278.773438 282.007812 279.816406 C 280.441406 280.859375 278.855469 281.863281 277.242188 282.828125 C 275.628906 283.792969 273.996094 284.714844 272.335938 285.601562 C 270.679688 286.484375 269 287.328125 267.300781 288.132812 C 265.601562 288.933594 263.882812 289.695312 262.148438 290.414062 C 260.410156 291.132812 258.65625 291.804688 256.886719 292.4375 C 255.117188 293.070312 253.332031 293.660156 251.535156 294.203125 C 249.734375 294.75 247.921875 295.25 246.101562 295.707031 C 244.277344 296.160156 242.441406 296.570312 240.597656 296.9375 C 238.753906 297.304688 236.902344 297.625 235.042969 297.902344 C 233.183594 298.175781 231.320312 298.40625 229.449219 298.589844 C 227.578125 298.773438 225.703125 298.910156 223.824219 299.003906 C 221.949219 299.09375 220.070312 299.140625 218.1875 299.140625 Z M 49.714844 299.140625 " fill-opacity="1" fill-rule="nonzero"/></g><path stroke-linecap="butt" transform="matrix(-0.398712, 0.635239, -0.635239, -0.398712, 253.322361, 46.297526)" fill="none" stroke-linejoin="miter" d="M -0.00188781 10.501196 L 457.796059 10.497836 " stroke="#000000" stroke-width="21" stroke-opacity="1" stroke-miterlimit="4"/></svg>