<svg xmlns="http://www.w3.org/2000/svg" xmlns:xlink="http://www.w3.org/1999/xlink" width="500" zoomAndPan="magnify" viewBox="0 0 375 374.999991" height="500" preserveAspectRatio="xMidYMid meet" version="1.0"><defs><clipPath id="979560e12c"><path d="M 69 37.5 L 306 37.5 L 306 337.5 L 69 337.5 Z M 69 37.5 " clip-rule="nonzero"/></clipPath></defs><rect x="-37.5" width="450" fill="#ffffff" y="-37.499999" height="449.999989" fill-opacity="1"/><rect x="-37.5" width="450" fill="#ffffff" y="-37.499999" height="449.999989" fill-opacity="1"/><g clip-path="url(#979560e12c)"><path fill="#000000" d="M 305.921875 329.605469 C 305.921875 330.125 305.871094 330.636719 305.769531 331.144531 C 305.667969 331.652344 305.519531 332.148438 305.320312 332.625 C 305.121094 333.105469 304.878906 333.558594 304.589844 333.992188 C 304.300781 334.421875 303.976562 334.820312 303.609375 335.1875 C 303.242188 335.554688 302.84375 335.882812 302.414062 336.167969 C 301.980469 336.457031 301.527344 336.699219 301.046875 336.898438 C 300.570312 337.097656 300.074219 337.246094 299.566406 337.347656 C 299.058594 337.449219 298.542969 337.5 298.027344 337.5 C 297.507812 337.5 296.996094 337.449219 296.484375 337.347656 C 295.976562 337.246094 295.484375 337.097656 295.003906 336.898438 C 294.527344 336.699219 294.070312 336.457031 293.640625 336.167969 C 293.210938 335.882812 292.808594 335.554688 292.445312 335.1875 C 292.078125 334.820312 291.75 334.421875 291.460938 333.992188 C 291.175781 333.558594 290.929688 333.105469 290.734375 332.625 C 290.535156 332.148438 290.382812 331.652344 290.285156 331.144531 C 290.183594 330.636719 290.132812 330.125 290.132812 329.605469 L 290.132812 155.921875 C 290.132812 154.242188 290.089844 152.5625 290.007812 150.886719 C 289.925781 149.207031 289.800781 147.53125 289.636719 145.863281 C 289.472656 144.191406 289.265625 142.523438 289.019531 140.863281 C 288.773438 139.199219 288.488281 137.546875 288.160156 135.898438 C 287.832031 134.25 287.464844 132.613281 287.054688 130.984375 C 286.648438 129.355469 286.199219 127.734375 285.710938 126.128906 C 285.226562 124.519531 284.699219 122.925781 284.132812 121.34375 C 283.566406 119.765625 282.960938 118.199219 282.320312 116.644531 C 281.675781 115.09375 280.996094 113.558594 280.277344 112.039062 C 279.558594 110.523438 278.804688 109.023438 278.011719 107.539062 C 277.222656 106.058594 276.394531 104.597656 275.53125 103.15625 C 274.667969 101.71875 273.769531 100.296875 272.835938 98.902344 C 271.902344 97.503906 270.933594 96.132812 269.933594 94.785156 C 268.933594 93.433594 267.902344 92.109375 266.835938 90.8125 C 265.769531 89.515625 264.671875 88.242188 263.546875 86.996094 C 262.417969 85.753906 261.257812 84.539062 260.070312 83.347656 C 258.882812 82.160156 257.667969 81.003906 256.421875 79.875 C 255.179688 78.75 253.90625 77.652344 252.609375 76.585938 C 251.308594 75.519531 249.988281 74.488281 248.636719 73.488281 C 247.289062 72.484375 245.914062 71.519531 244.519531 70.585938 C 243.121094 69.652344 241.703125 68.753906 240.261719 67.890625 C 238.824219 67.027344 237.363281 66.199219 235.878906 65.40625 C 234.398438 64.617188 232.898438 63.863281 231.378906 63.144531 C 229.863281 62.425781 228.328125 61.746094 226.777344 61.101562 C 225.222656 60.460938 223.65625 59.855469 222.074219 59.289062 C 220.492188 58.722656 218.898438 58.195312 217.292969 57.707031 C 215.683594 57.222656 214.066406 56.773438 212.4375 56.363281 C 210.808594 55.957031 209.167969 55.589844 207.523438 55.261719 C 205.875 54.933594 204.21875 54.648438 202.558594 54.398438 C 200.898438 54.152344 199.230469 53.949219 197.558594 53.785156 C 195.886719 53.617188 194.214844 53.496094 192.535156 53.414062 C 190.859375 53.332031 189.179688 53.289062 187.5 53.289062 C 185.820312 53.289062 184.140625 53.332031 182.464844 53.414062 C 180.785156 53.496094 179.113281 53.617188 177.441406 53.785156 C 175.769531 53.949219 174.101562 54.152344 172.441406 54.398438 C 170.78125 54.648438 169.125 54.933594 167.476562 55.261719 C 165.832031 55.589844 164.191406 55.957031 162.5625 56.363281 C 160.933594 56.773438 159.316406 57.222656 157.707031 57.707031 C 156.101562 58.195312 154.507812 58.722656 152.925781 59.289062 C 151.34375 59.855469 149.777344 60.460938 148.222656 61.101562 C 146.671875 61.746094 145.136719 62.425781 143.621094 63.144531 C 142.101562 63.863281 140.601562 64.617188 139.121094 65.40625 C 137.636719 66.199219 136.175781 67.027344 134.738281 67.890625 C 133.296875 68.753906 131.878906 69.652344 130.480469 70.585938 C 129.085938 71.519531 127.710938 72.484375 126.363281 73.488281 C 125.011719 74.488281 123.691406 75.519531 122.390625 76.585938 C 121.09375 77.652344 119.820312 78.75 118.578125 79.875 C 117.332031 81.003906 116.117188 82.160156 114.929688 83.347656 C 113.742188 84.539062 112.582031 85.753906 111.453125 86.996094 C 110.328125 88.242188 109.230469 89.515625 108.164062 90.8125 C 107.097656 92.109375 106.066406 93.433594 105.066406 94.785156 C 104.066406 96.132812 103.097656 97.503906 102.164062 98.902344 C 101.230469 100.296875 100.332031 101.71875 99.46875 103.15625 C 98.605469 104.597656 97.777344 106.058594 96.988281 107.539062 C 96.195312 109.023438 95.441406 110.523438 94.722656 112.039062 C 94.003906 113.558594 93.324219 115.09375 92.679688 116.644531 C 92.039062 118.199219 91.433594 119.765625 90.867188 121.34375 C 90.300781 122.925781 89.773438 124.519531 89.289062 126.128906 C 88.800781 127.734375 88.351562 129.355469 87.945312 130.984375 C 87.535156 132.613281 87.167969 134.25 86.839844 135.898438 C 86.511719 137.546875 86.226562 139.199219 85.980469 140.863281 C 85.734375 142.523438 85.527344 144.191406 85.363281 145.863281 C 85.199219 147.53125 85.074219 149.207031 84.992188 150.886719 C 84.910156 152.5625 84.867188 154.242188 84.867188 155.921875 L 84.867188 329.605469 C 84.867188 330.125 84.816406 330.636719 84.714844 331.144531 C 84.617188 331.652344 84.464844 332.148438 84.265625 332.625 C 84.070312 333.105469 83.824219 333.558594 83.539062 333.992188 C 83.25 334.421875 82.921875 334.820312 82.554688 335.1875 C 82.191406 335.554688 81.789062 335.882812 81.359375 336.167969 C 80.929688 336.457031 80.472656 336.699219 79.996094 336.898438 C 79.515625 337.097656 79.023438 337.246094 78.515625 337.347656 C 78.003906 337.449219 77.492188 337.5 76.972656 337.5 C 76.457031 337.5 75.941406 337.449219 75.433594 337.347656 C 74.925781 337.246094 74.429688 337.097656 73.953125 336.898438 C 73.472656 336.699219 73.019531 336.457031 72.585938 336.167969 C 72.15625 335.882812 71.757812 335.554688 71.390625 335.1875 C 71.023438 334.820312 70.699219 334.421875 70.410156 333.992188 C 70.121094 333.558594 69.878906 333.105469 69.679688 332.625 C 69.480469 332.148438 69.332031 331.652344 69.230469 331.144531 C 69.128906 330.636719 69.078125 330.125 69.078125 329.605469 L 69.078125 155.921875 C 69.078125 153.984375 69.125 152.046875 69.222656 150.109375 C 69.316406 148.175781 69.460938 146.242188 69.648438 144.3125 C 69.839844 142.386719 70.078125 140.460938 70.359375 138.546875 C 70.644531 136.628906 70.976562 134.71875 71.355469 132.816406 C 71.734375 130.917969 72.15625 129.027344 72.628906 127.148438 C 73.097656 125.265625 73.617188 123.398438 74.179688 121.546875 C 74.742188 119.691406 75.347656 117.851562 76 116.027344 C 76.652344 114.203125 77.351562 112.394531 78.09375 110.601562 C 78.835938 108.8125 79.621094 107.042969 80.449219 105.289062 C 81.277344 103.539062 82.148438 101.808594 83.0625 100.097656 C 83.976562 98.386719 84.929688 96.703125 85.925781 95.039062 C 86.921875 93.378906 87.960938 91.742188 89.035156 90.128906 C 90.113281 88.519531 91.230469 86.933594 92.382812 85.378906 C 93.539062 83.820312 94.730469 82.292969 95.960938 80.796875 C 97.1875 79.296875 98.453125 77.832031 99.753906 76.394531 C 101.058594 74.957031 102.394531 73.554688 103.761719 72.183594 C 105.132812 70.8125 106.539062 69.476562 107.972656 68.175781 C 109.410156 66.875 110.875 65.609375 112.375 64.378906 C 113.871094 63.152344 115.398438 61.957031 116.957031 60.804688 C 118.511719 59.648438 120.097656 58.535156 121.707031 57.457031 C 123.320312 56.378906 124.957031 55.34375 126.621094 54.347656 C 128.28125 53.351562 129.96875 52.398438 131.675781 51.484375 C 133.386719 50.570312 135.117188 49.699219 136.867188 48.871094 C 138.621094 48.042969 140.390625 47.257812 142.183594 46.515625 C 143.972656 45.773438 145.78125 45.074219 147.605469 44.421875 C 149.429688 43.769531 151.269531 43.160156 153.125 42.597656 C 154.980469 42.035156 156.847656 41.519531 158.726562 41.050781 C 160.605469 40.578125 162.496094 40.152344 164.398438 39.777344 C 166.296875 39.398438 168.207031 39.066406 170.125 38.78125 C 172.042969 38.496094 173.964844 38.261719 175.894531 38.070312 C 177.820312 37.878906 179.753906 37.738281 181.6875 37.644531 C 183.625 37.546875 185.5625 37.5 187.5 37.5 C 189.4375 37.5 191.375 37.546875 193.3125 37.644531 C 195.246094 37.738281 197.179688 37.878906 199.105469 38.070312 C 201.035156 38.261719 202.957031 38.496094 204.875 38.78125 C 206.792969 39.066406 208.703125 39.398438 210.601562 39.777344 C 212.503906 40.152344 214.394531 40.578125 216.273438 41.050781 C 218.152344 41.519531 220.019531 42.035156 221.875 42.597656 C 223.730469 43.160156 225.570312 43.769531 227.394531 44.421875 C 229.21875 45.074219 231.027344 45.773438 232.816406 46.515625 C 234.609375 47.257812 236.378906 48.042969 238.132812 48.871094 C 239.882812 49.699219 241.613281 50.570312 243.324219 51.484375 C 245.03125 52.398438 246.71875 53.351562 248.378906 54.347656 C 250.042969 55.34375 251.679688 56.378906 253.292969 57.457031 C 254.902344 58.535156 256.488281 59.648438 258.042969 60.804688 C 259.601562 61.957031 261.128906 63.152344 262.625 64.378906 C 264.125 65.609375 265.589844 66.875 267.027344 68.175781 C 268.460938 69.476562 269.867188 70.8125 271.234375 72.183594 C 272.605469 73.554688 273.941406 74.957031 275.246094 76.394531 C 276.546875 77.832031 277.8125 79.296875 279.039062 80.796875 C 280.269531 82.292969 281.460938 83.820312 282.617188 85.378906 C 283.769531 86.933594 284.886719 88.519531 285.964844 90.128906 C 287.039062 91.742188 288.078125 93.378906 289.074219 95.039062 C 290.070312 96.703125 291.023438 98.386719 291.9375 100.097656 C 292.851562 101.808594 293.722656 103.539062 294.550781 105.289062 C 295.378906 107.042969 296.164062 108.8125 296.90625 110.601562 C 297.648438 112.394531 298.347656 114.203125 299 116.027344 C 299.652344 117.851562 300.257812 119.691406 300.820312 121.546875 C 301.382812 123.398438 301.902344 125.265625 302.371094 127.148438 C 302.84375 129.027344 303.265625 130.917969 303.644531 132.816406 C 304.023438 134.71875 304.355469 136.628906 304.640625 138.546875 C 304.921875 140.460938 305.160156 142.386719 305.351562 144.3125 C 305.539062 146.242188 305.683594 148.175781 305.777344 150.109375 C 305.875 152.046875 305.921875 153.984375 305.921875 155.921875 Z M 305.921875 329.605469 " fill-opacity="1" fill-rule="nonzero"/></g></svg>