<svg xmlns="http://www.w3.org/2000/svg" xmlns:xlink="http://www.w3.org/1999/xlink" width="500" zoomAndPan="magnify" viewBox="0 0 375 374.999991" height="500" preserveAspectRatio="xMidYMid meet" version="1.0"><rect x="-37.5" width="450" fill="#ffffff" y="-37.499999" height="449.999989" fill-opacity="1"/><rect x="-37.5" width="450" fill="#ffffff" y="-37.499999" height="449.999989" fill-opacity="1"/><path fill="#000000" d="M 348.644531 173.65625 C 331.445312 166.34375 315.230469 155.949219 297.140625 150.835938 C 292.148438 149.425781 287.902344 155.308594 292.316406 159.003906 C 298.625 164.273438 305.511719 168.707031 312.554688 172.910156 C 291.242188 170.417969 268.609375 178.0625 249.164062 185.65625 C 233.816406 191.648438 218.453125 198.445312 202.003906 200.75 C 187.117188 202.839844 172.945312 199.746094 158.996094 194.71875 C 132.988281 185.347656 108.519531 174.910156 80.242188 178.859375 C 56.886719 182.117188 33.621094 193.464844 21.109375 213.796875 C 19.125 217.015625 23.578125 219.867188 26.1875 217.601562 C 45.128906 201.089844 67.847656 187.804688 93.847656 188.5625 C 121.34375 189.363281 142.929688 208.285156 168.199219 216.441406 C 194.21875 224.84375 219.664062 217.882812 244.347656 208.390625 C 268.667969 199.039062 292.699219 188.527344 318.542969 193.863281 C 312.828125 198.035156 306.65625 201.652344 301.261719 206.164062 C 293.78125 212.417969 300.6875 225.214844 310.09375 221.128906 C 325.59375 214.390625 339.492188 201.078125 351.097656 189.078125 C 355.824219 184.1875 355.492188 176.566406 348.644531 173.65625 Z M 348.644531 173.65625 " fill-opacity="1" fill-rule="nonzero"/></svg>