<svg xmlns="http://www.w3.org/2000/svg" xmlns:xlink="http://www.w3.org/1999/xlink" width="500" zoomAndPan="magnify" viewBox="0 0 375 374.999991" height="500" preserveAspectRatio="xMidYMid meet" version="1.0"><defs><clipPath id="39a8068830"><path d="M 0.558594 64 L 318.320312 64 L 318.320312 215 L 0.558594 215 Z M 0.558594 64 " clip-rule="nonzero"/></clipPath><clipPath id="0454378fba"><path d="M 150 0.480469 L 164 0.480469 L 164 279.601562 L 150 279.601562 Z M 150 0.480469 " clip-rule="nonzero"/></clipPath><clipPath id="268bee277c"><rect x="0" width="319" y="0" height="280"/></clipPath></defs><rect x="-37.5" width="450" fill="#ffffff" y="-37.499999" height="449.999989" fill-opacity="1"/><rect x="-37.5" width="450" fill="#ffffff" y="-37.499999" height="449.999989" fill-opacity="1"/><g transform="matrix(1, 0, 0, 1, 28, 30)"><g clip-path="url(#268bee277c)"><g clip-path="url(#39a8068830)"><path stroke-linecap="butt" transform="matrix(0.624919, -0.00236177, 0.00236177, 0.624919, 7.536947, 133.4491)" fill="none" stroke-linejoin="miter" d="M 0.00120192 10.501561 L 485.858174 10.500032 " stroke="#000000" stroke-width="21" stroke-opacity="1" stroke-miterlimit="4"/></g><g clip-path="url(#0454378fba)"><path stroke-linecap="butt" transform="matrix(0, -0.624923, 0.624923, 0, 150.681927, 272.518867)" fill="none" stroke-linejoin="miter" d="M -0.00106368 10.497709 L 424.088636 10.497709 " stroke="#000000" stroke-width="21" stroke-opacity="1" stroke-miterlimit="4"/></g></g></g><path stroke-linecap="butt" transform="matrix(0.75, 0, 0, 0.75, 35.563914, 325.406902)" fill="none" stroke-linejoin="miter" d="M -0.00188598 7.999131 L 404.857516 7.999131 " stroke="#000000" stroke-width="16" stroke-opacity="1" stroke-miterlimit="4"/></svg>