<svg xmlns="http://www.w3.org/2000/svg" xmlns:xlink="http://www.w3.org/1999/xlink" width="500" zoomAndPan="magnify" viewBox="0 0 375 374.999991" height="500" preserveAspectRatio="xMidYMid meet" version="1.0"><defs><clipPath id="32fc991303"><path d="M 0.28125 51 L 316.839844 51 L 316.839844 227 L 0.28125 227 Z M 0.28125 51 " clip-rule="nonzero"/></clipPath><clipPath id="7b704af3a5"><path d="M 148 0.519531 L 165 0.519531 L 165 278.921875 L 148 278.921875 Z M 148 0.519531 " clip-rule="nonzero"/></clipPath><clipPath id="b14ff52734"><rect x="0" width="317" y="0" height="279"/></clipPath></defs><rect x="-37.5" width="450" fill="#ffffff" y="-37.499999" height="449.999989" fill-opacity="1"/><rect x="-37.5" width="450" fill="#ffffff" y="-37.499999" height="449.999989" fill-opacity="1"/><g transform="matrix(1, 0, 0, 1, 29, 29)"><g clip-path="url(#b14ff52734)"><g clip-path="url(#32fc991303)"><path stroke-linecap="butt" transform="matrix(0.733669, -0.00277592, 0.00277592, 0.733669, 8.45958, 131.867725)" fill="none" stroke-linejoin="miter" d="M -0.000602426 10.498727 L 408.882082 10.501746 " stroke="#000000" stroke-width="21" stroke-opacity="1" stroke-miterlimit="4"/></g><g clip-path="url(#7b704af3a5)"><path stroke-linecap="butt" transform="matrix(0, -0.733674, 0.733674, 0, 148.673822, 270.640948)" fill="none" stroke-linejoin="miter" d="M 0.000439601 10.502058 L 357.304365 10.502058 " stroke="#000000" stroke-width="21" stroke-opacity="1" stroke-miterlimit="4"/></g></g></g><path stroke-linecap="butt" transform="matrix(0.75, 0, 0, 0.75, 43.293426, 320.340097)" fill="none" stroke-linejoin="miter" d="M -0.000610276 10.499664 L 386.822332 10.499664 " stroke="#000000" stroke-width="21" stroke-opacity="1" stroke-miterlimit="4"/></svg>